SplineFontDB: 3.2
FontName: Wexville
FullName: Wexville
FamilyName: Wexville
Weight: Regular
Copyright: Copyright (c) 2018, jhudson.\nLicensed under the SIL Open Font License, version 1.1. \nhttp://scripts.sil.org/OFL_web
UComments: "2018-4-12: Created with FontForge (http://fontforge.org)"
Version: 001.000
ItalicAngle: 0
UnderlinePosition: -204
UnderlineWidth: 102
Ascent: 1638
Descent: 410
InvalidEm: 0
LayerCount: 2
Layer: 0 0 "Back" 1
Layer: 1 0 "Fore" 0
XUID: [1021 221 1603365728 10372760]
StyleMap: 0x0000
FSType: 0
OS2Version: 0
OS2_WeightWidthSlopeOnly: 0
OS2_UseTypoMetrics: 1
CreationTime: 1523576870
ModificationTime: 1593020739
OS2TypoAscent: 0
OS2TypoAOffset: 1
OS2TypoDescent: 0
OS2TypoDOffset: 1
OS2TypoLinegap: 184
OS2WinAscent: 0
OS2WinAOffset: 1
OS2WinDescent: 0
OS2WinDOffset: 1
HheadAscent: 0
HheadAOffset: 1
HheadDescent: 0
HheadDOffset: 1
MarkAttachClasses: 1
DEI: 91125
Encoding: ISO8859-1
UnicodeInterp: none
NameList: AGL For New Fonts
DisplaySize: -48
AntiAlias: 1
FitToEm: 0
WinInfo: 39 13 8
BeginPrivate: 0
EndPrivate
Grid
950.146484375 2662 m 0
 950.146484375 -1434 l 1024
  Named: "eight-width"
-2048 1373.20019531 m 0
 4096 1373.20019531 l 1024
  Named: "i_top"
EndSplineSet
BeginChars: 290 225

StartChar: A
Encoding: 65 65 0
Width: 1712
VWidth: 0
Flags: HW
LayerCount: 2
UndoRedoHistory
Layer: 1
Undoes
UndoOperation
Index: 0
Type: 1
WasModified: 0
WasOrder2: 0
Layer: 2
Width: 1712
VWidth: 0
LBearingChange: 0
UnicodeEnc: 0
InstructionsLength: 0
SplineSet
822 1546 m 0
 826 1546 830 1548 834 1548 c 0
 870 1548 908 1544 948 1540 c 0
 1060 1290 1190 1000 1226 892 c 0
 1268 784 1244 840 1486 242 c 1
 1496 246 1496 244 1508 242 c 0
 1588 210 1602 186 1630 186 c 0
 1644 186 1664 192 1698 208 c 1
 1656 82 1490 -8 1420 -8 c 0
 1416 -8 1412 -8 1410 -8 c 0
 1346 0 1344 38 1310 62 c 0
 1276 48 1226 38 1180 26 c 1
 1236 66 1280 98 1326 132 c 0
 1158 488 1192 432 1138 532 c 2
 608 532 l 2
 572 442 558 406 518 308 c 2
 648 182 l 1
 472 0 l 1
 410 64 348 88 284 88 c 0
 186 88 82 30 -28 -32 c 1
 40 140 260 340 404 340 c 0
 412 340 420 342 428 340 c 0
 430 340 l 0
 502 518 684 1048 770 1382 c 1
 560 1352 410 1198 410 1198 c 1
 482 1446 610 1542 822 1546 c 0
848 1364 m 1
 808 1272 720 984 684 854 c 1
 710 854 740 854 774 854 c 0
 846 854 932 854 1000 854 c 0
 1014 854 1026 854 1038 854 c 1
 1018 904 894 1280 848 1364 c 1
886 660 m 0
 880 660 876 660 870 660 c 0
 788 660 700 660 656 658 c 0
 652 646 622 582 618 570 c 2
 1122 570 l 2
 1116 586 1086 648 1082 658 c 0
 1036 658 972 660 886 660 c 0
EndSplineSet
EndUndoOperation
EndUndoes
Redoes
EndRedoes
EndUndoRedoHistory
Fore
SplineSet
822 1546 m 0
 826 1546 830 1548 834 1548 c 0
 870 1548 908 1544 948 1540 c 0
 1060 1290 1190 1000 1226 892 c 0
 1268 784 1244 840 1486 242 c 1
 1496 246 1496 244 1508 242 c 0
 1588 210 1602 186 1630 186 c 0
 1644 186 1664 192 1698 208 c 1
 1656 82 1490 -8 1420 -8 c 0
 1416 -8 1412 -8 1410 -8 c 0
 1346 0 1344 38 1310 62 c 0
 1276 48 1226 38 1180 26 c 1
 1236 66 1280 98 1326 132 c 0
 1158 488 1192 432 1138 532 c 2
 608 532 l 2
 572 442 558 406 518 308 c 2
 648 182 l 1
 472 0 l 1
 410 64 348 88 284 88 c 0
 186 88 82 30 -28 -32 c 1
 40 140 260 340 404 340 c 0
 412 340 420 342 428 340 c 0
 430 340 l 0
 502 518 684 1048 770 1382 c 1
 560 1352 410 1198 410 1198 c 1
 482 1446 610 1542 822 1546 c 0
848 1364 m 1
 808 1272 720 984 684 854 c 1
 710 854 740 854 774 854 c 0
 846 854 932 854 1000 854 c 0
 1014 854 1026 854 1038 854 c 1
 1018 904 894 1280 848 1364 c 1
886 660 m 0
 880 660 876 660 870 660 c 0
 788 660 700 660 656 658 c 0
 652 646 622 582 618 570 c 2
 1122 570 l 2
 1116 586 1086 648 1082 658 c 0
 1036 658 972 660 886 660 c 0
EndSplineSet
Validated: 1
EndChar

StartChar: B
Encoding: 66 66 1
Width: 1156
VWidth: 0
Flags: HW
LayerCount: 2
UndoRedoHistory
Layer: 1
Undoes
UndoOperation
Index: 0
Type: 1
WasModified: 0
WasOrder2: 0
Layer: 2
Width: 1156
VWidth: 0
LBearingChange: 0
UnicodeEnc: 0
InstructionsLength: 0
SplineSet
960 1496 m 0
 1032 1454 1092 1420 1092 1394 c 0
 1092 1392 1092 1388 1090 1386 c 0
 1048 1308 888 1024 888 926 c 0
 888 924 888 920 888 918 c 0
 1048 858 1080 756 1080 624 c 0
 1080 572 1076 512 1072 450 c 0
 1058 266 806 100 636 16 c 0
 634 14 630 14 628 14 c 0
 612 14 600 42 584 50 c 0
 472 166 356 128 218 142 c 1
 240 214 338 280 384 356 c 0
 388 466 388 574 388 684 c 0
 388 858 386 1032 386 1206 c 0
 386 1262 386 1318 386 1374 c 1
 270 1352 220 1338 114 1258 c 0
 108 1262 104 1266 104 1274 c 0
 104 1328 246 1480 314 1514 c 0
 392 1558 496 1578 606 1578 c 0
 730 1578 860 1550 960 1496 c 0
576 1372 m 0
 560 1372 552 1368 562 1342 c 0
 578 1176 578 1006 578 840 c 1
 588 846 600 856 612 862 c 2
 612 1364 l 2
 600 1368 586 1372 576 1372 c 0
652 1352 m 2
 652 886 l 2
 752 948 862 1030 862 1142 c 0
 862 1154 860 1168 858 1180 c 0
 838 1278 740 1324 652 1352 c 2
700 768 m 0
 684 768 668 764 652 760 c 2
 652 322 l 2
 694 290 748 262 796 262 c 0
 824 262 848 272 870 294 c 0
 882 358 886 424 886 490 c 0
 886 524 886 560 884 594 c 0
 884 694 802 768 706 768 c 0
 704 768 702 768 700 768 c 0
612 744 m 2
 604 740 596 734 588 728 c 0
 574 655 572 580 572 505 c 0
 572 475 572 445 572 416 c 0
 572 406 586 382 612 356 c 2
 612 744 l 2
334 1266 m 1
 308 1206 300 1134 300 1058 c 0
 300 942 318 816 318 702 c 0
 318 554 286 426 146 380 c 1
 146 380 174 518 174 612 c 0
 174 650 170 680 158 692 c 2
 158 692 144 704 118 704 c 0
 96 704 68 696 28 668 c 2
 28 668 60 798 128 850 c 0
 128 860 126 872 126 882 c 0
 126 1014 198 1186 334 1266 c 1
EndSplineSet
EndUndoOperation
EndUndoes
Redoes
EndRedoes
EndUndoRedoHistory
Fore
SplineSet
960 1496 m 0
 1032 1454 1092 1420 1092 1394 c 0
 1092 1392 1092 1388 1090 1386 c 0
 1048 1308 888 1024 888 926 c 0
 888 924 888 920 888 918 c 0
 1048 858 1080 756 1080 624 c 0
 1080 572 1076 512 1072 450 c 0
 1058 266 806 100 636 16 c 0
 634 14 630 14 628 14 c 0
 612 14 600 42 584 50 c 0
 472 166 356 128 218 142 c 1
 240 214 338 280 384 356 c 0
 388 466 388 574 388 684 c 0
 388 858 386 1032 386 1206 c 0
 386 1262 386 1318 386 1374 c 1
 270 1352 220 1338 114 1258 c 0
 108 1262 104 1266 104 1274 c 0
 104 1328 246 1480 314 1514 c 0
 392 1558 496 1578 606 1578 c 0
 730 1578 860 1550 960 1496 c 0
576 1372 m 0
 560 1372 552 1368 562 1342 c 0
 578 1176 578 1006 578 840 c 1
 588 846 600 856 612 862 c 2
 612 1364 l 2
 600 1368 586 1372 576 1372 c 0
652 1352 m 2
 652 886 l 2
 752 948 862 1030 862 1142 c 0
 862 1154 860 1168 858 1180 c 0
 838 1278 740 1324 652 1352 c 2
700 768 m 0
 684 768 668 764 652 760 c 2
 652 322 l 2
 694 290 748 262 796 262 c 0
 824 262 848 272 870 294 c 0
 882 358 886 424 886 490 c 0
 886 524 886 560 884 594 c 0
 884 694 802 768 706 768 c 0
 704 768 702 768 700 768 c 0
612 744 m 2
 604 740 596 734 588 728 c 0
 574 655 572 580 572 505 c 0
 572 475 572 445 572 416 c 0
 572 406 586 382 612 356 c 2
 612 744 l 2
334 1266 m 1
 308 1206 300 1134 300 1058 c 0
 300 942 318 816 318 702 c 0
 318 554 286 426 146 380 c 1
 146 380 174 518 174 612 c 0
 174 650 170 680 158 692 c 2
 158 692 144 704 118 704 c 0
 96 704 68 696 28 668 c 2
 28 668 60 798 128 850 c 0
 128 860 126 872 126 882 c 0
 126 1014 198 1186 334 1266 c 1
EndSplineSet
Validated: 1
EndChar

StartChar: C
Encoding: 67 67 2
Width: 1280
VWidth: 0
Flags: HW
LayerCount: 2
UndoRedoHistory
Layer: 1
Undoes
UndoOperation
Index: 0
Type: 1
WasModified: 0
WasOrder2: 0
Layer: 2
Width: 1280
VWidth: 0
LBearingChange: 0
UnicodeEnc: 0
InstructionsLength: 0
SplineSet
834 1500 m 2
 874 1422 1024 1324 1090 1324 c 1
 1062 1272 966 1188 900 1136 c 1
 896 1142 886 1150 872 1158 c 2
 872 208 l 1
 1004 210 1194 280 1294 366 c 1
 1188 164 916 0 688 0 c 0
 678 0 662 0 652 0 c 0
 360 16 76 260 18 546 c 0
 10 584 4 646 4 684 c 0
 4 908 164 1176 360 1284 c 1
 276 1184 208 996 208 866 c 0
 208 824 216 754 226 712 c 0
 286 464 540 240 792 212 c 0
 804 210 820 210 832 210 c 2
 832 1178 l 2
 788 1198 732 1216 698 1216 c 2
 716 660 l 1
 486 498 l 1
 486 1132 l 1
 436 1070 l 1
 436 1070 398 1064 342 1058 c 1
 414 1154 834 1500 834 1500 c 2
EndSplineSet
EndUndoOperation
EndUndoes
Redoes
EndRedoes
EndUndoRedoHistory
Fore
SplineSet
834 1500 m 2
 874 1422 1024 1324 1090 1324 c 1
 1062 1272 966 1188 900 1136 c 1
 896 1142 886 1150 872 1158 c 2
 872 208 l 1
 1004 210 1194 280 1294 366 c 1
 1188 164 916 0 688 0 c 0
 678 0 662 0 652 0 c 0
 360 16 76 260 18 546 c 0
 10 584 4 646 4 684 c 0
 4 908 164 1176 360 1284 c 1
 276 1184 208 996 208 866 c 0
 208 824 216 754 226 712 c 0
 286 464 540 240 792 212 c 0
 804 210 820 210 832 210 c 2
 832 1178 l 2
 788 1198 732 1216 698 1216 c 2
 716 660 l 1
 486 498 l 1
 486 1132 l 1
 436 1070 l 1
 436 1070 398 1064 342 1058 c 1
 414 1154 834 1500 834 1500 c 2
EndSplineSet
Validated: 1
EndChar

StartChar: D
Encoding: 68 68 3
Width: 1280
VWidth: 0
Flags: HW
LayerCount: 2
UndoRedoHistory
Layer: 1
Undoes
UndoOperation
Index: 0
Type: 1
WasModified: 0
WasOrder2: 0
Layer: 2
Width: 1280
VWidth: 0
LBearingChange: 0
UnicodeEnc: 0
InstructionsLength: 0
SplineSet
674 1558 m 0
 688 1558 702 1558 716 1556 c 0
 1032 1526 1194 1270 1232 946 c 0
 1232 928 1232 912 1232 894 c 0
 1232 732 1204 570 1186 408 c 0
 1078 302 826 26 654 26 c 0
 652 26 l 0
 588 130 474 208 346 208 c 0
 314 208 280 202 248 192 c 0
 236 182 228 176 224 176 c 0
 220 176 218 180 218 184 c 0
 218 218 300 352 368 362 c 0
 368 704 368 798 368 828 c 0
 368 878 368 738 368 1316 c 0
 370 1326 370 1334 370 1340 c 0
 370 1358 364 1364 352 1364 c 0
 318 1364 236 1294 144 1268 c 1
 246 1434 462 1558 668 1558 c 0
 670 1558 672 1558 674 1558 c 0
606 1376 m 0
 598 1376 588 1376 580 1376 c 0
 580 1066 578 878 578 688 c 0
 578 594 578 498 580 388 c 0
 580 384 608 370 644 352 c 2
 644 1376 l 2
 632 1376 620 1376 606 1376 c 0
686 1372 m 1
 686 332 l 2
 748 300 820 262 852 230 c 0
 858 224 866 222 872 222 c 0
 920 222 970 356 982 438 c 0
 1000 568 1026 732 1026 884 c 0
 1026 1124 960 1340 686 1372 c 1
328 1276 m 1
 302 1216 294 1142 294 1064 c 0
 294 946 312 818 312 702 c 0
 312 552 282 424 138 376 c 1
 138 376 166 514 166 610 c 0
 166 648 162 680 148 692 c 2
 148 692 136 704 110 704 c 0
 88 704 58 696 18 668 c 2
 18 668 52 800 120 854 c 0
 120 864 118 874 118 886 c 0
 118 1020 188 1194 328 1276 c 1
EndSplineSet
EndUndoOperation
EndUndoes
Redoes
EndRedoes
EndUndoRedoHistory
Fore
SplineSet
674 1558 m 0
 688 1558 702 1558 716 1556 c 0
 1032 1526 1194 1270 1232 946 c 0
 1232 928 1232 912 1232 894 c 0
 1232 732 1204 570 1186 408 c 0
 1078 302 826 26 654 26 c 0
 652 26 l 0
 588 130 474 208 346 208 c 0
 314 208 280 202 248 192 c 0
 236 182 228 176 224 176 c 0
 220 176 218 180 218 184 c 0
 218 218 300 352 368 362 c 0
 368 704 368 798 368 828 c 0
 368 878 368 738 368 1316 c 0
 370 1326 370 1334 370 1340 c 0
 370 1358 364 1364 352 1364 c 0
 318 1364 236 1294 144 1268 c 1
 246 1434 462 1558 668 1558 c 0
 670 1558 672 1558 674 1558 c 0
606 1376 m 0
 598 1376 588 1376 580 1376 c 0
 580 1066 578 878 578 688 c 0
 578 594 578 498 580 388 c 0
 580 384 608 370 644 352 c 2
 644 1376 l 2
 632 1376 620 1376 606 1376 c 0
686 1372 m 1
 686 332 l 2
 748 300 820 262 852 230 c 0
 858 224 866 222 872 222 c 0
 920 222 970 356 982 438 c 0
 1000 568 1026 732 1026 884 c 0
 1026 1124 960 1340 686 1372 c 1
328 1276 m 1
 302 1216 294 1142 294 1064 c 0
 294 946 312 818 312 702 c 0
 312 552 282 424 138 376 c 1
 138 376 166 514 166 610 c 0
 166 648 162 680 148 692 c 2
 148 692 136 704 110 704 c 0
 88 704 58 696 18 668 c 2
 18 668 52 800 120 854 c 0
 120 864 118 874 118 886 c 0
 118 1020 188 1194 328 1276 c 1
EndSplineSet
Validated: 1
EndChar

StartChar: E
Encoding: 69 69 4
Width: 1286
VWidth: 0
Flags: HW
LayerCount: 2
UndoRedoHistory
Layer: 1
Undoes
UndoOperation
Index: 0
Type: 1
WasModified: 0
WasOrder2: 0
Layer: 2
Width: 1286
VWidth: 0
LBearingChange: 0
UnicodeEnc: 0
InstructionsLength: 0
SplineSet
642 1458 m 1
 1330 1458 l 1
 1108 1250 l 1
 658 1250 l 1
 658 996 l 1
 1060 996 l 1
 838 788 l 1
 658 788 l 1
 658 264 l 2
 700 250 746 240 792 234 c 0
 806 232 818 232 832 232 c 2
 872 230 l 2
 1026 232 1176 288 1294 388 c 1
 1176 162 942 22 688 22 c 0
 676 22 664 22 652 22 c 0
 342 38 80 264 18 568 c 0
 8 614 4 660 4 706 c 0
 4 952 136 1184 358 1306 c 1
 260 1186 208 1040 208 888 c 0
 208 836 214 784 226 734 c 0
 250 630 300 538 366 460 c 2
 374 1278 l 2
 408 1282 494 1342 558 1390 c 2
 642 1458 l 1
604 1250 m 2
 600 1176 596 1088 594 996 c 2
 630 996 l 1
 630 1250 l 1
 604 1250 l 2
590 788 m 1
 590 708 588 632 588 562 c 0
 588 412 590 302 590 290 c 0
 604 284 616 280 630 274 c 2
 630 788 l 1
 590 788 l 1
EndSplineSet
EndUndoOperation
EndUndoes
Redoes
EndRedoes
EndUndoRedoHistory
Fore
SplineSet
642 1458 m 1
 1330 1458 l 1
 1108 1250 l 1
 658 1250 l 1
 658 996 l 1
 1060 996 l 1
 838 788 l 1
 658 788 l 1
 658 264 l 2
 700 250 746 240 792 234 c 0
 806 232 818 232 832 232 c 2
 872 230 l 2
 1026 232 1176 288 1294 388 c 1
 1176 162 942 22 688 22 c 0
 676 22 664 22 652 22 c 0
 342 38 80 264 18 568 c 0
 8 614 4 660 4 706 c 0
 4 952 136 1184 358 1306 c 1
 260 1186 208 1040 208 888 c 0
 208 836 214 784 226 734 c 0
 250 630 300 538 366 460 c 2
 374 1278 l 2
 408 1282 494 1342 558 1390 c 2
 642 1458 l 1
604 1250 m 2
 600 1176 596 1088 594 996 c 2
 630 996 l 1
 630 1250 l 1
 604 1250 l 2
590 788 m 1
 590 708 588 632 588 562 c 0
 588 412 590 302 590 290 c 0
 604 284 616 280 630 274 c 2
 630 788 l 1
 590 788 l 1
EndSplineSet
Validated: 1
EndChar

StartChar: F
Encoding: 70 70 5
Width: 1020
VWidth: 0
Flags: HW
LayerCount: 2
UndoRedoHistory
Layer: 1
Undoes
UndoOperation
Index: 0
Type: 1
WasModified: 0
WasOrder2: 0
Layer: 2
Width: 1020
VWidth: 0
LBearingChange: 0
UnicodeEnc: 0
InstructionsLength: 0
SplineSet
820 1594 m 0
 940 1592 1090 1556 1240 1556 c 0
 1308 1556 1374 1562 1438 1584 c 1
 1424 1468 1326 1326 1240 1260 c 1
 1244 1272 1244 1282 1244 1290 c 0
 1244 1346 1178 1358 1088 1358 c 0
 1026 1358 954 1352 884 1352 c 0
 866 1352 848 1352 832 1352 c 1
 832 962 l 2
 848 968 868 970 886 970 c 0
 920 970 952 960 980 934 c 0
 974 842 984 838 950 778 c 1
 930 794 908 802 884 802 c 0
 868 802 850 800 832 794 c 2
 832 294 l 2
 842 284 854 276 858 276 c 1
 850 274 814 236 812 228 c 1
 810 236 776 276 766 276 c 1
 772 276 782 284 792 294 c 2
 792 778 l 2
 790 778 788 776 786 776 c 0
 712 734 762 322 706 206 c 0
 626 56 576 4 404 4 c 0
 394 4 384 4 374 4 c 0
 328 22 276 30 224 30 c 0
 138 30 52 6 0 -44 c 1
 32 70 280 272 352 274 c 0
 354 274 356 274 358 274 c 0
 424 274 458 240 492 240 c 0
 512 240 530 248 542 254 c 1
 544 290 544 330 544 370 c 0
 544 510 538 672 538 832 c 0
 538 1024 548 1216 590 1376 c 1
 496 1358 428 1302 340 1270 c 1
 382 1390 646 1554 752 1588 c 0
 774 1592 796 1594 818 1594 c 0
 820 1594 l 0
760 1360 m 1
 758 1336 748 1224 748 1122 c 0
 748 1028 756 940 782 934 c 0
 786 936 788 940 792 942 c 2
 792 1356 l 2
 780 1358 770 1358 760 1360 c 1
470 1246 m 1
 444 1184 436 1110 436 1030 c 0
 436 910 454 778 454 660 c 0
 454 506 422 374 276 326 c 1
 276 326 306 468 306 566 c 0
 306 606 302 636 288 650 c 2
 288 650 276 662 248 662 c 0
 226 662 194 654 154 626 c 2
 154 626 188 760 258 814 c 0
 258 824 256 836 256 848 c 0
 256 986 328 1162 470 1246 c 1
EndSplineSet
EndUndoOperation
EndUndoes
Redoes
EndRedoes
EndUndoRedoHistory
Fore
SplineSet
820 1594 m 0
 940 1592 1090 1556 1240 1556 c 0
 1308 1556 1374 1562 1438 1584 c 1
 1424 1468 1326 1326 1240 1260 c 1
 1244 1272 1244 1282 1244 1290 c 0
 1244 1346 1178 1358 1088 1358 c 0
 1026 1358 954 1352 884 1352 c 0
 866 1352 848 1352 832 1352 c 1
 832 962 l 2
 848 968 868 970 886 970 c 0
 920 970 952 960 980 934 c 0
 974 842 984 838 950 778 c 1
 930 794 908 802 884 802 c 0
 868 802 850 800 832 794 c 2
 832 294 l 2
 842 284 854 276 858 276 c 1
 850 274 814 236 812 228 c 1
 810 236 776 276 766 276 c 1
 772 276 782 284 792 294 c 2
 792 778 l 2
 790 778 788 776 786 776 c 0
 712 734 762 322 706 206 c 0
 626 56 576 4 404 4 c 0
 394 4 384 4 374 4 c 0
 328 22 276 30 224 30 c 0
 138 30 52 6 0 -44 c 1
 32 70 280 272 352 274 c 0
 354 274 356 274 358 274 c 0
 424 274 458 240 492 240 c 0
 512 240 530 248 542 254 c 1
 544 290 544 330 544 370 c 0
 544 510 538 672 538 832 c 0
 538 1024 548 1216 590 1376 c 1
 496 1358 428 1302 340 1270 c 1
 382 1390 646 1554 752 1588 c 0
 774 1592 796 1594 818 1594 c 0
 820 1594 l 0
760 1360 m 1
 758 1336 748 1224 748 1122 c 0
 748 1028 756 940 782 934 c 0
 786 936 788 940 792 942 c 2
 792 1356 l 2
 780 1358 770 1358 760 1360 c 1
470 1246 m 1
 444 1184 436 1110 436 1030 c 0
 436 910 454 778 454 660 c 0
 454 506 422 374 276 326 c 1
 276 326 306 468 306 566 c 0
 306 606 302 636 288 650 c 2
 288 650 276 662 248 662 c 0
 226 662 194 654 154 626 c 2
 154 626 188 760 258 814 c 0
 258 824 256 836 256 848 c 0
 256 986 328 1162 470 1246 c 1
EndSplineSet
Validated: 1
EndChar

StartChar: G
Encoding: 71 71 6
Width: 1416
VWidth: 0
Flags: HW
LayerCount: 2
UndoRedoHistory
Layer: 1
Undoes
UndoOperation
Index: 0
Type: 1
WasModified: 0
WasOrder2: 0
Layer: 2
Width: 1416
VWidth: 0
LBearingChange: 0
UnicodeEnc: 0
InstructionsLength: 0
SplineSet
918 1542 m 2
 960 1462 1112 1364 1180 1364 c 1
 1152 1310 1054 1222 986 1168 c 1
 970 1196 838 1252 778 1252 c 2
 796 774 l 1
 996 958 1196 1148 1196 1148 c 1
 1194 1100 l 1
 1194 1064 l 1
 1194 260 l 2
 1254 282 1342 334 1392 376 c 1
 1282 168 1002 0 768 0 c 0
 758 0 740 0 730 0 c 0
 430 16 138 268 78 562 c 0
 70 600 64 664 64 704 c 0
 64 934 228 1212 430 1322 c 1
 344 1218 274 1024 274 890 c 0
 274 846 284 774 294 732 c 0
 314 648 376 524 432 458 c 0
 460 478 506 518 560 564 c 2
 560 1164 l 1
 508 1100 l 1
 508 1100 470 1094 412 1088 c 1
 486 1188 918 1542 918 1542 c 2
994 886 m 1
 470 416 l 1
 562 322 742 234 874 218 c 0
 894 216 928 214 948 214 c 0
 962 214 980 216 994 216 c 2
 994 886 l 1
EndSplineSet
EndUndoOperation
EndUndoes
Redoes
EndRedoes
EndUndoRedoHistory
Fore
SplineSet
918 1542 m 2
 960 1462 1112 1364 1180 1364 c 1
 1152 1310 1054 1222 986 1168 c 1
 970 1196 838 1252 778 1252 c 2
 796 774 l 1
 996 958 1196 1148 1196 1148 c 1
 1194 1100 l 1
 1194 1064 l 1
 1194 260 l 2
 1254 282 1342 334 1392 376 c 1
 1282 168 1002 0 768 0 c 0
 758 0 740 0 730 0 c 0
 430 16 138 268 78 562 c 0
 70 600 64 664 64 704 c 0
 64 934 228 1212 430 1322 c 1
 344 1218 274 1024 274 890 c 0
 274 846 284 774 294 732 c 0
 314 648 376 524 432 458 c 0
 460 478 506 518 560 564 c 2
 560 1164 l 1
 508 1100 l 1
 508 1100 470 1094 412 1088 c 1
 486 1188 918 1542 918 1542 c 2
994 886 m 1
 470 416 l 1
 562 322 742 234 874 218 c 0
 894 216 928 214 948 214 c 0
 962 214 980 216 994 216 c 2
 994 886 l 1
EndSplineSet
Validated: 1
EndChar

StartChar: H
Encoding: 72 72 7
Width: 1192
VWidth: 0
Flags: HW
LayerCount: 2
UndoRedoHistory
Layer: 1
Undoes
UndoOperation
Index: 0
Type: 1
WasModified: 0
WasOrder2: 0
Layer: 2
Width: 1192
VWidth: 0
LBearingChange: 0
UnicodeEnc: 0
InstructionsLength: 0
SplineSet
950 1622 m 0
 1046 1620 1140 1598 1246 1562 c 1
 1186 1528 1092 1410 1032 1354 c 1
 976 1402 750 1522 648 1522 c 0
 632 1522 618 1520 610 1514 c 0
 536 1458 524 1286 524 1220 c 0
 522 1046 522 970 522 928 c 0
 522 882 524 878 524 832 c 1
 524 832 590 874 620 904 c 2
 620 1312 l 2
 610 1322 598 1332 594 1332 c 1
 606 1332 640 1368 640 1378 c 1
 640 1366 678 1334 688 1332 c 1
 684 1332 670 1322 660 1312 c 2
 660 946 l 1
 744 1032 866 1148 912 1168 c 1
 1006 1068 1094 972 1208 960 c 1
 1158 890 1076 820 1076 820 c 1
 1082 322 l 1
 1168 234 l 1
 958 22 l 1
 746 234 l 1
 848 336 l 1
 848 820 l 1
 772 934 l 1
 660 834 l 1
 660 312 l 2
 670 302 684 292 688 292 c 1
 680 290 640 256 640 247 c 0
 640 246 l 1
 638 254 604 292 594 292 c 1
 600 292 610 300 620 310 c 2
 620 798 l 1
 524 726 l 1
 524 346 l 1
 630 234 l 1
 418 22 l 1
 206 234 l 1
 324 352 l 1
 324 566 324 840 324 1012 c 0
 324 1098 324 1160 324 1174 c 0
 326 1218 330 1300 406 1382 c 0
 446 1426 486 1472 540 1504 c 0
 594 1536 654 1564 718 1586 c 0
 794 1612 866 1622 936 1622 c 0
 940 1622 946 1622 950 1622 c 0
270 1302 m 1
 242 1238 234 1162 234 1080 c 0
 234 956 254 822 254 700 c 0
 254 542 220 408 70 358 c 1
 70 358 100 504 100 604 c 0
 100 644 96 676 82 690 c 1
 82 690 68 702 40 702 c 0
 18 702 -14 694 -56 664 c 1
 -56 664 -22 804 50 860 c 1
 48 870 50 880 50 892 c 0
 50 1034 124 1216 270 1302 c 1
EndSplineSet
EndUndoOperation
EndUndoes
Redoes
EndRedoes
EndUndoRedoHistory
Fore
SplineSet
950 1622 m 0
 1046 1620 1140 1598 1246 1562 c 1
 1186 1528 1092 1410 1032 1354 c 1
 976 1402 750 1522 648 1522 c 0
 632 1522 618 1520 610 1514 c 0
 536 1458 524 1286 524 1220 c 0
 522 1046 522 970 522 928 c 0
 522 882 524 878 524 832 c 1
 524 832 590 874 620 904 c 2
 620 1312 l 2
 610 1322 598 1332 594 1332 c 1
 606 1332 640 1368 640 1378 c 1
 640 1366 678 1334 688 1332 c 1
 684 1332 670 1322 660 1312 c 2
 660 946 l 1
 744 1032 866 1148 912 1168 c 1
 1006 1068 1094 972 1208 960 c 1
 1158 890 1076 820 1076 820 c 1
 1082 322 l 1
 1168 234 l 1
 958 22 l 1
 746 234 l 1
 848 336 l 1
 848 820 l 1
 772 934 l 1
 660 834 l 1
 660 312 l 2
 670 302 684 292 688 292 c 1
 680 290 640 256 640 247 c 0
 640 246 l 1
 638 254 604 292 594 292 c 1
 600 292 610 300 620 310 c 2
 620 798 l 1
 524 726 l 1
 524 346 l 1
 630 234 l 1
 418 22 l 1
 206 234 l 1
 324 352 l 1
 324 566 324 840 324 1012 c 0
 324 1098 324 1160 324 1174 c 0
 326 1218 330 1300 406 1382 c 0
 446 1426 486 1472 540 1504 c 0
 594 1536 654 1564 718 1586 c 0
 794 1612 866 1622 936 1622 c 0
 940 1622 946 1622 950 1622 c 0
270 1302 m 1
 242 1238 234 1162 234 1080 c 0
 234 956 254 822 254 700 c 0
 254 542 220 408 70 358 c 1
 70 358 100 504 100 604 c 0
 100 644 96 676 82 690 c 1
 82 690 68 702 40 702 c 0
 18 702 -14 694 -56 664 c 1
 -56 664 -22 804 50 860 c 1
 48 870 50 880 50 892 c 0
 50 1034 124 1216 270 1302 c 1
EndSplineSet
Validated: 1
EndChar

StartChar: I
Encoding: 73 73 8
Width: 1040
VWidth: 0
Flags: HW
HStem: 12 42G<97 100> 24 250<464 726> 106 210<220 479>
VStem: 540 174<805 1056> 588 146<461 737> 818 186<771 1318>
LayerCount: 2
UndoRedoHistory
Layer: 1
Undoes
UndoOperation
Index: 0
Type: 1
WasModified: 0
WasOrder2: 0
Layer: 2
Width: 1040
VWidth: 0
LBearingChange: 0
UnicodeEnc: 0
InstructionsLength: 0
SplineSet
748 1248 m 1x14
 722 1188 714 1116 714 1040 c 0x14
 714 924 734 794 734 680 c 0
 734 530 702 406 560 358 c 1
 560 358 588 496 588 590 c 0x0c
 588 628 584 660 572 672 c 2
 572 672 558 684 532 684 c 0
 510 684 482 676 442 648 c 2
 442 648 474 778 542 830 c 0
 542 840 540 852 540 862 c 0
 540 996 610 1166 748 1248 c 1x14
108 1148 m 1
 188 1356 360 1472 518 1490 c 0
 656 1506 764 1526 920 1526 c 0
 946 1526 974 1526 1004 1524 c 1
 1004 1524 1004 1412 1004 1260 c 0
 1004 986 1000 582 978 472 c 0
 948 322 786 24 602 24 c 0x44
 576 24 550 30 524 42 c 0
 432 86 362 106 300 106 c 0
 214 106 142 70 52 12 c 1
 148 226 234 316 328 316 c 0xa4
 338 316 348 314 358 312 c 0
 476 288 564 274 632 274 c 0x44
 830 274 840 396 844 750 c 0
 844 754 844 758 844 762 c 0
 844 956 818 1156 818 1294 c 0
 818 1302 818 1310 818 1318 c 1
 772 1298 732 1292 692 1292 c 0
 614 1292 542 1316 462 1316 c 0
 342 1316 202 1260 108 1148 c 1
EndSplineSet
EndUndoOperation
EndUndoes
Redoes
EndRedoes
EndUndoRedoHistory
Fore
SplineSet
748 1248 m 1x14
 722 1188 714 1116 714 1040 c 0x14
 714 924 734 794 734 680 c 0
 734 530 702 406 560 358 c 1
 560 358 588 496 588 590 c 0x0c
 588 628 584 660 572 672 c 2
 572 672 558 684 532 684 c 0
 510 684 482 676 442 648 c 2
 442 648 474 778 542 830 c 0
 542 840 540 852 540 862 c 0
 540 996 610 1166 748 1248 c 1x14
108 1148 m 1
 188 1356 360 1472 518 1490 c 0
 656 1506 764 1526 920 1526 c 0
 946 1526 974 1526 1004 1524 c 1
 1004 1524 1004 1412 1004 1260 c 0
 1004 986 1000 582 978 472 c 0
 948 322 786 24 602 24 c 0x44
 576 24 550 30 524 42 c 0
 432 86 362 106 300 106 c 0
 214 106 142 70 52 12 c 1
 148 226 234 316 328 316 c 0xa4
 338 316 348 314 358 312 c 0
 476 288 564 274 632 274 c 0x44
 830 274 840 396 844 750 c 0
 844 754 844 758 844 762 c 0
 844 956 818 1156 818 1294 c 0
 818 1302 818 1310 818 1318 c 1
 772 1298 732 1292 692 1292 c 0
 614 1292 542 1316 462 1316 c 0
 342 1316 202 1260 108 1148 c 1
EndSplineSet
Validated: 1
EndChar

StartChar: a
Encoding: 97 97 9
Width: 608
VWidth: 0
Flags: HW
LayerCount: 2
UndoRedoHistory
Layer: 1
Undoes
UndoOperation
Index: 0
Type: 1
WasModified: 0
WasOrder2: 0
Layer: 2
Width: 608
VWidth: 0
LBearingChange: 0
UnicodeEnc: 0
InstructionsLength: 0
SplineSet
431 965 m 5
 487 883 515 765 634 756 c 5
 600 739 575 720 535 711 c 5
 535 711 542 386 550 248 c 5
 568 212 581 179 648 179 c 0
 654 179 660 180 666 180 c 5
 595 70 525 -2 463 -2 c 0
 459 -2 456 -1 452 -1 c 5
 384 27 411 58 337 100 c 5
 278 22 232 -1 185 -1 c 0
 143 -1 100 18 45 32 c 4
 35 38 8 42 -35 44 c 5
 32 116 46 110 46 133 c 0
 46 149 39 180 39 266 c 0
 39 268 39 271 39 273 c 5
 36 305 20 317 -1 317 c 0
 -16 317 -33 311 -48 301 c 5
 90 421 226 628 382 628 c 0
 383 628 383 628 384 628 c 5
 384 693 l 5
 328 725 322 780 282 844 c 5
 207 758 137 640 -1 619 c 5
 96 688 139 755 229 852 c 5
 431 965 l 5
340 528 m 4
 286 526 250 474 194 401 c 5
 190 327 191 320 188 243 c 5
 191 192 221 140 264 140 c 0
 297 140 338 171 378 260 c 5
 383 297 384 335 384 375 c 0
 384 393 383 413 383 431 c 0
 383 446 384 461 384 476 c 5
 378 505 368 525 350 528 c 4
 347 529 344 528 340 528 c 4
EndSplineSet
EndUndoOperation
EndUndoes
Redoes
EndRedoes
EndUndoRedoHistory
Fore
SplineSet
431 965 m 5
 487 883 515 765 634 756 c 5
 600 739 575 720 535 711 c 5
 535 711 542 386 550 248 c 5
 568 212 581 179 648 179 c 0
 654 179 660 180 666 180 c 5
 595 70 525 -2 463 -2 c 0
 459 -2 456 -1 452 -1 c 5
 384 27 411 58 337 100 c 5
 278 22 232 -1 185 -1 c 0
 143 -1 100 18 45 32 c 4
 35 38 8 42 -35 44 c 5
 32 116 46 110 46 133 c 0
 46 149 39 180 39 266 c 0
 39 268 39 271 39 273 c 5
 36 305 20 317 -1 317 c 0
 -16 317 -33 311 -48 301 c 5
 90 421 226 628 382 628 c 0
 383 628 383 628 384 628 c 5
 384 693 l 5
 328 725 322 780 282 844 c 5
 207 758 137 640 -1 619 c 5
 96 688 139 755 229 852 c 5
 431 965 l 5
340 528 m 4
 286 526 250 474 194 401 c 5
 190 327 191 320 188 243 c 5
 191 192 221 140 264 140 c 0
 297 140 338 171 378 260 c 5
 383 297 384 335 384 375 c 0
 384 393 383 413 383 431 c 0
 383 446 384 461 384 476 c 5
 378 505 368 525 350 528 c 4
 347 529 344 528 340 528 c 4
EndSplineSet
Validated: 1
EndChar

StartChar: b
Encoding: 98 98 10
Width: 724
VWidth: 0
Flags: HW
LayerCount: 2
UndoRedoHistory
Layer: 1
Undoes
UndoOperation
Index: 0
Type: 1
WasModified: 0
WasOrder2: 0
Layer: 2
Width: 724
VWidth: 0
LBearingChange: 0
UnicodeEnc: 0
InstructionsLength: 0
SplineSet
340 1586 m 2
 322 1394 l 1
 322 876 l 2
 352 902 384 930 412 954 c 0
 450 916 612 802 694 790 c 1
 670 758 666 714 666 668 c 0
 666 632 670 596 670 560 c 0
 670 556 670 552 670 546 c 0
 670 498 672 438 674 386 c 1
 686 388 706 380 732 386 c 1
 646 268 466 100 344 0 c 0
 292 16 106 108 38 150 c 1
 68 184 112 222 136 266 c 0
 137 274 137 281 137 289 c 0
 137 304 136 319 136 334 c 0
 136 374 136 410 136 452 c 0
 136 462 136 472 136 482 c 0
 136 516 136 550 136 586 c 0
 136 590 136 632 134 632 c 0
 96 632 74 606 24 584 c 1
 52 620 90 664 136 708 c 2
 132 1350 l 1
 132 1350 126 1484 106 1582 c 1
 120 1560 166 1512 204 1478 c 1
 236 1518 282 1558 340 1586 c 2
324 710 m 1
 324 662 324 608 324 552 c 0
 324 452 324 348 324 278 c 0
 364 258 444 240 490 222 c 1
 490 230 490 242 490 258 c 0
 490 322 492 440 492 528 c 0
 492 566 490 600 490 618 c 0
 426 656 378 684 324 710 c 1
EndSplineSet
EndUndoOperation
EndUndoes
Redoes
EndRedoes
EndUndoRedoHistory
Fore
SplineSet
340 1586 m 2
 322 1394 l 1
 322 876 l 2
 352 902 384 930 412 954 c 0
 450 916 612 802 694 790 c 1
 670 758 666 714 666 668 c 0
 666 632 670 596 670 560 c 0
 670 556 670 552 670 546 c 0
 670 498 672 438 674 386 c 1
 686 388 706 380 732 386 c 1
 646 268 466 100 344 0 c 0
 292 16 106 108 38 150 c 1
 68 184 112 222 136 266 c 0
 137 274 137 281 137 289 c 0
 137 304 136 319 136 334 c 0
 136 374 136 410 136 452 c 0
 136 462 136 472 136 482 c 0
 136 516 136 550 136 586 c 0
 136 590 136 632 134 632 c 0
 96 632 74 606 24 584 c 1
 52 620 90 664 136 708 c 2
 132 1350 l 1
 132 1350 126 1484 106 1582 c 1
 120 1560 166 1512 204 1478 c 1
 236 1518 282 1558 340 1586 c 2
324 710 m 1
 324 662 324 608 324 552 c 0
 324 452 324 348 324 278 c 0
 364 258 444 240 490 222 c 1
 490 230 490 242 490 258 c 0
 490 322 492 440 492 528 c 0
 492 566 490 600 490 618 c 0
 426 656 378 684 324 710 c 1
EndSplineSet
Validated: 1
EndChar

StartChar: c
Encoding: 99 99 11
Width: 608
VWidth: 0
Flags: HW
LayerCount: 2
UndoRedoHistory
Layer: 1
Undoes
UndoOperation
Index: 0
Type: 1
WasModified: 0
WasOrder2: 0
Layer: 2
Width: 608
VWidth: 0
LBearingChange: 0
UnicodeEnc: 0
InstructionsLength: 0
SplineSet
382 222 m 2
 518 348 l 2
 530 350 550 342 576 348 c 1
 490 230 358 100 236 0 c 0
 184 16 -2 108 -70 150 c 1
 -40 184 4 222 28 266 c 0
 30 290 30 312 30 334 c 0
 30 374 28 410 28 452 c 0
 28 462 28 472 28 482 c 0
 28 516 28 550 28 586 c 0
 28 590 28 632 26 632 c 0
 -12 632 -34 606 -84 584 c 1
 -4 690 170 838 304 954 c 0
 338 920 496 808 580 808 c 0
 586 808 592 808 598 810 c 2
 412 640 l 2
 342 642 272 684 218 710 c 1
 218 662 216 608 216 552 c 0
 216 452 218 348 218 278 c 0
 258 258 336 240 382 222 c 2
EndSplineSet
EndUndoOperation
EndUndoes
Redoes
EndRedoes
EndUndoRedoHistory
Fore
SplineSet
382 222 m 2
 518 348 l 2
 530 350 550 342 576 348 c 1
 490 230 358 100 236 0 c 0
 184 16 -2 108 -70 150 c 1
 -40 184 4 222 28 266 c 0
 30 290 30 312 30 334 c 0
 30 374 28 410 28 452 c 0
 28 462 28 472 28 482 c 0
 28 516 28 550 28 586 c 0
 28 590 28 632 26 632 c 0
 -12 632 -34 606 -84 584 c 1
 -4 690 170 838 304 954 c 0
 338 920 496 808 580 808 c 0
 586 808 592 808 598 810 c 2
 412 640 l 2
 342 642 272 684 218 710 c 1
 218 662 216 608 216 552 c 0
 216 452 218 348 218 278 c 0
 258 258 336 240 382 222 c 2
EndSplineSet
Validated: 1
EndChar

StartChar: d
Encoding: 100 100 12
Width: 696
VWidth: 0
Flags: HW
LayerCount: 2
UndoRedoHistory
Layer: 1
Undoes
UndoOperation
Index: 0
Type: 1
WasModified: 0
WasOrder2: 0
Layer: 2
Width: 696
VWidth: 0
LBearingChange: 0
UnicodeEnc: 0
InstructionsLength: 0
SplineSet
-18 1398 m 2
 104 1248 l 1
 104 1248 280 1014 468 878 c 0
 540 832 618 794 666 790 c 1
 642 758 638 714 638 668 c 0
 638 632 642 596 642 560 c 0
 642 556 642 552 642 546 c 0
 642 498 644 438 646 386 c 1
 658 388 678 380 704 386 c 1
 618 268 438 100 316 0 c 0
 264 16 78 108 10 150 c 1
 40 184 84 222 108 266 c 0
 109 274 109 281 109 289 c 0
 109 304 108 319 108 334 c 0
 108 374 108 410 108 452 c 0
 108 462 108 472 108 482 c 0
 108 516 108 550 108 586 c 0
 108 590 108 632 106 632 c 0
 68 632 46 606 -4 584 c 1
 38 638 104 704 178 772 c 0
 186 782 194 792 202 800 c 1
 62 916 -64 1060 -182 1234 c 1
 -162 1228 -112 1226 -66 1226 c 0
 -56 1226 -46 1226 -38 1226 c 1
 -40 1238 -40 1252 -40 1264 c 0
 -40 1306 -34 1352 -18 1398 c 2
296 710 m 1
 296 662 296 608 296 552 c 0
 296 452 296 348 296 278 c 0
 336 258 416 240 462 222 c 1
 462 230 462 242 462 258 c 0
 462 322 464 440 464 528 c 0
 464 566 462 600 462 618 c 0
 398 656 350 684 296 710 c 1
EndSplineSet
EndUndoOperation
EndUndoes
Redoes
EndRedoes
EndUndoRedoHistory
Fore
SplineSet
-18 1398 m 2
 104 1248 l 1
 104 1248 280 1014 468 878 c 0
 540 832 618 794 666 790 c 1
 642 758 638 714 638 668 c 0
 638 632 642 596 642 560 c 0
 642 556 642 552 642 546 c 0
 642 498 644 438 646 386 c 1
 658 388 678 380 704 386 c 1
 618 268 438 100 316 0 c 0
 264 16 78 108 10 150 c 1
 40 184 84 222 108 266 c 0
 109 274 109 281 109 289 c 0
 109 304 108 319 108 334 c 0
 108 374 108 410 108 452 c 0
 108 462 108 472 108 482 c 0
 108 516 108 550 108 586 c 0
 108 590 108 632 106 632 c 0
 68 632 46 606 -4 584 c 1
 38 638 104 704 178 772 c 0
 186 782 194 792 202 800 c 1
 62 916 -64 1060 -182 1234 c 1
 -162 1228 -112 1226 -66 1226 c 0
 -56 1226 -46 1226 -38 1226 c 1
 -40 1238 -40 1252 -40 1264 c 0
 -40 1306 -34 1352 -18 1398 c 2
296 710 m 1
 296 662 296 608 296 552 c 0
 296 452 296 348 296 278 c 0
 336 258 416 240 462 222 c 1
 462 230 462 242 462 258 c 0
 462 322 464 440 464 528 c 0
 464 566 462 600 462 618 c 0
 398 656 350 684 296 710 c 1
EndSplineSet
Validated: 1
EndChar

StartChar: e
Encoding: 101 101 13
Width: 704
VWidth: 0
Flags: HW
LayerCount: 2
UndoRedoHistory
Layer: 1
Undoes
UndoOperation
Index: 0
Type: 1
WasModified: 0
WasOrder2: 0
Layer: 2
Width: 704
VWidth: 0
LBearingChange: 0
UnicodeEnc: 0
InstructionsLength: 0
SplineSet
378 954 m 4
 414 918 592 752 674 752 c 0
 678 752 684 752 688 754 c 5
 578 636 422 500 288 394 c 4
 288 340 292 316 292 278 c 4
 332 258 412 240 458 222 c 6
 592 348 l 6
 604 350 624 342 650 348 c 5
 564 230 432 100 310 0 c 4
 258 16 72 108 4 150 c 5
 34 184 78 222 102 266 c 4
 104 290 104 312 104 334 c 0
 104 374 102 410 102 452 c 4
 102 462 102 472 102 482 c 0
 102 516 102 550 102 586 c 0
 102 590 104 632 102 632 c 0
 64 632 40 606 -10 584 c 5
 70 690 244 838 378 954 c 4
292 710 m 6
 292 710 l 6
 292 662 290 608 290 554 c 0
 290 526 290 496 290 468 c 6
 466 612 l 6
 404 630 338 688 292 710 c 6
EndSplineSet
EndUndoOperation
EndUndoes
Redoes
EndRedoes
EndUndoRedoHistory
Fore
SplineSet
378 954 m 4
 414 918 592 752 674 752 c 0
 678 752 684 752 688 754 c 5
 578 636 422 500 288 394 c 4
 288 340 292 316 292 278 c 4
 332 258 412 240 458 222 c 6
 592 348 l 6
 604 350 624 342 650 348 c 5
 564 230 432 100 310 0 c 4
 258 16 72 108 4 150 c 5
 34 184 78 222 102 266 c 4
 104 290 104 312 104 334 c 0
 104 374 102 410 102 452 c 4
 102 462 102 472 102 482 c 0
 102 516 102 550 102 586 c 0
 102 590 104 632 102 632 c 0
 64 632 40 606 -10 584 c 5
 70 690 244 838 378 954 c 4
292 710 m 6
 292 710 l 6
 292 662 290 608 290 554 c 0
 290 526 290 496 290 468 c 6
 466 612 l 6
 404 630 338 688 292 710 c 6
EndSplineSet
Validated: 1
EndChar

StartChar: f
Encoding: 102 102 14
Width: 454
VWidth: 0
Flags: HW
LayerCount: 2
UndoRedoHistory
Layer: 1
Undoes
UndoOperation
Index: 0
Type: 1
WasModified: 0
WasOrder2: 0
Layer: 2
Width: 454
VWidth: 0
LBearingChange: 0
UnicodeEnc: 0
InstructionsLength: 0
SplineSet
334 1596 m 0
 384 1522 456 1420 562 1404 c 1
 504 1372 448 1338 390 1306 c 0
 386 1306 384 1306 380 1306 c 0
 344 1306 306 1330 276 1356 c 2
 274 1334 l 1
 274 808 l 2
 322 840 368 868 412 868 c 0
 446 868 478 854 508 812 c 1
 458 782 408 754 358 724 c 0
 336 752 324 768 308 768 c 0
 300 768 290 764 274 754 c 2
 274 300 l 1
 370 204 l 1
 178 14 l 1
 -12 204 l 1
 82 298 l 1
 82 1288 l 2
 84 1352 150 1574 324 1592 c 0
 326 1594 328 1594 330 1596 c 1
 330 1594 l 1
 332 1594 332 1596 334 1596 c 0
EndSplineSet
EndUndoOperation
EndUndoes
Redoes
EndRedoes
EndUndoRedoHistory
Fore
SplineSet
334 1596 m 0
 384 1522 456 1420 562 1404 c 1
 504 1372 448 1338 390 1306 c 0
 386 1306 384 1306 380 1306 c 0
 344 1306 306 1330 276 1356 c 2
 274 1334 l 1
 274 808 l 2
 322 840 368 868 412 868 c 0
 446 868 478 854 508 812 c 1
 458 782 408 754 358 724 c 0
 336 752 324 768 308 768 c 0
 300 768 290 764 274 754 c 2
 274 300 l 1
 370 204 l 1
 178 14 l 1
 -12 204 l 1
 82 298 l 1
 82 1288 l 2
 84 1352 150 1574 324 1592 c 0
 326 1594 328 1594 330 1596 c 1
 330 1594 l 1
 332 1594 332 1596 334 1596 c 0
EndSplineSet
Validated: 1
EndChar

StartChar: g
Encoding: 103 103 15
Width: 654
VWidth: 0
Flags: HW
LayerCount: 2
UndoRedoHistory
Layer: 1
Undoes
UndoOperation
Index: 0
Type: 1
WasModified: 0
WasOrder2: 0
Layer: 2
Width: 654
VWidth: 0
LBearingChange: 0
UnicodeEnc: 0
InstructionsLength: 0
SplineSet
362 944 m 0
 400 906 562 790 644 778 c 1
 622 742 616 668 616 592 c 0
 616 538 620 484 622 442 c 0
 622 418 622 396 624 374 c 1
 636 376 656 368 682 374 c 1
 666 350 646 324 622 298 c 2
 622 -328 l 2
 568 -368 504 -404 446 -448 c 1
 436 -434 238 -348 192 -320 c 0
 150 -296 104 -274 54 -274 c 0
 50 -274 44 -272 40 -272 c 0
 -10 -272 -54 -306 -102 -318 c 1
 -54 -290 -8 -262 40 -234 c 0
 66 -216 98 -210 128 -196 c 0
 136 -192 146 -190 160 -190 c 0
 236 -190 392 -244 436 -260 c 2
 436 112 l 2
 386 66 336 22 294 -12 c 0
 242 4 56 96 -12 138 c 1
 18 172 62 210 86 254 c 0
 88 278 88 300 88 322 c 0
 88 362 86 400 86 442 c 0
 86 452 86 460 86 470 c 0
 86 504 86 538 86 574 c 0
 86 578 86 620 84 620 c 0
 46 620 24 594 -26 572 c 1
 54 678 228 828 362 944 c 0
276 698 m 1
 276 650 274 596 274 540 c 0
 274 440 276 338 276 268 c 0
 314 248 388 228 436 212 c 1
 436 294 434 382 434 468 c 0
 434 514 434 560 436 606 c 0
 372 644 330 672 276 698 c 1
EndSplineSet
EndUndoOperation
EndUndoes
Redoes
EndRedoes
EndUndoRedoHistory
Fore
SplineSet
362 944 m 0
 400 906 562 790 644 778 c 1
 622 742 616 668 616 592 c 0
 616 538 620 484 622 442 c 0
 622 418 622 396 624 374 c 1
 636 376 656 368 682 374 c 1
 666 350 646 324 622 298 c 2
 622 -328 l 2
 568 -368 504 -404 446 -448 c 1
 436 -434 238 -348 192 -320 c 0
 150 -296 104 -274 54 -274 c 0
 50 -274 44 -272 40 -272 c 0
 -10 -272 -54 -306 -102 -318 c 1
 -54 -290 -8 -262 40 -234 c 0
 66 -216 98 -210 128 -196 c 0
 136 -192 146 -190 160 -190 c 0
 236 -190 392 -244 436 -260 c 2
 436 112 l 2
 386 66 336 22 294 -12 c 0
 242 4 56 96 -12 138 c 1
 18 172 62 210 86 254 c 0
 88 278 88 300 88 322 c 0
 88 362 86 400 86 442 c 0
 86 452 86 460 86 470 c 0
 86 504 86 538 86 574 c 0
 86 578 86 620 84 620 c 0
 46 620 24 594 -26 572 c 1
 54 678 228 828 362 944 c 0
276 698 m 1
 276 650 274 596 274 540 c 0
 274 440 276 338 276 268 c 0
 314 248 388 228 436 212 c 1
 436 294 434 382 434 468 c 0
 434 514 434 560 436 606 c 0
 372 644 330 672 276 698 c 1
EndSplineSet
Validated: 1
EndChar

StartChar: h
Encoding: 104 104 16
Width: 760
VWidth: 0
Flags: HW
LayerCount: 2
UndoRedoHistory
Layer: 1
Undoes
UndoOperation
Index: 0
Type: 1
WasModified: 0
WasOrder2: 0
Layer: 2
Width: 760
VWidth: 0
LBearingChange: 0
UnicodeEnc: 0
InstructionsLength: 0
SplineSet
300 1582 m 1
 283 1391 l 1
 283 793 l 1
 331 837 379 884 421 935 c 1
 459 898 608 781 690 770 c 1
 667 740 662 698 662 653 c 0
 662 616 666 578 666 541 c 0
 666 507 666 388 667 296 c 1
 772 191 l 1
 581 0 l 1
 390 191 l 1
 486 287 l 1
 486 356 487 448 487 517 c 0
 487 551 487 580 486 597 c 1
 429 631 421 692 320 692 c 0
 309 692 297 692 283 690 c 1
 283 287 l 1
 379 191 l 1
 319 132 251 63 188 0 c 1
 128 60 61 128 -3 191 c 1
 92 284 l 1
 94 387 94 492 94 597 c 0
 94 811 92 1032 92 1267 c 0
 92 1293 92 1319 92 1345 c 1
 92 1345 87 1482 67 1579 c 1
 80 1557 128 1508 166 1473 c 1
 198 1512 241 1553 300 1582 c 1
EndSplineSet
EndUndoOperation
EndUndoes
Redoes
EndRedoes
EndUndoRedoHistory
Fore
SplineSet
300 1582 m 1
 283 1391 l 1
 283 793 l 1
 331 837 379 884 421 935 c 1
 459 898 608 781 690 770 c 1
 667 740 662 698 662 653 c 0
 662 616 666 578 666 541 c 0
 666 507 666 388 667 296 c 1
 772 191 l 1
 581 0 l 1
 390 191 l 1
 486 287 l 1
 486 356 487 448 487 517 c 0
 487 551 487 580 486 597 c 1
 429 631 421 692 320 692 c 0
 309 692 297 692 283 690 c 1
 283 287 l 1
 379 191 l 1
 319 132 251 63 188 0 c 1
 128 60 61 128 -3 191 c 1
 92 284 l 1
 94 387 94 492 94 597 c 0
 94 811 92 1032 92 1267 c 0
 92 1293 92 1319 92 1345 c 1
 92 1345 87 1482 67 1579 c 1
 80 1557 128 1508 166 1473 c 1
 198 1512 241 1553 300 1582 c 1
EndSplineSet
Validated: 1
EndChar

StartChar: J
Encoding: 74 74 17
Width: 1008
VWidth: 0
Flags: HW
LayerCount: 2
UndoRedoHistory
Layer: 1
Undoes
UndoOperation
Index: 0
Type: 1
WasModified: 0
WasOrder2: 0
Layer: 2
Width: 1008
VWidth: 0
LBearingChange: 0
UnicodeEnc: 0
InstructionsLength: 0
SplineSet
668 1198 m 1
 642 1138 634 1064 634 986 c 0
 634 868 652 738 652 622 c 0
 652 470 622 342 478 294 c 1
 478 294 506 432 506 528 c 0
 506 566 502 598 488 612 c 2
 488 612 474 624 448 624 c 0
 426 624 396 616 356 588 c 2
 356 588 388 720 458 774 c 0
 458 784 458 794 458 806 c 0
 458 942 528 1116 668 1198 c 1
28 1192 m 2
 28 1192 226 1434 380 1488 c 0
 412 1500 446 1504 480 1504 c 0
 588 1504 708 1464 820 1464 c 0
 846 1464 870 1464 894 1470 c 0
 932 1478 966 1518 966 1518 c 1
 966 1518 976 1052 976 712 c 0
 976 542 974 404 966 370 c 0
 892 176 528 4 416 0 c 0
 414 0 410 0 408 0 c 0
 292 0 58 88 32 284 c 0
 28 306 28 330 28 350 c 0
 28 514 118 622 262 756 c 1
 262 756 220 632 220 522 c 0
 220 488 224 458 234 430 c 0
 310 298 436 202 556 202 c 0
 636 202 714 244 772 350 c 1
 772 1282 l 1
 732 1266 682 1260 628 1260 c 0
 494 1260 340 1296 276 1296 c 0
 272 1296 268 1294 264 1294 c 0
 196 1286 28 1192 28 1192 c 2
EndSplineSet
EndUndoOperation
EndUndoes
Redoes
EndRedoes
EndUndoRedoHistory
Fore
SplineSet
668 1198 m 1
 642 1138 634 1064 634 986 c 0
 634 868 652 738 652 622 c 0
 652 470 622 342 478 294 c 1
 478 294 506 432 506 528 c 0
 506 566 502 598 488 612 c 2
 488 612 474 624 448 624 c 0
 426 624 396 616 356 588 c 2
 356 588 388 720 458 774 c 0
 458 784 458 794 458 806 c 0
 458 942 528 1116 668 1198 c 1
28 1192 m 2
 28 1192 226 1434 380 1488 c 0
 412 1500 446 1504 480 1504 c 0
 588 1504 708 1464 820 1464 c 0
 846 1464 870 1464 894 1470 c 0
 932 1478 966 1518 966 1518 c 1
 966 1518 976 1052 976 712 c 0
 976 542 974 404 966 370 c 0
 892 176 528 4 416 0 c 0
 414 0 410 0 408 0 c 0
 292 0 58 88 32 284 c 0
 28 306 28 330 28 350 c 0
 28 514 118 622 262 756 c 1
 262 756 220 632 220 522 c 0
 220 488 224 458 234 430 c 0
 310 298 436 202 556 202 c 0
 636 202 714 244 772 350 c 1
 772 1282 l 1
 732 1266 682 1260 628 1260 c 0
 494 1260 340 1296 276 1296 c 0
 272 1296 268 1294 264 1294 c 0
 196 1286 28 1192 28 1192 c 2
EndSplineSet
Validated: 1
EndChar

StartChar: K
Encoding: 75 75 18
Width: 1376
VWidth: 0
Flags: HW
LayerCount: 2
UndoRedoHistory
Layer: 1
Undoes
UndoOperation
Index: 0
Type: 1
WasModified: 0
WasOrder2: 0
Layer: 2
Width: 1376
VWidth: 0
LBearingChange: 0
UnicodeEnc: 0
InstructionsLength: 0
SplineSet
330 1246 m 1
 306 1188 298 1122 298 1048 c 0
 298 936 316 812 316 702 c 0
 316 560 286 440 150 394 c 1
 150 394 178 526 178 616 c 0
 178 652 172 682 160 694 c 2
 160 694 150 706 124 706 c 0
 104 706 74 698 36 672 c 2
 36 672 66 798 132 848 c 0
 132 858 132 868 132 878 c 0
 132 1006 198 1168 330 1246 c 1
1146 1712 m 1
 1130 1686 1104 1668 1098 1664 c 0
 1098 1662 1098 1636 1098 1600 c 0
 1098 1504 1096 1328 1070 1268 c 0
 1034 1184 894 1058 894 1058 c 1
 894 1058 1162 474 1224 286 c 0
 1260 266 1274 252 1294 252 c 0
 1308 252 1328 258 1362 274 c 1
 1320 148 1154 60 1084 60 c 0
 1080 60 1078 60 1076 60 c 0
 1012 68 1008 106 974 130 c 0
 940 116 890 106 844 94 c 1
 908 140 960 176 1012 214 c 0
 950 398 750 816 722 876 c 2
 722 272 l 2
 732 262 744 252 748 252 c 1
 740 250 702 216 702 207 c 0
 702 206 l 1
 700 214 666 252 656 252 c 1
 662 252 670 260 680 270 c 2
 680 872 l 1
 602 802 l 1
 592 292 l 1
 674 210 l 1
 482 20 l 1
 292 210 l 1
 374 294 l 1
 380 1402 l 1
 226 1316 l 2
 322 1496 504 1560 586 1566 c 2
 596 932 l 2
 618 944 648 966 680 990 c 2
 680 1402 l 2
 670 1412 660 1422 656 1422 c 1
 668 1422 702 1458 702 1468 c 1
 702 1456 738 1424 748 1422 c 1
 744 1422 732 1412 722 1402 c 2
 722 1022 l 2
 772 1064 820 1114 848 1160 c 0
 900 1246 916 1556 916 1556 c 2
 918 1568 918 1578 924 1588 c 0
 928 1594 1120 1700 1146 1712 c 1
EndSplineSet
EndUndoOperation
EndUndoes
Redoes
EndRedoes
EndUndoRedoHistory
Fore
SplineSet
330 1246 m 1
 306 1188 298 1122 298 1048 c 0
 298 936 316 812 316 702 c 0
 316 560 286 440 150 394 c 1
 150 394 178 526 178 616 c 0
 178 652 172 682 160 694 c 2
 160 694 150 706 124 706 c 0
 104 706 74 698 36 672 c 2
 36 672 66 798 132 848 c 0
 132 858 132 868 132 878 c 0
 132 1006 198 1168 330 1246 c 1
1146 1712 m 1
 1130 1686 1104 1668 1098 1664 c 0
 1098 1662 1098 1636 1098 1600 c 0
 1098 1504 1096 1328 1070 1268 c 0
 1034 1184 894 1058 894 1058 c 1
 894 1058 1162 474 1224 286 c 0
 1260 266 1274 252 1294 252 c 0
 1308 252 1328 258 1362 274 c 1
 1320 148 1154 60 1084 60 c 0
 1080 60 1078 60 1076 60 c 0
 1012 68 1008 106 974 130 c 0
 940 116 890 106 844 94 c 1
 908 140 960 176 1012 214 c 0
 950 398 750 816 722 876 c 2
 722 272 l 2
 732 262 744 252 748 252 c 1
 740 250 702 216 702 207 c 0
 702 206 l 1
 700 214 666 252 656 252 c 1
 662 252 670 260 680 270 c 2
 680 872 l 1
 602 802 l 1
 592 292 l 1
 674 210 l 1
 482 20 l 1
 292 210 l 1
 374 294 l 1
 380 1402 l 1
 226 1316 l 2
 322 1496 504 1560 586 1566 c 2
 596 932 l 2
 618 944 648 966 680 990 c 2
 680 1402 l 2
 670 1412 660 1422 656 1422 c 1
 668 1422 702 1458 702 1468 c 1
 702 1456 738 1424 748 1422 c 1
 744 1422 732 1412 722 1402 c 2
 722 1022 l 2
 772 1064 820 1114 848 1160 c 0
 900 1246 916 1556 916 1556 c 2
 918 1568 918 1578 924 1588 c 0
 928 1594 1120 1700 1146 1712 c 1
EndSplineSet
Validated: 1
EndChar

StartChar: L
Encoding: 76 76 19
Width: 1454
VWidth: 0
Flags: HW
LayerCount: 2
UndoRedoHistory
Layer: 1
Undoes
UndoOperation
Index: 0
Type: 1
WasModified: 0
WasOrder2: 0
Layer: 2
Width: 1454
VWidth: 0
LBearingChange: 0
UnicodeEnc: 0
InstructionsLength: 0
SplineSet
884 1532 m 0
 896 1532 906 1532 918 1532 c 1
 590 1348 626 1210 614 936 c 0
 614 920 612 902 612 886 c 0
 612 738 638 584 638 434 c 0
 638 390 636 348 630 304 c 1
 636 304 642 304 646 304 c 0
 672 304 696 300 722 296 c 2
 722 1244 l 2
 712 1256 698 1266 694 1266 c 1
 706 1266 740 1302 740 1312 c 1
 740 1300 776 1268 786 1266 c 1
 782 1266 772 1258 762 1248 c 2
 762 288 l 2
 856 264 950 220 1046 210 c 0
 1056 208 1066 210 1076 210 c 0
 1198 210 1278 280 1412 304 c 1
 1260 114 1258 56 1058 28 c 0
 894 38 732 54 578 54 c 0
 466 54 358 46 262 18 c 1
 374 150 402 312 402 478 c 0
 402 646 374 820 374 976 c 0
 374 1094 388 1202 444 1290 c 0
 544 1434 712 1532 882 1532 c 0
 884 1532 l 0
336 1270 m 1
 308 1208 300 1134 300 1054 c 0
 300 932 320 798 320 678 c 0
 320 522 288 392 140 342 c 1
 140 342 170 486 170 584 c 0
 170 624 164 656 150 670 c 2
 150 670 138 682 110 682 c 0
 88 682 58 674 16 644 c 2
 16 644 50 782 120 836 c 0
 120 846 120 856 120 868 c 0
 120 1006 192 1186 336 1270 c 1
EndSplineSet
EndUndoOperation
EndUndoes
Redoes
EndRedoes
EndUndoRedoHistory
Fore
SplineSet
884 1532 m 0
 896 1532 906 1532 918 1532 c 1
 590 1348 626 1210 614 936 c 0
 614 920 612 902 612 886 c 0
 612 738 638 584 638 434 c 0
 638 390 636 348 630 304 c 1
 636 304 642 304 646 304 c 0
 672 304 696 300 722 296 c 2
 722 1244 l 2
 712 1256 698 1266 694 1266 c 1
 706 1266 740 1302 740 1312 c 1
 740 1300 776 1268 786 1266 c 1
 782 1266 772 1258 762 1248 c 2
 762 288 l 2
 856 264 950 220 1046 210 c 0
 1056 208 1066 210 1076 210 c 0
 1198 210 1278 280 1412 304 c 1
 1260 114 1258 56 1058 28 c 0
 894 38 732 54 578 54 c 0
 466 54 358 46 262 18 c 1
 374 150 402 312 402 478 c 0
 402 646 374 820 374 976 c 0
 374 1094 388 1202 444 1290 c 0
 544 1434 712 1532 882 1532 c 0
 884 1532 l 0
336 1270 m 1
 308 1208 300 1134 300 1054 c 0
 300 932 320 798 320 678 c 0
 320 522 288 392 140 342 c 1
 140 342 170 486 170 584 c 0
 170 624 164 656 150 670 c 2
 150 670 138 682 110 682 c 0
 88 682 58 674 16 644 c 2
 16 644 50 782 120 836 c 0
 120 846 120 856 120 868 c 0
 120 1006 192 1186 336 1270 c 1
EndSplineSet
Validated: 1
EndChar

StartChar: M
Encoding: 77 77 20
Width: 1174
VWidth: 0
Flags: HW
LayerCount: 2
UndoRedoHistory
Layer: 1
Undoes
UndoOperation
Index: 0
Type: 1
WasModified: 0
WasOrder2: 0
Layer: 2
Width: 1174
VWidth: 0
LBearingChange: 0
UnicodeEnc: 0
InstructionsLength: 0
SplineSet
878 1595 m 1
 948 1465 1077 1387 1245 1300 c 1
 1115 1168 l 1
 1117 1083 1118 864 1118 656 c 0
 1118 504 1118 357 1115 274 c 1
 1181 208 l 1
 998 24 l 1
 982 40 l 0
 814 208 l 1
 896 274 l 1
 896 322 895 393 895 477 c 0
 895 741 897 1126 898 1268 c 1
 876 1288 853 1307 830 1324 c 2
 816 1333 l 1
 816 331 l 2
 817 325 834 313 842 312 c 1
 834 310 798 275 796 266 c 1
 793 275 758 311 749 312 c 1
 758 313 776 325 776 331 c 2
 776 1358 l 1
 754 1369 731 1375 708 1376 c 1
 708 274 l 1
 780 208 l 1
 596 24 l 1
 412 208 l 1
 499 274 l 1
 499 274 499 705 499 998 c 0
 499 1144 499 1256 499 1262 c 1
 475 1284 457 1305 432 1324 c 2
 417 1334 l 1
 417 331 l 2
 417 324 437 313 443 312 c 1
 437 310 400 276 397 266 c 1
 393 275 359 311 350 312 c 1
 359 314 377 326 377 331 c 2
 377 1358 l 1
 355 1368 333 1374 310 1375 c 1
 310 274 l 1
 382 207 l 1
 198 23 l 1
 15 207 l 1
 87 274 l 1
 87 1215 l 1
 87 1215 38 1208 -32 1173 c 1
 69 1336 379 1489 480 1594 c 1
 520 1557 557 1523 594 1492 c 0
 617 1472 640 1453 664 1436 c 1
 702 1462 739 1487 773 1511 c 0
 816 1541 853 1569 878 1595 c 1
54 1168 m 1
 28 1109 20 1037 20 961 c 0
 20 846 38 720 38 607 c 0
 38 459 8 335 -133 288 c 1
 -133 288 -105 423 -105 517 c 0
 -105 554 -109 585 -122 598 c 1
 -122 598 -135 610 -161 610 c 0
 -182 610 -211 602 -250 575 c 1
 -250 575 -218 704 -151 756 c 1
 -152 766 -152 777 -152 787 c 0
 -152 919 -82 1087 54 1168 c 1
EndSplineSet
EndUndoOperation
EndUndoes
Redoes
EndRedoes
EndUndoRedoHistory
Fore
SplineSet
878 1595 m 1
 948 1465 1077 1387 1245 1300 c 1
 1115 1168 l 1
 1117 1083 1118 864 1118 656 c 0
 1118 504 1118 357 1115 274 c 1
 1181 208 l 1
 998 24 l 1
 982 40 l 0
 814 208 l 1
 896 274 l 1
 896 322 895 393 895 477 c 0
 895 741 897 1126 898 1268 c 1
 876 1288 853 1307 830 1324 c 2
 816 1333 l 1
 816 331 l 2
 817 325 834 313 842 312 c 1
 834 310 798 275 796 266 c 1
 793 275 758 311 749 312 c 1
 758 313 776 325 776 331 c 2
 776 1358 l 1
 754 1369 731 1375 708 1376 c 1
 708 274 l 1
 780 208 l 1
 596 24 l 1
 412 208 l 1
 499 274 l 1
 499 274 499 705 499 998 c 0
 499 1144 499 1256 499 1262 c 1
 475 1284 457 1305 432 1324 c 2
 417 1334 l 1
 417 331 l 2
 417 324 437 313 443 312 c 1
 437 310 400 276 397 266 c 1
 393 275 359 311 350 312 c 1
 359 314 377 326 377 331 c 2
 377 1358 l 1
 355 1368 333 1374 310 1375 c 1
 310 274 l 1
 382 207 l 1
 198 23 l 1
 15 207 l 1
 87 274 l 1
 87 1215 l 1
 87 1215 38 1208 -32 1173 c 1
 69 1336 379 1489 480 1594 c 1
 520 1557 557 1523 594 1492 c 0
 617 1472 640 1453 664 1436 c 1
 702 1462 739 1487 773 1511 c 0
 816 1541 853 1569 878 1595 c 1
54 1168 m 1
 28 1109 20 1037 20 961 c 0
 20 846 38 720 38 607 c 0
 38 459 8 335 -133 288 c 1
 -133 288 -105 423 -105 517 c 0
 -105 554 -109 585 -122 598 c 1
 -122 598 -135 610 -161 610 c 0
 -182 610 -211 602 -250 575 c 1
 -250 575 -218 704 -151 756 c 1
 -152 766 -152 777 -152 787 c 0
 -152 919 -82 1087 54 1168 c 1
EndSplineSet
Validated: 1
EndChar

StartChar: N
Encoding: 78 78 21
Width: 1276
VWidth: 0
Flags: HW
LayerCount: 2
UndoRedoHistory
Layer: 1
Undoes
UndoOperation
Index: 0
Type: 1
WasModified: 0
WasOrder2: 0
Layer: 2
Width: 1276
VWidth: 0
LBearingChange: 0
UnicodeEnc: 0
InstructionsLength: 0
SplineSet
314 1096 m 1
 290 1042 284 974 284 904 c 0
 284 796 300 680 300 574 c 0
 300 438 272 324 142 280 c 1
 142 280 168 406 168 492 c 0
 168 526 164 556 152 568 c 2
 152 568 140 578 116 578 c 0
 96 578 68 572 32 546 c 2
 32 546 62 666 124 714 c 0
 124 724 124 732 124 742 c 0
 124 864 188 1022 314 1096 c 1
752 1566 m 1
 912 1418 1020 1316 1260 1282 c 1
 1168 1146 l 1
 1168 1146 1178 718 1178 430 c 0
 1178 358 1178 296 1176 250 c 1
 1242 182 l 1
 1058 0 l 1
 876 182 l 1
 958 264 l 1
 958 310 956 372 956 440 c 0
 956 718 960 1118 960 1118 c 2
 878 1126 794 1230 706 1296 c 2
 706 226 l 2
 716 216 728 208 732 208 c 1
 724 206 684 172 684 163 c 0
 684 162 l 1
 682 170 648 208 638 208 c 1
 644 208 656 216 666 226 c 2
 666 1322 l 2
 640 1336 612 1348 584 1348 c 2
 584 254 l 1
 654 182 l 1
 472 0 l 1
 290 182 l 1
 356 250 l 1
 386 1206 l 1
 386 1206 336 1198 266 1164 c 1
 366 1326 652 1462 752 1566 c 1
EndSplineSet
EndUndoOperation
EndUndoes
Redoes
EndRedoes
EndUndoRedoHistory
Fore
SplineSet
314 1096 m 1
 290 1042 284 974 284 904 c 0
 284 796 300 680 300 574 c 0
 300 438 272 324 142 280 c 1
 142 280 168 406 168 492 c 0
 168 526 164 556 152 568 c 2
 152 568 140 578 116 578 c 0
 96 578 68 572 32 546 c 2
 32 546 62 666 124 714 c 0
 124 724 124 732 124 742 c 0
 124 864 188 1022 314 1096 c 1
752 1566 m 1
 912 1418 1020 1316 1260 1282 c 1
 1168 1146 l 1
 1168 1146 1178 718 1178 430 c 0
 1178 358 1178 296 1176 250 c 1
 1242 182 l 1
 1058 0 l 1
 876 182 l 1
 958 264 l 1
 958 310 956 372 956 440 c 0
 956 718 960 1118 960 1118 c 2
 878 1126 794 1230 706 1296 c 2
 706 226 l 2
 716 216 728 208 732 208 c 1
 724 206 684 172 684 163 c 0
 684 162 l 1
 682 170 648 208 638 208 c 1
 644 208 656 216 666 226 c 2
 666 1322 l 2
 640 1336 612 1348 584 1348 c 2
 584 254 l 1
 654 182 l 1
 472 0 l 1
 290 182 l 1
 356 250 l 1
 386 1206 l 1
 386 1206 336 1198 266 1164 c 1
 366 1326 652 1462 752 1566 c 1
EndSplineSet
Validated: 1
EndChar

StartChar: O
Encoding: 79 79 22
Width: 1568
VWidth: 0
Flags: HW
HStem: 0 218<696 934> 1322 224<625 726 766 898>
VStem: 26 216<661 931> 474 178<836 1092> 524 148<483 767> 726 40<248 1316> 1330 216<601 886>
LayerCount: 2
UndoRedoHistory
Layer: 1
Undoes
UndoOperation
Index: 0
Type: 1
WasModified: 0
WasOrder2: 0
Layer: 2
Width: 1568
VWidth: 0
LBearingChange: 0
UnicodeEnc: 0
InstructionsLength: 0
SplineSet
832 1546 m 0xe6
 844 1546 856 1544 868 1544 c 0
 1194 1526 1468 1292 1534 972 c 0
 1542 932 1546 890 1546 848 c 0
 1546 430 1172 18 704 0 c 0
 378 18 104 254 38 574 c 0
 30 614 26 654 26 694 c 0
 26 1086 364 1490 796 1546 c 0
 808 1546 820 1546 832 1546 c 0xe6
638 1328 m 0
 366 1324 242 1158 242 908 c 0
 242 858 246 804 256 748 c 0
 314 508 496 320 726 248 c 1
 726 1322 l 2
 724 1322 722 1322 720 1322 c 0
 694 1324 668 1328 642 1328 c 0
 640 1328 640 1328 638 1328 c 0
766 1316 m 1
 766 238 l 2
 794 232 824 226 852 222 c 0
 876 220 898 218 920 218 c 0
 1180 218 1330 380 1330 640 c 0
 1330 690 1324 742 1314 798 c 0
 1250 1066 1034 1268 766 1316 c 1
688 1290 m 1
 662 1228 652 1156 652 1078 c 0xf6
 652 958 672 826 672 708 c 0
 672 556 640 426 494 378 c 1
 494 378 524 518 524 616 c 0xee
 524 656 520 686 506 700 c 2
 506 700 492 712 466 712 c 0
 444 712 412 704 372 676 c 2
 372 676 406 808 476 862 c 0
 476 872 474 884 474 896 c 0xf6
 474 1032 546 1206 688 1290 c 1
EndSplineSet
EndUndoOperation
EndUndoes
Redoes
EndRedoes
EndUndoRedoHistory
Fore
SplineSet
832 1546 m 0xe6
 844 1546 856 1544 868 1544 c 0
 1194 1526 1468 1292 1534 972 c 0
 1542 932 1546 890 1546 848 c 0
 1546 430 1172 18 704 0 c 0
 378 18 104 254 38 574 c 0
 30 614 26 654 26 694 c 0
 26 1086 364 1490 796 1546 c 0
 808 1546 820 1546 832 1546 c 0xe6
638 1328 m 0
 366 1324 242 1158 242 908 c 0
 242 858 246 804 256 748 c 0
 314 508 496 320 726 248 c 1
 726 1322 l 2
 724 1322 722 1322 720 1322 c 0
 694 1324 668 1328 642 1328 c 0
 640 1328 640 1328 638 1328 c 0
766 1316 m 1
 766 238 l 2
 794 232 824 226 852 222 c 0
 876 220 898 218 920 218 c 0
 1180 218 1330 380 1330 640 c 0
 1330 690 1324 742 1314 798 c 0
 1250 1066 1034 1268 766 1316 c 1
688 1290 m 1
 662 1228 652 1156 652 1078 c 0xf6
 652 958 672 826 672 708 c 0
 672 556 640 426 494 378 c 1
 494 378 524 518 524 616 c 0xee
 524 656 520 686 506 700 c 2
 506 700 492 712 466 712 c 0
 444 712 412 704 372 676 c 2
 372 676 406 808 476 862 c 0
 476 872 474 884 474 896 c 0xf6
 474 1032 546 1206 688 1290 c 1
EndSplineSet
Validated: 1
EndChar

StartChar: P
Encoding: 80 80 23
Width: 1276
VWidth: 0
Flags: HW
LayerCount: 2
UndoRedoHistory
Layer: 1
Undoes
UndoOperation
Index: 0
Type: 1
WasModified: 0
WasOrder2: 0
Layer: 2
Width: 1276
VWidth: 0
LBearingChange: 0
UnicodeEnc: 0
InstructionsLength: 0
SplineSet
920 1634 m 2
 924 1634 l 2
 924 1634 1242 1596 1242 1458 c 0
 1242 1342 1248 1218 1248 1096 c 0
 1248 766 1208 438 912 218 c 0
 832 166 798 144 770 144 c 0
 732 144 710 186 604 250 c 1
 602 202 600 154 600 108 c 0
 600 38 600 -32 602 -104 c 2
 700 -200 l 1
 500 -400 l 1
 300 -200 l 1
 378 -122 l 2
 388 -66 392 -12 392 42 c 0
 392 80 390 120 390 162 c 0
 390 182 392 202 392 224 c 0
 392 274 368 292 338 292 c 0
 294 292 236 256 208 234 c 1
 208 236 208 238 208 240 c 0
 208 311 312 404 376 458 c 0
 376 624 376 806 376 990 c 0
 376 1074 375 1158 375 1241 c 0
 375 1283 375 1325 376 1366 c 1
 374 1366 372 1366 370 1366 c 0
 358 1366 352 1366 344 1366 c 0
 316 1366 302 1364 242 1334 c 1
 306 1480 644 1634 912 1634 c 0
 920 1634 l 2
804 1448 m 0
 798 1448 794 1448 788 1448 c 0
 766 1448 744 1444 724 1440 c 2
 724 474 l 2
 808 434 836 372 954 358 c 0
 1037 467 1043 629 1043 771 c 0
 1043 793 1042 815 1042 836 c 0
 1042 865 1043 893 1044 918 c 0
 1044 930 1046 942 1046 954 c 0
 1046 1122 992 1410 898 1434 c 0
 874 1442 840 1448 804 1448 c 0
684 1426 m 2
 636 1406 604 1370 604 1312 c 0
 602 1260 602 1206 602 1150 c 0
 602 994 604 822 604 668 c 0
 604 631 605 594 605 558 c 0
 605 540 605 523 604 506 c 0
 636 502 662 498 684 490 c 2
 684 1426 l 2
348 1314 m 1
 322 1254 314 1182 314 1106 c 0
 314 988 332 858 332 744 c 0
 332 594 302 468 160 420 c 1
 160 420 188 558 188 654 c 0
 188 692 182 724 170 736 c 2
 170 736 156 748 130 748 c 0
 108 748 80 740 40 712 c 2
 40 712 72 844 140 896 c 0
 140 906 140 918 140 928 c 0
 140 1062 210 1232 348 1314 c 1
EndSplineSet
EndUndoOperation
EndUndoes
Redoes
EndRedoes
EndUndoRedoHistory
Fore
SplineSet
920 1634 m 2
 924 1634 l 2
 924 1634 1242 1596 1242 1458 c 0
 1242 1342 1248 1218 1248 1096 c 0
 1248 766 1208 438 912 218 c 0
 832 166 798 144 770 144 c 0
 732 144 710 186 604 250 c 1
 602 202 600 154 600 108 c 0
 600 38 600 -32 602 -104 c 2
 700 -200 l 1
 500 -400 l 1
 300 -200 l 1
 378 -122 l 2
 388 -66 392 -12 392 42 c 0
 392 80 390 120 390 162 c 0
 390 182 392 202 392 224 c 0
 392 274 368 292 338 292 c 0
 294 292 236 256 208 234 c 1
 208 236 208 238 208 240 c 0
 208 311 312 404 376 458 c 0
 376 624 376 806 376 990 c 0
 376 1074 375 1158 375 1241 c 0
 375 1283 375 1325 376 1366 c 1
 374 1366 372 1366 370 1366 c 0
 358 1366 352 1366 344 1366 c 0
 316 1366 302 1364 242 1334 c 1
 306 1480 644 1634 912 1634 c 0
 920 1634 l 2
804 1448 m 0
 798 1448 794 1448 788 1448 c 0
 766 1448 744 1444 724 1440 c 2
 724 474 l 2
 808 434 836 372 954 358 c 0
 1037 467 1043 629 1043 771 c 0
 1043 793 1042 815 1042 836 c 0
 1042 865 1043 893 1044 918 c 0
 1044 930 1046 942 1046 954 c 0
 1046 1122 992 1410 898 1434 c 0
 874 1442 840 1448 804 1448 c 0
684 1426 m 2
 636 1406 604 1370 604 1312 c 0
 602 1260 602 1206 602 1150 c 0
 602 994 604 822 604 668 c 0
 604 631 605 594 605 558 c 0
 605 540 605 523 604 506 c 0
 636 502 662 498 684 490 c 2
 684 1426 l 2
348 1314 m 1
 322 1254 314 1182 314 1106 c 0
 314 988 332 858 332 744 c 0
 332 594 302 468 160 420 c 1
 160 420 188 558 188 654 c 0
 188 692 182 724 170 736 c 2
 170 736 156 748 130 748 c 0
 108 748 80 740 40 712 c 2
 40 712 72 844 140 896 c 0
 140 906 140 918 140 928 c 0
 140 1062 210 1232 348 1314 c 1
EndSplineSet
Validated: 1
EndChar

StartChar: Q
Encoding: 81 81 24
Width: 1576
VWidth: 0
Flags: HW
LayerCount: 2
UndoRedoHistory
Layer: 1
Undoes
UndoOperation
Index: 0
Type: 1
WasModified: 0
WasOrder2: 0
Layer: 2
Width: 1576
VWidth: 0
LBearingChange: 0
UnicodeEnc: 0
InstructionsLength: 0
SplineSet
836 1628 m 0
 848 1628 860 1626 872 1626 c 0
 1200 1608 1472 1372 1538 1052 c 0
 1546 1012 1550 970 1550 928 c 0
 1550 510 1176 98 708 80 c 0
 618 84 532 106 454 140 c 0
 420 80 398 38 398 4 c 0
 398 -8 400 -18 406 -28 c 0
 454 -112 552 -146 680 -146 c 0
 838 -146 1040 -94 1252 -22 c 1
 1252 -22 l 2
 1262 -20 1268 -24 1284 -28 c 2
 1284 -28 1112 -342 1084 -374 c 1
 1082 -368 1082 -362 1082 -354 c 0
 1082 -318 1094 -264 1094 -264 c 1
 978 -306 756 -350 562 -350 c 0
 418 -350 290 -326 230 -258 c 0
 204 -228 192 -194 192 -158 c 0
 192 -52 294 68 400 168 c 1
 218 268 84 442 40 654 c 0
 32 694 30 734 30 774 c 0
 30 1166 366 1570 800 1626 c 0
 812 1626 824 1628 836 1628 c 0
640 1408 m 0
 366 1404 246 1238 246 988 c 0
 246 938 250 884 260 828 c 0
 316 592 492 406 718 332 c 1
 718 1404 l 2
 694 1406 668 1408 644 1408 c 0
 642 1408 642 1408 640 1408 c 0
758 1398 m 1
 758 320 l 2
 790 312 822 306 854 302 c 0
 878 300 902 298 924 298 c 0
 1184 298 1334 458 1334 720 c 0
 1334 770 1328 822 1318 878 c 0
 1252 1150 1032 1352 758 1398 c 1
690 1372 m 1
 664 1310 656 1236 656 1158 c 0
 656 1038 674 906 674 788 c 0
 674 634 644 506 498 458 c 1
 498 458 526 598 526 696 c 0
 526 736 522 766 508 780 c 2
 508 780 494 792 468 792 c 0
 446 792 416 784 376 756 c 2
 376 756 408 890 478 944 c 0
 478 954 478 964 478 976 c 0
 478 1112 548 1288 690 1372 c 1
EndSplineSet
EndUndoOperation
EndUndoes
Redoes
EndRedoes
EndUndoRedoHistory
Fore
SplineSet
836 1628 m 0
 848 1628 860 1626 872 1626 c 0
 1200 1608 1472 1372 1538 1052 c 0
 1546 1012 1550 970 1550 928 c 0
 1550 510 1176 98 708 80 c 0
 618 84 532 106 454 140 c 0
 420 80 398 38 398 4 c 0
 398 -8 400 -18 406 -28 c 0
 454 -112 552 -146 680 -146 c 0
 838 -146 1040 -94 1252 -22 c 1
 1252 -22 l 2
 1262 -20 1268 -24 1284 -28 c 2
 1284 -28 1112 -342 1084 -374 c 1
 1082 -368 1082 -362 1082 -354 c 0
 1082 -318 1094 -264 1094 -264 c 1
 978 -306 756 -350 562 -350 c 0
 418 -350 290 -326 230 -258 c 0
 204 -228 192 -194 192 -158 c 0
 192 -52 294 68 400 168 c 1
 218 268 84 442 40 654 c 0
 32 694 30 734 30 774 c 0
 30 1166 366 1570 800 1626 c 0
 812 1626 824 1628 836 1628 c 0
640 1408 m 0
 366 1404 246 1238 246 988 c 0
 246 938 250 884 260 828 c 0
 316 592 492 406 718 332 c 1
 718 1404 l 2
 694 1406 668 1408 644 1408 c 0
 642 1408 642 1408 640 1408 c 0
758 1398 m 1
 758 320 l 2
 790 312 822 306 854 302 c 0
 878 300 902 298 924 298 c 0
 1184 298 1334 458 1334 720 c 0
 1334 770 1328 822 1318 878 c 0
 1252 1150 1032 1352 758 1398 c 1
690 1372 m 1
 664 1310 656 1236 656 1158 c 0
 656 1038 674 906 674 788 c 0
 674 634 644 506 498 458 c 1
 498 458 526 598 526 696 c 0
 526 736 522 766 508 780 c 2
 508 780 494 792 468 792 c 0
 446 792 416 784 376 756 c 2
 376 756 408 890 478 944 c 0
 478 954 478 964 478 976 c 0
 478 1112 548 1288 690 1372 c 1
EndSplineSet
Validated: 1
EndChar

StartChar: R
Encoding: 82 82 25
Width: 1023
VWidth: 0
Flags: HW
LayerCount: 2
UndoRedoHistory
Layer: 1
Undoes
UndoOperation
Index: 0
Type: 1
WasModified: 0
WasOrder2: 0
Layer: 2
Width: 1023
VWidth: 0
LBearingChange: 0
UnicodeEnc: 0
InstructionsLength: 0
SplineSet
524 1645 m 0
 532 1645 775 1628 851 1587 c 1
 897 1552 916 1486 916 1408 c 0
 916 1243 830 1026 727 939 c 0
 713 929 703 919 703 906 c 0
 703 899 706 892 712 884 c 1
 783 731 889 449 966 255 c 1
 992 240 1004 230 1022 230 c 0
 1037 230 1055 236 1089 252 c 1
 1046 126 882 36 812 36 c 0
 809 36 806 37 803 37 c 0
 739 46 735 83 701 107 c 1
 666 94 618 84 572 71 c 1
 628 111 672 144 718 177 c 1
 670 350 576 767 480 767 c 0
 477 767 473 766 470 765 c 1
 446 753 424 742 404 731 c 1
 404 292 l 2
 406 278 423 274 431 273 c 1
 423 272 385 233 384 226 c 1
 382 233 347 271 338 273 c 1
 347 275 354 281 364 291 c 1
 364 706 l 1
 343 690 324 670 308 641 c 1
 308 583 306 503 306 424 c 0
 306 369 307 315 310 270 c 1
 388 191 l 1
 197 0 l 1
 6 191 l 1
 77 262 l 2
 78 267 80 273 85 279 c 1
 84 336 83 397 83 461 c 0
 83 662 89 887 89 1092 c 0
 89 1176 88 1255 85 1329 c 1
 86 1342 86 1354 86 1364 c 0
 86 1414 75 1432 56 1432 c 0
 23 1432 -33 1376 -94 1331 c 1
 -95 1335 -95 1340 -95 1344 c 0
 -95 1450 110 1578 195 1601 c 0
 277 1625 401 1644 524 1645 c 0
408 1434 m 0
 407 1434 405 1434 404 1434 c 2
 404 827 l 1
 475 858 540 907 589 964 c 0
 638 1021 673 1087 686 1151 c 0
 690 1170 692 1189 692 1207 c 0
 692 1250 680 1291 655 1327 c 0
 619 1378 539 1419 503 1426 c 0
 488 1429 430 1434 408 1434 c 0
364 1431 m 1
 353 1430 341 1429 329 1428 c 1
 327 1322 323 1156 323 1015 c 0
 323 928 325 850 329 802 c 1
 341 805 352 808 364 812 c 1
 364 1431 l 1
54 1297 m 1
 29 1240 22 1172 22 1098 c 0
 22 987 39 864 39 755 c 0
 39 612 9 490 -127 445 c 1
 -127 445 -99 576 -99 667 c 0
 -99 703 -104 733 -116 745 c 1
 -116 745 -128 756 -153 756 c 0
 -173 756 -202 749 -240 722 c 1
 -240 722 -209 848 -144 898 c 1
 -145 908 -145 918 -145 929 c 0
 -145 1057 -78 1219 54 1297 c 1
EndSplineSet
EndUndoOperation
EndUndoes
Redoes
EndRedoes
EndUndoRedoHistory
Fore
SplineSet
524 1645 m 0
 532 1645 775 1628 851 1587 c 1
 897 1552 916 1486 916 1408 c 0
 916 1243 830 1026 727 939 c 0
 713 929 703 919 703 906 c 0
 703 899 706 892 712 884 c 1
 783 731 889 449 966 255 c 1
 992 240 1004 230 1022 230 c 0
 1037 230 1055 236 1089 252 c 1
 1046 126 882 36 812 36 c 0
 809 36 806 37 803 37 c 0
 739 46 735 83 701 107 c 1
 666 94 618 84 572 71 c 1
 628 111 672 144 718 177 c 1
 670 350 576 767 480 767 c 0
 477 767 473 766 470 765 c 1
 446 753 424 742 404 731 c 1
 404 292 l 2
 406 278 423 274 431 273 c 1
 423 272 385 233 384 226 c 1
 382 233 347 271 338 273 c 1
 347 275 354 281 364 291 c 1
 364 706 l 1
 343 690 324 670 308 641 c 1
 308 583 306 503 306 424 c 0
 306 369 307 315 310 270 c 1
 388 191 l 1
 197 0 l 1
 6 191 l 1
 77 262 l 2
 78 267 80 273 85 279 c 1
 84 336 83 397 83 461 c 0
 83 662 89 887 89 1092 c 0
 89 1176 88 1255 85 1329 c 1
 86 1342 86 1354 86 1364 c 0
 86 1414 75 1432 56 1432 c 0
 23 1432 -33 1376 -94 1331 c 1
 -95 1335 -95 1340 -95 1344 c 0
 -95 1450 110 1578 195 1601 c 0
 277 1625 401 1644 524 1645 c 0
408 1434 m 0
 407 1434 405 1434 404 1434 c 2
 404 827 l 1
 475 858 540 907 589 964 c 0
 638 1021 673 1087 686 1151 c 0
 690 1170 692 1189 692 1207 c 0
 692 1250 680 1291 655 1327 c 0
 619 1378 539 1419 503 1426 c 0
 488 1429 430 1434 408 1434 c 0
364 1431 m 1
 353 1430 341 1429 329 1428 c 1
 327 1322 323 1156 323 1015 c 0
 323 928 325 850 329 802 c 1
 341 805 352 808 364 812 c 1
 364 1431 l 1
54 1297 m 1
 29 1240 22 1172 22 1098 c 0
 22 987 39 864 39 755 c 0
 39 612 9 490 -127 445 c 1
 -127 445 -99 576 -99 667 c 0
 -99 703 -104 733 -116 745 c 1
 -116 745 -128 756 -153 756 c 0
 -173 756 -202 749 -240 722 c 1
 -240 722 -209 848 -144 898 c 1
 -145 908 -145 918 -145 929 c 0
 -145 1057 -78 1219 54 1297 c 1
EndSplineSet
Validated: 1
EndChar

StartChar: S
Encoding: 83 83 26
Width: 1252
VWidth: 0
Flags: HW
LayerCount: 2
UndoRedoHistory
Layer: 1
Undoes
UndoOperation
Index: 0
Type: 1
WasModified: 0
WasOrder2: 0
Layer: 2
Width: 1252
VWidth: 0
LBearingChange: 0
UnicodeEnc: 0
InstructionsLength: 0
SplineSet
256 979 m 1
 223 1019 209 1064 209 1109 c 0
 209 1320 522 1557 762 1557 c 0
 793 1557 823 1553 851 1545 c 1
 969 1502 1036 1405 1134 1405 c 0
 1177 1405 1226 1424 1287 1473 c 1
 1290 1470 1292 1466 1292 1460 c 0
 1292 1400 1113 1191 971 1191 c 0
 957 1191 942 1193 929 1198 c 1
 812 1202 738 1301 650 1363 c 513
 620 1380 589 1388 561 1388 c 0
 490 1388 435 1339 435 1270 c 0
 435 1239 446 1204 472 1167 c 1
 545 1089 647 1048 740 998 c 512
 937 891 1206 805 1206 533 c 0
 1206 506 1204 478 1198 447 c 1
 1166 328 1089 226 992 152 c 512
 887 72 756 24 630 24 c 0
 553 24 479 42 412 80 c 1
 315 142 243 189 155 189 c 0
 113 189 67 179 12 153 c 1
 10 159 9 166 9 172 c 0
 9 259 201 388 308 401 c 1
 463 389 647 199 806 199 c 0
 852 199 895 214 936 255 c 0
 975 294 992 333 992 371 c 0
 992 585 457 789 256 979 c 1
126 1190 m 513
 138 1191 172 1226 173 1237 c 513
 173 1226 210 1191 219 1190 c 513
 213 1189 193 1171 181 1157 c 513
 174 1134 170 1112 170 1090 c 0
 170 1050 184 1010 218 969 c 1
 335 858 569 741 742 620 c 512
 829 559 900 498 934 434 c 512
 948 408 955 382 955 355 c 0
 955 348 955 342 954 335 c 0
 950 309 946 298 929 280 c 513
 934 276 938 274 940 274 c 513
 932 273 893 236 894 228 c 513
 893 236 856 274 847 274 c 513
 858 274 895 310 894 320 c 513
 894 316 898 310 904 303 c 513
 910 313 914 324 917 342 c 512
 919 350 919 359 919 367 c 0
 919 391 912 415 895 438 c 0
 846 504 747 579 657 640 c 512
 566 701 466 762 380 817 c 512
 295 872 224 921 190 959 c 513
 190 959 l 513
 167 982 153 1019 146 1058 c 512
 143 1073 142 1088 142 1103 c 0
 142 1127 145 1150 152 1171 c 1
 142 1181 130 1190 126 1190 c 513
EndSplineSet
EndUndoOperation
EndUndoes
Redoes
EndRedoes
EndUndoRedoHistory
Fore
SplineSet
256 979 m 1
 223 1019 209 1064 209 1109 c 0
 209 1320 522 1557 762 1557 c 0
 793 1557 823 1553 851 1545 c 1
 969 1502 1036 1405 1134 1405 c 0
 1177 1405 1226 1424 1287 1473 c 1
 1290 1470 1292 1466 1292 1460 c 0
 1292 1400 1113 1191 971 1191 c 0
 957 1191 942 1193 929 1198 c 1
 812 1202 738 1301 650 1363 c 513
 620 1380 589 1388 561 1388 c 0
 490 1388 435 1339 435 1270 c 0
 435 1239 446 1204 472 1167 c 1
 545 1089 647 1048 740 998 c 512
 937 891 1206 805 1206 533 c 0
 1206 506 1204 478 1198 447 c 1
 1166 328 1089 226 992 152 c 512
 887 72 756 24 630 24 c 0
 553 24 479 42 412 80 c 1
 315 142 243 189 155 189 c 0
 113 189 67 179 12 153 c 1
 10 159 9 166 9 172 c 0
 9 259 201 388 308 401 c 1
 463 389 647 199 806 199 c 0
 852 199 895 214 936 255 c 0
 975 294 992 333 992 371 c 0
 992 585 457 789 256 979 c 1
126 1190 m 513
 138 1191 172 1226 173 1237 c 513
 173 1226 210 1191 219 1190 c 513
 213 1189 193 1171 181 1157 c 513
 174 1134 170 1112 170 1090 c 0
 170 1050 184 1010 218 969 c 1
 335 858 569 741 742 620 c 512
 829 559 900 498 934 434 c 512
 948 408 955 382 955 355 c 0
 955 348 955 342 954 335 c 0
 950 309 946 298 929 280 c 513
 934 276 938 274 940 274 c 513
 932 273 893 236 894 228 c 513
 893 236 856 274 847 274 c 513
 858 274 895 310 894 320 c 513
 894 316 898 310 904 303 c 513
 910 313 914 324 917 342 c 512
 919 350 919 359 919 367 c 0
 919 391 912 415 895 438 c 0
 846 504 747 579 657 640 c 512
 566 701 466 762 380 817 c 512
 295 872 224 921 190 959 c 513
 190 959 l 513
 167 982 153 1019 146 1058 c 512
 143 1073 142 1088 142 1103 c 0
 142 1127 145 1150 152 1171 c 1
 142 1181 130 1190 126 1190 c 513
EndSplineSet
Validated: 1
EndChar

StartChar: T
Encoding: 84 84 27
Width: 1236
VWidth: 0
Flags: HW
LayerCount: 2
UndoRedoHistory
Layer: 1
Undoes
UndoOperation
Index: 0
Type: 1
WasModified: 0
WasOrder2: 0
Layer: 2
Width: 1236
VWidth: 0
LBearingChange: 0
UnicodeEnc: 0
InstructionsLength: 0
SplineSet
868 1232 m 2
 906 1160 1042 1074 1102 1074 c 1
 1076 1026 988 948 928 900 c 1
 924 906 916 914 902 922 c 2
 902 212 l 2
 1000 224 1140 286 1214 350 c 1
 1116 166 866 16 658 16 c 0
 648 16 636 16 626 16 c 0
 360 30 98 254 44 516 c 0
 36 550 32 620 32 642 c 0
 32 860 178 1094 358 1192 c 1
 282 1100 220 928 220 808 c 0
 220 768 226 706 236 668 c 0
 290 442 522 236 754 210 c 0
 772 208 800 206 818 206 c 0
 830 206 848 208 860 208 c 2
 860 942 l 2
 820 960 774 974 744 974 c 2
 760 508 l 1
 550 360 l 1
 550 816 l 1
 504 840 l 1
 504 840 470 834 418 828 c 1
 484 916 868 1232 868 1232 c 2
90 1148 m 1
 236 1442 418 1504 600 1504 c 0
 670 1504 740 1494 808 1486 c 0
 894 1474 980 1462 1066 1462 c 0
 1156 1462 1246 1476 1336 1514 c 1
 1308 1338 998 1256 826 1256 c 0
 812 1256 802 1256 790 1256 c 0
 678 1266 576 1294 468 1294 c 0
 356 1294 234 1264 90 1148 c 1
EndSplineSet
EndUndoOperation
EndUndoes
Redoes
EndRedoes
EndUndoRedoHistory
Fore
SplineSet
868 1232 m 2
 906 1160 1042 1074 1102 1074 c 1
 1076 1026 988 948 928 900 c 1
 924 906 916 914 902 922 c 2
 902 212 l 2
 1000 224 1140 286 1214 350 c 1
 1116 166 866 16 658 16 c 0
 648 16 636 16 626 16 c 0
 360 30 98 254 44 516 c 0
 36 550 32 620 32 642 c 0
 32 860 178 1094 358 1192 c 1
 282 1100 220 928 220 808 c 0
 220 768 226 706 236 668 c 0
 290 442 522 236 754 210 c 0
 772 208 800 206 818 206 c 0
 830 206 848 208 860 208 c 2
 860 942 l 2
 820 960 774 974 744 974 c 2
 760 508 l 1
 550 360 l 1
 550 816 l 1
 504 840 l 1
 504 840 470 834 418 828 c 1
 484 916 868 1232 868 1232 c 2
90 1148 m 1
 236 1442 418 1504 600 1504 c 0
 670 1504 740 1494 808 1486 c 0
 894 1474 980 1462 1066 1462 c 0
 1156 1462 1246 1476 1336 1514 c 1
 1308 1338 998 1256 826 1256 c 0
 812 1256 802 1256 790 1256 c 0
 678 1266 576 1294 468 1294 c 0
 356 1294 234 1264 90 1148 c 1
EndSplineSet
Validated: 1
EndChar

StartChar: U
Encoding: 85 85 28
Width: 1252
VWidth: 0
Flags: HW
LayerCount: 2
UndoRedoHistory
Layer: 1
Undoes
UndoOperation
Index: 0
Type: 1
WasModified: 0
WasOrder2: 0
Layer: 2
Width: 1252
VWidth: 0
LBearingChange: 0
UnicodeEnc: 0
InstructionsLength: 0
SplineSet
796 1214 m 1
 770 1154 762 1082 762 1006 c 0
 762 890 780 764 780 650 c 0
 780 502 750 374 610 328 c 1
 610 328 638 466 638 560 c 0
 638 598 632 628 620 640 c 2
 620 640 608 652 582 652 c 0
 560 652 532 644 492 616 c 2
 492 616 524 746 592 798 c 0
 592 808 590 820 590 830 c 0
 590 962 660 1134 796 1214 c 1
280 1558 m 1
 480 1360 l 1
 382 1264 l 1
 382 368 l 2
 404 368 424 362 444 354 c 2
 444 1246 l 2
 434 1258 420 1268 416 1268 c 1
 428 1268 462 1304 462 1314 c 1
 462 1302 498 1270 508 1268 c 1
 504 1268 494 1258 484 1248 c 2
 484 334 l 2
 562 290 642 224 782 224 c 0
 800 224 818 224 838 226 c 1
 838 1286 l 1
 762 1360 l 1
 960 1558 l 1
 1160 1360 l 1
 1062 1264 l 1
 1062 246 l 2
 1112 222 1126 204 1150 204 c 0
 1164 204 1184 210 1218 226 c 1
 1176 100 1010 10 940 10 c 0
 936 10 934 10 932 10 c 0
 868 18 864 56 830 80 c 0
 822 76 814 74 804 72 c 0
 726 24 668 6 616 6 c 0
 474 6 392 144 132 144 c 0
 100 144 66 142 28 138 c 1
 188 316 l 1
 188 1250 l 1
 194 1250 l 1
 82 1360 l 1
 280 1558 l 1
EndSplineSet
EndUndoOperation
EndUndoes
Redoes
EndRedoes
EndUndoRedoHistory
Fore
SplineSet
796 1214 m 1
 770 1154 762 1082 762 1006 c 0
 762 890 780 764 780 650 c 0
 780 502 750 374 610 328 c 1
 610 328 638 466 638 560 c 0
 638 598 632 628 620 640 c 2
 620 640 608 652 582 652 c 0
 560 652 532 644 492 616 c 2
 492 616 524 746 592 798 c 0
 592 808 590 820 590 830 c 0
 590 962 660 1134 796 1214 c 1
280 1558 m 1
 480 1360 l 1
 382 1264 l 1
 382 368 l 2
 404 368 424 362 444 354 c 2
 444 1246 l 2
 434 1258 420 1268 416 1268 c 1
 428 1268 462 1304 462 1314 c 1
 462 1302 498 1270 508 1268 c 1
 504 1268 494 1258 484 1248 c 2
 484 334 l 2
 562 290 642 224 782 224 c 0
 800 224 818 224 838 226 c 1
 838 1286 l 1
 762 1360 l 1
 960 1558 l 1
 1160 1360 l 1
 1062 1264 l 1
 1062 246 l 2
 1112 222 1126 204 1150 204 c 0
 1164 204 1184 210 1218 226 c 1
 1176 100 1010 10 940 10 c 0
 936 10 934 10 932 10 c 0
 868 18 864 56 830 80 c 0
 822 76 814 74 804 72 c 0
 726 24 668 6 616 6 c 0
 474 6 392 144 132 144 c 0
 100 144 66 142 28 138 c 1
 188 316 l 1
 188 1250 l 1
 194 1250 l 1
 82 1360 l 1
 280 1558 l 1
EndSplineSet
Validated: 1
EndChar

StartChar: V
Encoding: 86 86 29
Width: 1088
VWidth: 0
Flags: HW
LayerCount: 2
UndoRedoHistory
Layer: 1
Undoes
UndoOperation
Index: 0
Type: 1
WasModified: 0
WasOrder2: 0
Layer: 2
Width: 1088
VWidth: 0
LBearingChange: 0
UnicodeEnc: 0
InstructionsLength: 0
SplineSet
322 1520 m 1
 512 1330 l 1
 432 1248 l 1
 432 1156 l 1
 432 394 l 1
 432 394 494 334 508 324 c 2
 508 1234 l 2
 498 1244 486 1254 482 1254 c 1
 494 1254 528 1292 528 1302 c 1
 528 1290 564 1256 574 1254 c 1
 570 1254 560 1246 550 1236 c 2
 548 1236 l 1
 548 296 l 2
 602 260 616 264 630 250 c 0
 722 272 802 354 812 440 c 0
 822 534 826 826 826 1042 c 0
 826 1140 824 1222 824 1264 c 2
 758 1330 l 1
 950 1520 l 1
 1140 1330 l 1
 1052 1242 l 1
 1052 780 l 2
 964 236 610 56 534 0 c 0
 398 12 378 234 124 234 c 1
 220 342 l 1
 220 1238 l 1
 130 1330 l 1
 322 1520 l 1
190 1206 m 1
 166 1148 158 1082 158 1008 c 0
 158 896 176 774 176 664 c 0
 176 522 146 400 10 354 c 1
 10 354 36 486 36 576 c 0
 36 612 32 644 20 656 c 2
 20 656 8 666 -18 666 c 0
 -38 666 -66 658 -104 632 c 2
 -104 632 -74 758 -8 808 c 0
 -8 818 -8 828 -8 838 c 0
 -8 966 58 1128 190 1206 c 1
EndSplineSet
EndUndoOperation
EndUndoes
Redoes
EndRedoes
EndUndoRedoHistory
Fore
SplineSet
322 1520 m 1
 512 1330 l 1
 432 1248 l 1
 432 1156 l 1
 432 394 l 1
 432 394 494 334 508 324 c 2
 508 1234 l 2
 498 1244 486 1254 482 1254 c 1
 494 1254 528 1292 528 1302 c 1
 528 1290 564 1256 574 1254 c 1
 570 1254 560 1246 550 1236 c 2
 548 1236 l 1
 548 296 l 2
 602 260 616 264 630 250 c 0
 722 272 802 354 812 440 c 0
 822 534 826 826 826 1042 c 0
 826 1140 824 1222 824 1264 c 2
 758 1330 l 1
 950 1520 l 1
 1140 1330 l 1
 1052 1242 l 1
 1052 780 l 2
 964 236 610 56 534 0 c 0
 398 12 378 234 124 234 c 1
 220 342 l 1
 220 1238 l 1
 130 1330 l 1
 322 1520 l 1
190 1206 m 1
 166 1148 158 1082 158 1008 c 0
 158 896 176 774 176 664 c 0
 176 522 146 400 10 354 c 1
 10 354 36 486 36 576 c 0
 36 612 32 644 20 656 c 2
 20 656 8 666 -18 666 c 0
 -38 666 -66 658 -104 632 c 2
 -104 632 -74 758 -8 808 c 0
 -8 818 -8 828 -8 838 c 0
 -8 966 58 1128 190 1206 c 1
EndSplineSet
Validated: 1
EndChar

StartChar: W
Encoding: 87 87 30
Width: 1720
VWidth: 0
Flags: HW
LayerCount: 2
UndoRedoHistory
Layer: 1
Undoes
UndoOperation
Index: 0
Type: 1
WasModified: 0
WasOrder2: 0
Layer: 2
Width: 1720
VWidth: 0
LBearingChange: 0
UnicodeEnc: 0
InstructionsLength: 0
SplineSet
514 1582 m 1
 706 1390 l 1
 640 1326 l 1
 640 392 l 2
 664 374 686 354 704 336 c 2
 704 1256 l 2
 694 1266 682 1276 678 1276 c 1
 690 1276 724 1312 724 1322 c 1
 724 1310 760 1278 770 1276 c 1
 766 1276 754 1264 744 1254 c 2
 744 294 l 2
 770 266 794 248 816 248 c 0
 846 248 878 280 924 372 c 2
 924 1006 l 1
 844 1084 l 1
 1034 1276 l 1
 1226 1084 l 1
 1150 1008 l 1
 1150 466 l 2
 1226 378 1254 298 1322 298 c 0
 1348 298 1378 310 1420 338 c 1
 1420 1324 l 1
 1354 1390 l 1
 1544 1582 l 1
 1736 1390 l 1
 1672 1326 l 1
 1672 1326 1676 1124 1676 924 c 0
 1676 824 1676 728 1672 656 c 0
 1668 568 1626 494 1576 410 c 0
 1526 326 1428 184 1150 40 c 1
 954 240 l 1
 828 84 l 1
 828 84 722 14 656 14 c 0
 652 14 650 14 646 14 c 0
 550 26 514 160 408 178 c 2
 276 146 l 1
 392 334 l 1
 392 520 392 760 392 990 c 0
 392 1106 392 1218 392 1322 c 1
 324 1390 l 1
 514 1582 l 1
334 1294 m 1
 306 1230 298 1158 298 1076 c 0
 298 952 318 816 318 696 c 0
 318 538 286 404 136 354 c 1
 136 354 166 500 166 600 c 0
 166 640 160 672 146 686 c 2
 146 686 134 700 106 700 c 0
 84 700 52 692 10 662 c 2
 10 662 44 798 116 854 c 0
 114 864 114 876 114 888 c 0
 114 1028 188 1208 334 1294 c 1
EndSplineSet
EndUndoOperation
EndUndoes
Redoes
EndRedoes
EndUndoRedoHistory
Fore
SplineSet
514 1582 m 1
 706 1390 l 1
 640 1326 l 1
 640 392 l 2
 664 374 686 354 704 336 c 2
 704 1256 l 2
 694 1266 682 1276 678 1276 c 1
 690 1276 724 1312 724 1322 c 1
 724 1310 760 1278 770 1276 c 1
 766 1276 754 1264 744 1254 c 2
 744 294 l 2
 770 266 794 248 816 248 c 0
 846 248 878 280 924 372 c 2
 924 1006 l 1
 844 1084 l 1
 1034 1276 l 1
 1226 1084 l 1
 1150 1008 l 1
 1150 466 l 2
 1226 378 1254 298 1322 298 c 0
 1348 298 1378 310 1420 338 c 1
 1420 1324 l 1
 1354 1390 l 1
 1544 1582 l 1
 1736 1390 l 1
 1672 1326 l 1
 1672 1326 1676 1124 1676 924 c 0
 1676 824 1676 728 1672 656 c 0
 1668 568 1626 494 1576 410 c 0
 1526 326 1428 184 1150 40 c 1
 954 240 l 1
 828 84 l 1
 828 84 722 14 656 14 c 0
 652 14 650 14 646 14 c 0
 550 26 514 160 408 178 c 2
 276 146 l 1
 392 334 l 1
 392 520 392 760 392 990 c 0
 392 1106 392 1218 392 1322 c 1
 324 1390 l 1
 514 1582 l 1
334 1294 m 1
 306 1230 298 1158 298 1076 c 0
 298 952 318 816 318 696 c 0
 318 538 286 404 136 354 c 1
 136 354 166 500 166 600 c 0
 166 640 160 672 146 686 c 2
 146 686 134 700 106 700 c 0
 84 700 52 692 10 662 c 2
 10 662 44 798 116 854 c 0
 114 864 114 876 114 888 c 0
 114 1028 188 1208 334 1294 c 1
EndSplineSet
Validated: 1
EndChar

StartChar: X
Encoding: 88 88 31
Width: 1604
VWidth: 0
Flags: HW
LayerCount: 2
UndoRedoHistory
Layer: 1
Undoes
UndoOperation
Index: 0
Type: 1
WasModified: 0
WasOrder2: 0
Layer: 2
Width: 1604
VWidth: 0
LBearingChange: 0
UnicodeEnc: 0
InstructionsLength: 0
SplineSet
317 1638 m 1
 365 1608 413 1598 468 1598 c 0
 532 1598 605 1612 695 1628 c 1
 660 1573 620 1479 584 1448 c 1
 840 1058 l 1
 969 1246 1060 1378 1115 1458 c 1
 1221 1638 l 1
 1285 1599 1345 1586 1401 1586 c 0
 1482 1586 1555 1614 1622 1632 c 1
 1507 1466 1395 1367 1269 1367 c 0
 1267 1367 1265 1367 1263 1367 c 1
 937 899 l 1
 1403 196 l 1
 1432 191 1462 186 1492 179 c 1
 1361 -66 l 1
 1298 -24 1235 -8 1176 -8 c 0
 1101 -8 1030 -34 967 -64 c 1
 1010 5 1059 84 1115 141 c 1
 760 674 l 1
 475 187 l 1
 488 184 500 182 513 179 c 1
 381 -66 l 1
 320 -26 263 -11 209 -11 c 0
 135 -11 65 -39 0 -68 c 1
 79 56 168 177 253 196 c 0
 255 199 256 201 259 205 c 0
 266 216 277 232 290 252 c 0
 316 291 353 345 397 410 c 0
 472 520 569 662 668 806 c 1
 335 1368 l 1
 286 1371 237 1382 186 1393 c 1
 317 1638 l 1
1104 1388 m 1
 859 1029 l 1
 881 996 l 1
 1157 1378 l 1
 1139 1381 1122 1384 1104 1388 c 1
686 776 m 1
 295 202 l 1
 309 203 324 204 338 204 c 1
 703 746 l 1
 686 776 l 1
EndSplineSet
EndUndoOperation
EndUndoes
Redoes
EndRedoes
EndUndoRedoHistory
Fore
SplineSet
317 1638 m 1
 365 1608 413 1598 468 1598 c 0
 532 1598 605 1612 695 1628 c 1
 660 1573 620 1479 584 1448 c 1
 840 1058 l 1
 969 1246 1060 1378 1115 1458 c 1
 1221 1638 l 1
 1285 1599 1345 1586 1401 1586 c 0
 1482 1586 1555 1614 1622 1632 c 1
 1507 1466 1395 1367 1269 1367 c 0
 1267 1367 1265 1367 1263 1367 c 1
 937 899 l 1
 1403 196 l 1
 1432 191 1462 186 1492 179 c 1
 1361 -66 l 1
 1298 -24 1235 -8 1176 -8 c 0
 1101 -8 1030 -34 967 -64 c 1
 1010 5 1059 84 1115 141 c 1
 760 674 l 1
 475 187 l 1
 488 184 500 182 513 179 c 1
 381 -66 l 1
 320 -26 263 -11 209 -11 c 0
 135 -11 65 -39 0 -68 c 1
 79 56 168 177 253 196 c 0
 255 199 256 201 259 205 c 0
 266 216 277 232 290 252 c 0
 316 291 353 345 397 410 c 0
 472 520 569 662 668 806 c 1
 335 1368 l 1
 286 1371 237 1382 186 1393 c 1
 317 1638 l 1
1104 1388 m 1
 859 1029 l 1
 881 996 l 1
 1157 1378 l 1
 1139 1381 1122 1384 1104 1388 c 1
686 776 m 1
 295 202 l 1
 309 203 324 204 338 204 c 1
 703 746 l 1
 686 776 l 1
EndSplineSet
Validated: 1
EndChar

StartChar: Y
Encoding: 89 89 32
Width: 1364
VWidth: 0
Flags: HW
LayerCount: 2
UndoRedoHistory
Layer: 1
Undoes
UndoOperation
Index: 0
Type: 1
WasModified: 0
WasOrder2: 0
Layer: 2
Width: 1364
VWidth: 0
LBearingChange: 0
UnicodeEnc: 0
InstructionsLength: 0
SplineSet
338 1276 m 1
 312 1218 306 1148 306 1072 c 0
 306 956 324 830 324 718 c 0
 324 570 294 446 154 400 c 1
 154 400 180 534 180 628 c 0
 180 666 176 696 164 708 c 2
 164 708 152 720 126 720 c 0
 106 720 74 714 36 686 c 2
 36 686 70 814 136 866 c 0
 136 876 134 888 134 898 c 0
 134 1030 202 1196 338 1276 c 1
522 1620 m 1
 720 1424 l 1
 632 1336 l 1
 632 492 l 1
 698 450 l 1
 698 1322 l 2
 688 1332 676 1342 672 1342 c 1
 684 1342 718 1378 718 1388 c 1
 718 1376 754 1344 764 1342 c 1
 760 1342 748 1332 738 1322 c 2
 738 424 l 1
 854 350 l 1
 1014 438 l 1
 1014 1330 l 1
 918 1424 l 1
 1116 1620 l 1
 1312 1424 l 1
 1206 1318 l 1
 1206 450 l 1
 708 116 l 2
 700 124 690 132 682 140 c 0
 630 104 534 50 498 2 c 0
 496 0 496 -4 496 -6 c 0
 496 -56 918 -50 994 -62 c 0
 1058 -72 1170 -64 1170 -118 c 0
 1170 -130 1164 -144 1150 -164 c 0
 1076 -268 918 -352 802 -404 c 1
 832 -370 924 -320 924 -274 c 0
 924 -258 912 -240 882 -226 c 0
 858 -214 824 -210 780 -210 c 0
 690 -210 566 -228 462 -228 c 0
 368 -228 252 -210 252 -140 c 0
 252 -96 522 96 638 176 c 1
 578 224 494 264 308 264 c 0
 298 264 290 262 280 262 c 1
 426 444 l 2
 430 488 432 614 432 756 c 0
 432 980 430 1250 428 1324 c 2
 326 1424 l 1
 522 1620 l 1
EndSplineSet
EndUndoOperation
EndUndoes
Redoes
EndRedoes
EndUndoRedoHistory
Fore
SplineSet
338 1276 m 1
 312 1218 306 1148 306 1072 c 0
 306 956 324 830 324 718 c 0
 324 570 294 446 154 400 c 1
 154 400 180 534 180 628 c 0
 180 666 176 696 164 708 c 2
 164 708 152 720 126 720 c 0
 106 720 74 714 36 686 c 2
 36 686 70 814 136 866 c 0
 136 876 134 888 134 898 c 0
 134 1030 202 1196 338 1276 c 1
522 1620 m 1
 720 1424 l 1
 632 1336 l 1
 632 492 l 1
 698 450 l 1
 698 1322 l 2
 688 1332 676 1342 672 1342 c 1
 684 1342 718 1378 718 1388 c 1
 718 1376 754 1344 764 1342 c 1
 760 1342 748 1332 738 1322 c 2
 738 424 l 1
 854 350 l 1
 1014 438 l 1
 1014 1330 l 1
 918 1424 l 1
 1116 1620 l 1
 1312 1424 l 1
 1206 1318 l 1
 1206 450 l 1
 708 116 l 2
 700 124 690 132 682 140 c 0
 630 104 534 50 498 2 c 0
 496 0 496 -4 496 -6 c 0
 496 -56 918 -50 994 -62 c 0
 1058 -72 1170 -64 1170 -118 c 0
 1170 -130 1164 -144 1150 -164 c 0
 1076 -268 918 -352 802 -404 c 1
 832 -370 924 -320 924 -274 c 0
 924 -258 912 -240 882 -226 c 0
 858 -214 824 -210 780 -210 c 0
 690 -210 566 -228 462 -228 c 0
 368 -228 252 -210 252 -140 c 0
 252 -96 522 96 638 176 c 1
 578 224 494 264 308 264 c 0
 298 264 290 262 280 262 c 1
 426 444 l 2
 430 488 432 614 432 756 c 0
 432 980 430 1250 428 1324 c 2
 326 1424 l 1
 522 1620 l 1
EndSplineSet
Validated: 1
EndChar

StartChar: Z
Encoding: 90 90 33
Width: 1312
VWidth: 0
Flags: HW
LayerCount: 2
UndoRedoHistory
Layer: 1
Undoes
UndoOperation
Index: 0
Type: 1
WasModified: 0
WasOrder2: 0
Layer: 2
Width: 1312
VWidth: 0
LBearingChange: 0
UnicodeEnc: 0
InstructionsLength: 0
SplineSet
44 1370 m 1
 198 1582 770 1566 1140 1574 c 2
 1264 1574 l 1
 1254 1556 l 2
 1256 1554 l 1
 1050 1160 532 356 480 250 c 0
 476 246 474 242 474 238 c 0
 474 196 660 176 858 176 c 0
 1028 176 1206 190 1280 212 c 1
 1154 50 920 12 662 12 c 0
 502 12 334 28 176 38 c 0
 172 40 168 40 162 40 c 0
 132 40 86 22 60 22 c 0
 46 22 38 28 38 42 c 0
 38 46 38 50 40 56 c 0
 76 134 150 186 196 256 c 0
 416 518 764 1136 824 1222 c 0
 884 1308 886 1314 936 1412 c 1
 926 1412 914 1412 904 1412 c 0
 798 1412 686 1414 570 1414 c 0
 394 1414 214 1406 44 1370 c 1
1040 1410 m 1
 794 1096 532 634 278 248 c 1
 350 244 304 246 372 244 c 0
 446 356 892 1068 1112 1410 c 1
 1040 1410 l 1
EndSplineSet
EndUndoOperation
EndUndoes
Redoes
EndRedoes
EndUndoRedoHistory
Fore
SplineSet
44 1370 m 1
 198 1582 770 1566 1140 1574 c 2
 1264 1574 l 1
 1254 1556 l 2
 1256 1554 l 1
 1050 1160 532 356 480 250 c 0
 476 246 474 242 474 238 c 0
 474 196 660 176 858 176 c 0
 1028 176 1206 190 1280 212 c 1
 1154 50 920 12 662 12 c 0
 502 12 334 28 176 38 c 0
 172 40 168 40 162 40 c 0
 132 40 86 22 60 22 c 0
 46 22 38 28 38 42 c 0
 38 46 38 50 40 56 c 0
 76 134 150 186 196 256 c 0
 416 518 764 1136 824 1222 c 0
 884 1308 886 1314 936 1412 c 1
 926 1412 914 1412 904 1412 c 0
 798 1412 686 1414 570 1414 c 0
 394 1414 214 1406 44 1370 c 1
1040 1410 m 1
 794 1096 532 634 278 248 c 1
 350 244 304 246 372 244 c 0
 446 356 892 1068 1112 1410 c 1
 1040 1410 l 1
EndSplineSet
Validated: 1
EndChar

StartChar: i
Encoding: 105 105 34
Width: 460
VWidth: 0
Flags: HW
LayerCount: 2
UndoRedoHistory
Layer: 1
Undoes
UndoOperation
Index: 0
Type: 1
WasModified: 0
WasOrder2: 0
Layer: 2
Width: 460
VWidth: 0
LBearingChange: 0
UnicodeEnc: 0
InstructionsLength: 0
SplineSet
228 1368 m 1
 384 1212 l 1
 228 1056 l 1
 70 1212 l 1
 228 1368 l 1
230 948 m 1
 422 758 l 1
 328 664 l 1
 328 314 l 1
 422 220 l 1
 230 28 l 1
 40 220 l 1
 136 316 l 1
 136 662 l 1
 40 758 l 1
 230 948 l 1
EndSplineSet
EndUndoOperation
EndUndoes
Redoes
EndRedoes
EndUndoRedoHistory
Fore
SplineSet
228 1368 m 1
 384 1212 l 1
 228 1056 l 1
 70 1212 l 1
 228 1368 l 1
230 948 m 1
 422 758 l 1
 328 664 l 1
 328 314 l 1
 422 220 l 1
 230 28 l 1
 40 220 l 1
 136 316 l 1
 136 662 l 1
 40 758 l 1
 230 948 l 1
EndSplineSet
Validated: 1
EndChar

StartChar: j
Encoding: 106 106 35
Width: 428
VWidth: 0
Flags: HW
LayerCount: 2
UndoRedoHistory
Layer: 1
Undoes
UndoOperation
Index: 0
Type: 1
WasModified: 0
WasOrder2: 0
Layer: 2
Width: 428
VWidth: 0
LBearingChange: 0
UnicodeEnc: 0
InstructionsLength: 0
SplineSet
214 1370 m 1
 370 1214 l 1
 214 1058 l 1
 58 1214 l 1
 214 1370 l 1
218 950 m 1
 408 760 l 1
 314 666 l 1
 312 316 l 1
 312 316 312 268 312 208 c 0
 312 178 312 146 312 114 c 0
 312 10 284 -106 116 -218 c 0
 68 -250 22 -278 -10 -288 c 0
 -26 -294 -40 -296 -48 -292 c 0
 -56 -288 -66 -278 -56 -266 c 0
 38 -160 126 -78 126 138 c 0
 126 162 126 184 126 214 c 0
 126 264 126 318 126 318 c 1
 124 664 l 1
 26 760 l 1
 218 950 l 1
EndSplineSet
EndUndoOperation
EndUndoes
Redoes
EndRedoes
EndUndoRedoHistory
Fore
SplineSet
214 1370 m 1
 370 1214 l 1
 214 1058 l 1
 58 1214 l 1
 214 1370 l 1
218 950 m 1
 408 760 l 1
 314 666 l 1
 312 316 l 1
 312 316 312 268 312 208 c 0
 312 178 312 146 312 114 c 0
 312 10 284 -106 116 -218 c 0
 68 -250 22 -278 -10 -288 c 0
 -26 -294 -40 -296 -48 -292 c 0
 -56 -288 -66 -278 -56 -266 c 0
 38 -160 126 -78 126 138 c 0
 126 162 126 184 126 214 c 0
 126 264 126 318 126 318 c 1
 124 664 l 1
 26 760 l 1
 218 950 l 1
EndSplineSet
Validated: 1
EndChar

StartChar: k
Encoding: 107 107 36
Width: 608
VWidth: 0
Flags: HW
LayerCount: 2
UndoRedoHistory
Layer: 1
Undoes
UndoOperation
Index: 0
Type: 1
WasModified: 0
WasOrder2: 0
Layer: 2
Width: 608
VWidth: 0
LBearingChange: 0
UnicodeEnc: 0
InstructionsLength: 0
SplineSet
228 1594 m 1
 211 1368 l 1
 211 755 l 1
 447 913 l 1
 567 760 l 1
 390 592 l 1
 390 592 507 420 527 341 c 1
 527 292 527 220 527 220 c 1
 599 149 l 1
 450 0 l 1
 301 149 l 1
 354 201 l 1
 354 201 354 229 354 254 c 0
 354 266 354 278 354 284 c 1
 338 340 283 508 283 508 c 1
 211 456 l 1
 211 198 l 1
 260 149 l 1
 111 0 l 1
 -37 149 l 1
 20 206 l 1
 20 1323 l 1
 20 1323 15 1496 -5 1591 c 1
 8 1570 55 1522 93 1488 c 1
 125 1526 169 1566 228 1594 c 1
387 644 m 1
 358 681 325 746 308 770 c 1
 294 758 240 724 211 700 c 1
 211 512 l 1
 250 533 295 555 330 591 c 2
 387 644 l 1
EndSplineSet
EndUndoOperation
EndUndoes
Redoes
EndRedoes
EndUndoRedoHistory
Fore
SplineSet
228 1594 m 1
 211 1368 l 1
 211 755 l 1
 447 913 l 1
 567 760 l 1
 390 592 l 1
 390 592 507 420 527 341 c 1
 527 292 527 220 527 220 c 1
 599 149 l 1
 450 0 l 1
 301 149 l 1
 354 201 l 1
 354 201 354 229 354 254 c 0
 354 266 354 278 354 284 c 1
 338 340 283 508 283 508 c 1
 211 456 l 1
 211 198 l 1
 260 149 l 1
 111 0 l 1
 -37 149 l 1
 20 206 l 1
 20 1323 l 1
 20 1323 15 1496 -5 1591 c 1
 8 1570 55 1522 93 1488 c 1
 125 1526 169 1566 228 1594 c 1
387 644 m 1
 358 681 325 746 308 770 c 1
 294 758 240 724 211 700 c 1
 211 512 l 1
 250 533 295 555 330 591 c 2
 387 644 l 1
EndSplineSet
Validated: 1
EndChar

StartChar: l
Encoding: 108 108 37
Width: 432
VWidth: 0
Flags: HW
LayerCount: 2
UndoRedoHistory
Layer: 1
Undoes
UndoOperation
Index: 0
Type: 1
WasModified: 0
WasOrder2: 0
Layer: 2
Width: 432
VWidth: 0
LBearingChange: 0
UnicodeEnc: 0
InstructionsLength: 0
SplineSet
328 1606 m 6
 310 1416 l 5
 310 302 l 5
 404 210 l 5
 212 18 l 5
 22 210 l 5
 120 308 l 5
 120 1370 l 5
 120 1370 116 1506 96 1604 c 5
 110 1582 156 1532 194 1498 c 5
 226 1538 270 1578 328 1606 c 6
EndSplineSet
EndUndoOperation
EndUndoes
Redoes
EndRedoes
EndUndoRedoHistory
Fore
SplineSet
328 1606 m 6
 310 1416 l 5
 310 302 l 5
 404 210 l 5
 212 18 l 5
 22 210 l 5
 120 308 l 5
 120 1370 l 5
 120 1370 116 1506 96 1604 c 5
 110 1582 156 1532 194 1498 c 5
 226 1538 270 1578 328 1606 c 6
EndSplineSet
Validated: 1
EndChar

StartChar: m
Encoding: 109 109 38
Width: 948
VWidth: 0
Flags: HW
LayerCount: 2
UndoRedoHistory
Layer: 1
Undoes
UndoOperation
Index: 0
Type: 1
WasModified: 0
WasOrder2: 0
Layer: 2
Width: 948
VWidth: 0
LBearingChange: 0
UnicodeEnc: 0
InstructionsLength: 0
SplineSet
334 963 m 1
 389 909 458 862 524 822 c 1
 570 871 622 923 668 963 c 1
 706 926 843 809 925 798 c 1
 902 767 897 724 897 677 c 0
 897 641 900 604 900 568 c 0
 900 532 901 347 902 223 c 1
 970 155 l 1
 814 0 l 1
 659 155 l 1
 721 218 l 1
 721 308 722 436 722 527 c 0
 722 572 722 608 721 625 c 1
 657 663 630 690 576 717 c 1
 575 687 575 648 575 607 c 0
 575 514 576 407 576 341 c 0
 576 324 576 310 576 299 c 0
 576 287 576 252 576 219 c 1
 639 155 l 1
 484 0 l 1
 329 155 l 1
 388 215 l 1
 388 304 389 433 389 525 c 0
 389 571 389 608 388 625 c 1
 324 663 302 690 248 717 c 1
 247 651 246 540 246 430 c 0
 246 352 247 275 247 214 c 1
 306 155 l 1
 151 0 l 1
 -5 155 l 1
 59 220 l 1
 59 308 58 416 58 460 c 0
 58 468 58 477 58 486 c 0
 58 520 59 555 59 591 c 0
 59 607 59 624 58 640 c 1
 20 640 -3 614 -54 591 c 1
 26 697 200 846 334 963 c 1
EndSplineSet
EndUndoOperation
EndUndoes
Redoes
EndRedoes
EndUndoRedoHistory
Fore
SplineSet
334 963 m 1
 389 909 458 862 524 822 c 1
 570 871 622 923 668 963 c 1
 706 926 843 809 925 798 c 1
 902 767 897 724 897 677 c 0
 897 641 900 604 900 568 c 0
 900 532 901 347 902 223 c 1
 970 155 l 1
 814 0 l 1
 659 155 l 1
 721 218 l 1
 721 308 722 436 722 527 c 0
 722 572 722 608 721 625 c 1
 657 663 630 690 576 717 c 1
 575 687 575 648 575 607 c 0
 575 514 576 407 576 341 c 0
 576 324 576 310 576 299 c 0
 576 287 576 252 576 219 c 1
 639 155 l 1
 484 0 l 1
 329 155 l 1
 388 215 l 1
 388 304 389 433 389 525 c 0
 389 571 389 608 388 625 c 1
 324 663 302 690 248 717 c 1
 247 651 246 540 246 430 c 0
 246 352 247 275 247 214 c 1
 306 155 l 1
 151 0 l 1
 -5 155 l 1
 59 220 l 1
 59 308 58 416 58 460 c 0
 58 468 58 477 58 486 c 0
 58 520 59 555 59 591 c 0
 59 607 59 624 58 640 c 1
 20 640 -3 614 -54 591 c 1
 26 697 200 846 334 963 c 1
EndSplineSet
Validated: 1
EndChar

StartChar: n
Encoding: 110 110 39
Width: 710
VWidth: 0
Flags: HW
LayerCount: 2
UndoRedoHistory
Layer: 1
Undoes
UndoOperation
Index: 0
Type: 1
WasModified: 0
WasOrder2: 0
Layer: 2
Width: 710
VWidth: 0
LBearingChange: 0
UnicodeEnc: 0
InstructionsLength: 0
SplineSet
374 977 m 5
 452 903 557 847 657 812 c 5
 634 781 629 737 629 691 c 0
 629 656 632 619 632 583 c 4
 632 548 632 361 633 228 c 5
 702 160 l 5
 542 0 l 5
 382 160 l 5
 453 230 l 5
 454 313 454 421 454 506 c 0
 454 569 454 619 453 640 c 5
 389 678 341 705 287 732 c 5
 286 686 286 618 286 541 c 0
 286 436 286 318 287 226 c 5
 353 160 l 5
 193 0 l 5
 33 160 l 5
 99 226 l 5
 99 321 97 433 97 475 c 4
 97 483 97 492 97 501 c 0
 97 535 98 570 98 606 c 0
 98 622 98 639 97 655 c 5
 59 655 37 629 -14 606 c 5
 66 712 240 860 374 977 c 5
EndSplineSet
EndUndoOperation
EndUndoes
Redoes
EndRedoes
EndUndoRedoHistory
Fore
SplineSet
374 977 m 5
 452 903 557 847 657 812 c 5
 634 781 629 737 629 691 c 0
 629 656 632 619 632 583 c 4
 632 548 632 361 633 228 c 5
 702 160 l 5
 542 0 l 5
 382 160 l 5
 453 230 l 5
 454 313 454 421 454 506 c 0
 454 569 454 619 453 640 c 5
 389 678 341 705 287 732 c 5
 286 686 286 618 286 541 c 0
 286 436 286 318 287 226 c 5
 353 160 l 5
 193 0 l 5
 33 160 l 5
 99 226 l 5
 99 321 97 433 97 475 c 4
 97 483 97 492 97 501 c 0
 97 535 98 570 98 606 c 0
 98 622 98 639 97 655 c 5
 59 655 37 629 -14 606 c 5
 66 712 240 860 374 977 c 5
EndSplineSet
Validated: 1
EndChar

StartChar: o
Encoding: 111 111 40
Width: 622
VWidth: 0
Flags: HW
HStem: 0 42G<216 303> 914 40G<243 329>
VStem: 34 188<267 632> 390 178<386 643>
LayerCount: 2
UndoRedoHistory
Layer: 1
Undoes
UndoOperation
Index: 0
Type: 1
WasModified: 0
WasOrder2: 0
Layer: 2
Width: 622
VWidth: 0
LBearingChange: 0
UnicodeEnc: 0
InstructionsLength: 0
SplineSet
-78 584 m 5
 2 690 176 838 310 954 c 4
 348 916 510 802 592 790 c 5
 568 758 564 714 564 668 c 0
 564 632 568 596 568 560 c 4
 568 556 568 552 568 546 c 0
 568 498 570 438 572 386 c 5
 584 388 604 380 630 386 c 5
 544 268 364 100 242 0 c 4
 190 16 4 108 -64 150 c 5
 -34 184 10 222 34 266 c 4
 36 290 36 312 36 334 c 0
 36 374 34 410 34 452 c 4
 34 462 34 472 34 482 c 0
 34 516 34 550 34 586 c 0
 34 590 34 632 32 632 c 0
 -6 632 -28 606 -78 584 c 5
390 618 m 4
 326 656 278 684 224 710 c 5
 224 662 222 608 222 552 c 0
 222 452 224 348 224 278 c 4
 264 258 344 240 390 222 c 5
 390 230 388 242 388 258 c 0
 388 322 390 440 390 528 c 0
 390 566 390 600 390 618 c 4
EndSplineSet
EndUndoOperation
EndUndoes
Redoes
EndRedoes
EndUndoRedoHistory
Fore
SplineSet
-78 584 m 5
 2 690 176 838 310 954 c 4
 348 916 510 802 592 790 c 5
 568 758 564 714 564 668 c 0
 564 632 568 596 568 560 c 4
 568 556 568 552 568 546 c 0
 568 498 570 438 572 386 c 5
 584 388 604 380 630 386 c 5
 544 268 364 100 242 0 c 4
 190 16 4 108 -64 150 c 5
 -34 184 10 222 34 266 c 4
 36 290 36 312 36 334 c 0
 36 374 34 410 34 452 c 4
 34 462 34 472 34 482 c 0
 34 516 34 550 34 586 c 0
 34 590 34 632 32 632 c 0
 -6 632 -28 606 -78 584 c 5
390 618 m 4
 326 656 278 684 224 710 c 5
 224 662 222 608 222 552 c 0
 222 452 224 348 224 278 c 4
 264 258 344 240 390 222 c 5
 390 230 388 242 388 258 c 0
 388 322 390 440 390 528 c 0
 390 566 390 600 390 618 c 4
EndSplineSet
Validated: 1
EndChar

StartChar: p
Encoding: 112 112 41
Width: 606
VWidth: 0
Flags: HW
LayerCount: 2
UndoRedoHistory
Layer: 1
Undoes
UndoOperation
Index: 0
Type: 1
WasModified: 0
WasOrder2: 0
Layer: 2
Width: 606
VWidth: 0
LBearingChange: 0
UnicodeEnc: 0
InstructionsLength: 0
SplineSet
306 960 m 0
 344 922 506 806 588 794 c 1
 564 762 560 720 560 674 c 0
 560 638 564 602 564 566 c 0
 564 562 564 556 564 550 c 0
 564 502 566 442 568 390 c 1
 580 392 600 384 626 390 c 1
 540 272 360 104 238 4 c 0
 232 6 224 10 214 14 c 2
 214 -68 l 1
 314 -168 l 1
 124 -360 l 1
 -68 -168 l 1
 38 -62 l 1
 38 96 l 2
 -4 118 -44 138 -68 154 c 1
 -38 188 6 226 30 270 c 0
 31 278 31 285 31 293 c 0
 31 308 30 323 30 338 c 0
 30 378 30 414 30 456 c 0
 30 466 30 476 30 486 c 0
 30 520 30 554 30 590 c 0
 30 594 30 636 28 636 c 0
 -10 636 -32 610 -82 588 c 1
 -2 694 172 844 306 960 c 0
218 714 m 1
 218 666 218 612 218 556 c 0
 218 456 218 354 218 284 c 0
 258 264 338 244 384 226 c 1
 384 234 384 246 384 262 c 0
 384 326 386 444 386 532 c 0
 386 570 384 604 384 622 c 0
 320 660 272 688 218 714 c 1
EndSplineSet
EndUndoOperation
EndUndoes
Redoes
EndRedoes
EndUndoRedoHistory
Fore
SplineSet
306 960 m 0
 344 922 506 806 588 794 c 1
 564 762 560 720 560 674 c 0
 560 638 564 602 564 566 c 0
 564 562 564 556 564 550 c 0
 564 502 566 442 568 390 c 1
 580 392 600 384 626 390 c 1
 540 272 360 104 238 4 c 0
 232 6 224 10 214 14 c 2
 214 -68 l 1
 314 -168 l 1
 124 -360 l 1
 -68 -168 l 1
 38 -62 l 1
 38 96 l 2
 -4 118 -44 138 -68 154 c 1
 -38 188 6 226 30 270 c 0
 31 278 31 285 31 293 c 0
 31 308 30 323 30 338 c 0
 30 378 30 414 30 456 c 0
 30 466 30 476 30 486 c 0
 30 520 30 554 30 590 c 0
 30 594 30 636 28 636 c 0
 -10 636 -32 610 -82 588 c 1
 -2 694 172 844 306 960 c 0
218 714 m 1
 218 666 218 612 218 556 c 0
 218 456 218 354 218 284 c 0
 258 264 338 244 384 226 c 1
 384 234 384 246 384 262 c 0
 384 326 386 444 386 532 c 0
 386 570 384 604 384 622 c 0
 320 660 272 688 218 714 c 1
EndSplineSet
Validated: 1
EndChar

StartChar: q
Encoding: 113 113 42
Width: 760
VWidth: 0
Flags: HW
LayerCount: 2
UndoRedoHistory
Layer: 1
Undoes
UndoOperation
Index: 0
Type: 1
WasModified: 0
WasOrder2: 0
Layer: 2
Width: 760
VWidth: 0
LBearingChange: 0
UnicodeEnc: 0
InstructionsLength: 0
SplineSet
376 964 m 0
 414 926 578 812 660 800 c 1
 638 770 632 678 632 604 c 0
 632 544 634 494 634 494 c 2
 634 462 636 428 638 396 c 1
 650 398 670 388 696 394 c 1
 678 370 658 346 634 320 c 2
 634 -74 l 1
 734 -174 l 1
 544 -364 l 1
 352 -174 l 1
 454 -72 l 1
 454 136 l 2
 402 88 352 46 308 10 c 0
 256 26 70 118 2 160 c 1
 32 194 76 232 100 276 c 0
 102 300 102 322 102 344 c 0
 102 384 100 420 100 462 c 0
 100 472 100 482 100 492 c 0
 100 526 100 560 100 596 c 0
 100 600 102 642 100 642 c 0
 62 642 38 616 -12 594 c 1
 68 700 242 848 376 964 c 0
290 718 m 2
 290 718 l 1
 290 670 288 616 288 560 c 0
 288 460 290 358 290 288 c 0
 330 268 406 250 454 232 c 2
 456 558 l 2
 456 586 456 614 456 628 c 0
 392 666 344 692 290 718 c 2
EndSplineSet
EndUndoOperation
EndUndoes
Redoes
EndRedoes
EndUndoRedoHistory
Fore
SplineSet
376 964 m 0
 414 926 578 812 660 800 c 1
 638 770 632 678 632 604 c 0
 632 544 634 494 634 494 c 2
 634 462 636 428 638 396 c 1
 650 398 670 388 696 394 c 1
 678 370 658 346 634 320 c 2
 634 -74 l 1
 734 -174 l 1
 544 -364 l 1
 352 -174 l 1
 454 -72 l 1
 454 136 l 2
 402 88 352 46 308 10 c 0
 256 26 70 118 2 160 c 1
 32 194 76 232 100 276 c 0
 102 300 102 322 102 344 c 0
 102 384 100 420 100 462 c 0
 100 472 100 482 100 492 c 0
 100 526 100 560 100 596 c 0
 100 600 102 642 100 642 c 0
 62 642 38 616 -12 594 c 1
 68 700 242 848 376 964 c 0
290 718 m 2
 290 718 l 1
 290 670 288 616 288 560 c 0
 288 460 290 358 290 288 c 0
 330 268 406 250 454 232 c 2
 456 558 l 2
 456 586 456 614 456 628 c 0
 392 666 344 692 290 718 c 2
EndSplineSet
Validated: 1
EndChar

StartChar: r
Encoding: 114 114 43
Width: 590
VWidth: 0
Flags: HW
LayerCount: 2
UndoRedoHistory
Layer: 1
Undoes
UndoOperation
Index: 0
Type: 1
WasModified: 0
WasOrder2: 0
Layer: 2
Width: 590
VWidth: 0
LBearingChange: 0
UnicodeEnc: 0
InstructionsLength: 0
SplineSet
352 970 m 0
 390 932 542 810 666 790 c 1
 600 738 510 678 476 596 c 1
 436 646 320 698 266 724 c 1
 266 674 264 606 264 532 c 0
 264 444 266 350 266 272 c 2
 346 190 l 1
 156 0 l 1
 -36 190 l 1
 78 304 l 2
 78 368 76 434 76 468 c 0
 76 478 76 490 76 504 c 0
 76 552 76 620 76 676 c 0
 76 700 76 720 76 736 c 0
 50 736 32 750 4 750 c 0
 -8 750 -22 746 -36 740 c 1
 60 826 218 854 352 970 c 0
EndSplineSet
EndUndoOperation
EndUndoes
Redoes
EndRedoes
EndUndoRedoHistory
Fore
SplineSet
352 970 m 0
 390 932 542 810 666 790 c 1
 600 738 510 678 476 596 c 1
 436 646 320 698 266 724 c 1
 266 674 264 606 264 532 c 0
 264 444 266 350 266 272 c 2
 346 190 l 1
 156 0 l 1
 -36 190 l 1
 78 304 l 2
 78 368 76 434 76 468 c 0
 76 478 76 490 76 504 c 0
 76 552 76 620 76 676 c 0
 76 700 76 720 76 736 c 0
 50 736 32 750 4 750 c 0
 -8 750 -22 746 -36 740 c 1
 60 826 218 854 352 970 c 0
EndSplineSet
Validated: 1
EndChar

StartChar: s
Encoding: 115 115 44
Width: 622
VWidth: 0
Flags: HW
LayerCount: 2
UndoRedoHistory
Layer: 1
Undoes
UndoOperation
Index: 0
Type: 1
WasModified: 0
WasOrder2: 0
Layer: 2
Width: 622
VWidth: 0
LBearingChange: 0
UnicodeEnc: 0
InstructionsLength: 0
SplineSet
368 932 m 4
 438 894 474 878 516 878 c 0
 556 878 600 892 678 914 c 5
 584 840 436 744 306 718 c 4
 304 718 300 718 298 718 c 0
 266 718 234 738 204 756 c 4
 186 746 172 740 166 734 c 6
 164 584 l 5
 164 584 472 596 526 640 c 5
 512 614 506 574 506 530 c 0
 506 428 534 306 534 306 c 6
 498 210 284 60 196 4 c 6
 196 4 196 8 196 14 c 0
 196 46 178 138 -50 138 c 0
 -72 138 -94 138 -118 136 c 5
 -32 226 26 258 90 258 c 0
 152 258 218 228 316 198 c 5
 308 464 l 6
 282 476 256 480 226 480 c 0
 132 480 20 436 -62 430 c 5
 -14 500 0 560 0 612 c 0
 0 652 -8 688 -14 720 c 6
 -72 718 l 5
 -72 718 116 772 228 840 c 4
 274 870 322 902 368 932 c 4
EndSplineSet
EndUndoOperation
EndUndoes
Redoes
EndRedoes
EndUndoRedoHistory
Fore
SplineSet
368 932 m 4
 438 894 474 878 516 878 c 0
 556 878 600 892 678 914 c 5
 584 840 436 744 306 718 c 4
 304 718 300 718 298 718 c 0
 266 718 234 738 204 756 c 4
 186 746 172 740 166 734 c 6
 164 584 l 5
 164 584 472 596 526 640 c 5
 512 614 506 574 506 530 c 0
 506 428 534 306 534 306 c 6
 498 210 284 60 196 4 c 6
 196 4 196 8 196 14 c 0
 196 46 178 138 -50 138 c 0
 -72 138 -94 138 -118 136 c 5
 -32 226 26 258 90 258 c 0
 152 258 218 228 316 198 c 5
 308 464 l 6
 282 476 256 480 226 480 c 0
 132 480 20 436 -62 430 c 5
 -14 500 0 560 0 612 c 0
 0 652 -8 688 -14 720 c 6
 -72 718 l 5
 -72 718 116 772 228 840 c 4
 274 870 322 902 368 932 c 4
EndSplineSet
Validated: 1
EndChar

StartChar: t
Encoding: 116 116 45
Width: 530
VWidth: 0
Flags: HW
LayerCount: 2
UndoRedoHistory
Layer: 1
Undoes
UndoOperation
Index: 0
Type: 1
WasModified: 0
WasOrder2: 0
Layer: 2
Width: 530
VWidth: 0
LBearingChange: 0
UnicodeEnc: 0
InstructionsLength: 0
SplineSet
402 871 m 5
 413 833 485 866 536 828 c 5
 471 795 424 740 333 695 c 5
 332 646 332 595 332 543 c 0
 332 440 333 337 333 260 c 5
 376 237 520 186 520 186 c 5
 454 137 381 74 354 0 c 5
 298 18 96 116 22 163 c 5
 54 199 101 240 127 289 c 5
 128 313 129 336 129 358 c 0
 129 402 127 444 127 491 c 4
 127 500 127 510 127 519 c 0
 127 556 128 594 128 633 c 0
 128 650 128 668 127 686 c 5
 86 686 62 658 6 633 c 5
 49 690 104 763 158 831 c 5
 160 870 159 848 159 894 c 5
 159 894 307 1001 343 1033 c 5
 351 983 346 873 402 871 c 5
EndSplineSet
EndUndoOperation
EndUndoes
Redoes
EndRedoes
EndUndoRedoHistory
Fore
SplineSet
402 871 m 5
 413 833 485 866 536 828 c 5
 471 795 424 740 333 695 c 5
 332 646 332 595 332 543 c 0
 332 440 333 337 333 260 c 5
 376 237 520 186 520 186 c 5
 454 137 381 74 354 0 c 5
 298 18 96 116 22 163 c 5
 54 199 101 240 127 289 c 5
 128 313 129 336 129 358 c 0
 129 402 127 444 127 491 c 4
 127 500 127 510 127 519 c 0
 127 556 128 594 128 633 c 0
 128 650 128 668 127 686 c 5
 86 686 62 658 6 633 c 5
 49 690 104 763 158 831 c 5
 160 870 159 848 159 894 c 5
 159 894 307 1001 343 1033 c 5
 351 983 346 873 402 871 c 5
EndSplineSet
Validated: 1
EndChar

StartChar: u
Encoding: 117 117 46
Width: 644
VWidth: 0
Flags: HW
LayerCount: 2
UndoRedoHistory
Layer: 1
Undoes
UndoOperation
Index: 0
Type: 1
WasModified: 0
WasOrder2: 0
Layer: 2
Width: 644
VWidth: 0
LBearingChange: 0
UnicodeEnc: 0
InstructionsLength: 0
SplineSet
110 876 m 1
 282 706 l 1
 214 644 l 1
 214 270 l 1
 256 224 284 166 362 166 c 0
 372 166 382 168 392 170 c 1
 392 628 l 1
 316 706 l 1
 486 876 l 1
 658 706 l 1
 602 650 l 1
 602 650 598 538 598 412 c 0
 598 350 600 282 602 224 c 1
 618 198 648 174 680 174 c 0
 688 174 696 176 704 180 c 1
 672 96 544 -16 494 -16 c 0
 492 -16 l 0
 442 -14 432 12 414 32 c 1
 392 20 360 2 326 -12 c 1
 324 -12 322 -12 320 -12 c 0
 210 -12 96 66 -78 116 c 1
 -50 136 -24 158 4 218 c 1
 4 268 2 330 2 392 c 0
 2 518 4 638 4 642 c 2
 -60 706 l 1
 110 876 l 1
EndSplineSet
EndUndoOperation
EndUndoes
Redoes
EndRedoes
EndUndoRedoHistory
Fore
SplineSet
110 876 m 1
 282 706 l 1
 214 644 l 1
 214 270 l 1
 256 224 284 166 362 166 c 0
 372 166 382 168 392 170 c 1
 392 628 l 1
 316 706 l 1
 486 876 l 1
 658 706 l 1
 602 650 l 1
 602 650 598 538 598 412 c 0
 598 350 600 282 602 224 c 1
 618 198 648 174 680 174 c 0
 688 174 696 176 704 180 c 1
 672 96 544 -16 494 -16 c 0
 492 -16 l 0
 442 -14 432 12 414 32 c 1
 392 20 360 2 326 -12 c 1
 324 -12 322 -12 320 -12 c 0
 210 -12 96 66 -78 116 c 1
 -50 136 -24 158 4 218 c 1
 4 268 2 330 2 392 c 0
 2 518 4 638 4 642 c 2
 -60 706 l 1
 110 876 l 1
EndSplineSet
Validated: 1
EndChar

StartChar: v
Encoding: 118 118 47
Width: 632
VWidth: 0
Flags: HW
LayerCount: 2
UndoRedoHistory
Layer: 1
Undoes
UndoOperation
Index: 0
Type: 1
WasModified: 0
WasOrder2: 0
Layer: 2
Width: 632
VWidth: 0
LBearingChange: 0
UnicodeEnc: 0
InstructionsLength: 0
SplineSet
144 954 m 1
 308 790 l 1
 242 724 l 1
 242 260 l 2
 286 228 308 208 330 208 c 0
 350 208 368 226 400 268 c 0
 408 282 412 336 412 402 c 0
 412 534 400 712 400 712 c 1
 322 790 l 1
 486 954 l 1
 650 790 l 1
 560 700 l 1
 560 644 560 588 560 534 c 0
 560 334 540 160 332 38 c 2
 174 -2 l 2
 124 54 52 100 -36 100 c 0
 -44 100 -52 98 -60 98 c 2
 -60 98 32 228 56 228 c 0
 64 228 66 298 66 388 c 0
 66 496 64 636 60 712 c 2
 -20 790 l 1
 144 954 l 1
EndSplineSet
EndUndoOperation
EndUndoes
Redoes
EndRedoes
EndUndoRedoHistory
Fore
SplineSet
144 954 m 1
 308 790 l 1
 242 724 l 1
 242 260 l 2
 286 228 308 208 330 208 c 0
 350 208 368 226 400 268 c 0
 408 282 412 336 412 402 c 0
 412 534 400 712 400 712 c 1
 322 790 l 1
 486 954 l 1
 650 790 l 1
 560 700 l 1
 560 644 560 588 560 534 c 0
 560 334 540 160 332 38 c 2
 174 -2 l 2
 124 54 52 100 -36 100 c 0
 -44 100 -52 98 -60 98 c 2
 -60 98 32 228 56 228 c 0
 64 228 66 298 66 388 c 0
 66 496 64 636 60 712 c 2
 -20 790 l 1
 144 954 l 1
EndSplineSet
Validated: 1
EndChar

StartChar: w
Encoding: 119 119 48
Width: 1092
VWidth: 0
Flags: HW
LayerCount: 2
UndoRedoHistory
Layer: 1
Undoes
UndoOperation
Index: 0
Type: 1
WasModified: 0
WasOrder2: 0
Layer: 2
Width: 1092
VWidth: 0
LBearingChange: 0
UnicodeEnc: 0
InstructionsLength: 0
SplineSet
208 968 m 1
 358 818 l 1
 304 764 l 2
 304 718 304 660 304 600 c 0
 304 478 304 346 304 278 c 0
 338 260 400 246 446 230 c 0
 456 244 470 260 470 280 c 0
 470 310 470 358 470 412 c 0
 470 524 470 666 470 752 c 2
 404 818 l 1
 556 968 l 1
 706 818 l 1
 654 766 l 2
 654 706 654 598 654 492 c 0
 654 410 654 330 654 278 c 0
 694 258 780 240 826 222 c 1
 826 230 824 246 824 270 c 0
 824 360 826 550 826 676 c 0
 826 704 826 730 826 750 c 2
 758 818 l 1
 908 968 l 1
 1060 818 l 1
 1004 762 l 2
 1004 682 1006 440 1008 386 c 1
 1020 388 1040 380 1066 386 c 1
 980 268 800 100 678 0 c 0
 640 12 530 64 446 108 c 0
 406 70 366 34 324 0 c 0
 272 16 86 108 18 150 c 1
 48 184 92 222 116 266 c 0
 117 274 117 281 117 289 c 0
 117 304 116 319 116 334 c 0
 116 374 116 410 116 452 c 0
 116 462 116 476 116 494 c 0
 116 554 116 652 116 722 c 0
 116 736 116 748 116 758 c 2
 56 818 l 1
 208 968 l 1
EndSplineSet
EndUndoOperation
EndUndoes
Redoes
EndRedoes
EndUndoRedoHistory
Fore
SplineSet
208 968 m 1
 358 818 l 1
 304 764 l 2
 304 718 304 660 304 600 c 0
 304 478 304 346 304 278 c 0
 338 260 400 246 446 230 c 0
 456 244 470 260 470 280 c 0
 470 310 470 358 470 412 c 0
 470 524 470 666 470 752 c 2
 404 818 l 1
 556 968 l 1
 706 818 l 1
 654 766 l 2
 654 706 654 598 654 492 c 0
 654 410 654 330 654 278 c 0
 694 258 780 240 826 222 c 1
 826 230 824 246 824 270 c 0
 824 360 826 550 826 676 c 0
 826 704 826 730 826 750 c 2
 758 818 l 1
 908 968 l 1
 1060 818 l 1
 1004 762 l 2
 1004 682 1006 440 1008 386 c 1
 1020 388 1040 380 1066 386 c 1
 980 268 800 100 678 0 c 0
 640 12 530 64 446 108 c 0
 406 70 366 34 324 0 c 0
 272 16 86 108 18 150 c 1
 48 184 92 222 116 266 c 0
 117 274 117 281 117 289 c 0
 117 304 116 319 116 334 c 0
 116 374 116 410 116 452 c 0
 116 462 116 476 116 494 c 0
 116 554 116 652 116 722 c 0
 116 736 116 748 116 758 c 2
 56 818 l 1
 208 968 l 1
EndSplineSet
Validated: 1
EndChar

StartChar: x
Encoding: 120 120 49
Width: 966
VWidth: 0
Flags: HW
HStem: 2 42G<706 764> 852 40G<137 221 643 727>
LayerCount: 2
UndoRedoHistory
Layer: 1
Undoes
UndoOperation
Index: 0
Type: 1
WasModified: 0
WasOrder2: 0
Layer: 2
Width: 966
VWidth: 0
LBearingChange: 0
UnicodeEnc: 0
InstructionsLength: 0
SplineSet
176 892 m 1
 266 844 286 822 322 822 c 0
 346 822 374 832 434 850 c 1
 404 818 374 788 342 764 c 2
 492 578 l 1
 574 682 l 2
 554 690 532 700 514 716 c 2
 682 890 l 1
 772 842 794 818 830 818 c 0
 854 818 882 828 942 846 c 1
 864 762 782 704 704 682 c 2
 552 502 l 1
 782 218 l 2
 822 216 860 202 894 174 c 2
 724 2 l 2
 688 22 662 38 642 50 c 2
 640 52 l 0
 612 68 598 76 576 76 c 0
 554 76 524 66 466 50 c 1
 500 84 532 114 566 138 c 1
 526 184 486 232 406 326 c 2
 296 196 l 2
 316 188 336 178 354 162 c 2
 184 -8 l 1
 92 44 72 66 36 66 c 0
 14 66 -16 56 -74 40 c 1
 20 136 118 198 206 208 c 2
 208 216 l 1
 348 394 l 1
 240 520 140 638 108 676 c 0
 72 680 38 694 8 718 c 2
 176 892 l 1
EndSplineSet
EndUndoOperation
EndUndoes
Redoes
EndRedoes
EndUndoRedoHistory
Fore
SplineSet
176 892 m 1
 266 844 286 822 322 822 c 0
 346 822 374 832 434 850 c 1
 404 818 374 788 342 764 c 2
 492 578 l 1
 574 682 l 2
 554 690 532 700 514 716 c 2
 682 890 l 1
 772 842 794 818 830 818 c 0
 854 818 882 828 942 846 c 1
 864 762 782 704 704 682 c 2
 552 502 l 1
 782 218 l 2
 822 216 860 202 894 174 c 2
 724 2 l 2
 688 22 662 38 642 50 c 2
 640 52 l 0
 612 68 598 76 576 76 c 0
 554 76 524 66 466 50 c 1
 500 84 532 114 566 138 c 1
 526 184 486 232 406 326 c 2
 296 196 l 2
 316 188 336 178 354 162 c 2
 184 -8 l 1
 92 44 72 66 36 66 c 0
 14 66 -16 56 -74 40 c 1
 20 136 118 198 206 208 c 2
 208 216 l 1
 348 394 l 1
 240 520 140 638 108 676 c 0
 72 680 38 694 8 718 c 2
 176 892 l 1
EndSplineSet
Validated: 1
EndChar

StartChar: y
Encoding: 121 121 50
Width: 736
VWidth: 0
Flags: HW
LayerCount: 2
UndoRedoHistory
Layer: 1
Undoes
UndoOperation
Index: 0
Type: 1
WasModified: 0
WasOrder2: 0
Layer: 2
Width: 736
VWidth: 0
LBearingChange: 0
UnicodeEnc: 0
InstructionsLength: 0
SplineSet
192 934 m 1
 352 774 l 1
 294 714 l 2
 294 666 292 606 292 542 c 0
 292 420 294 286 294 218 c 0
 334 198 414 178 460 160 c 1
 460 168 458 186 458 210 c 0
 458 300 460 482 460 608 c 0
 460 650 460 684 460 708 c 2
 392 774 l 1
 554 934 l 1
 714 774 l 1
 638 698 l 2
 638 610 640 376 642 324 c 1
 654 326 674 318 700 324 c 1
 614 206 434 40 312 -60 c 0
 288 -52 238 -30 184 -4 c 0
 164 -8 152 -24 152 -36 c 0
 152 -48 164 -60 186 -60 c 0
 188 -60 192 -60 194 -60 c 0
 290 -80 388 -84 486 -96 c 0
 524 -108 590 -102 604 -148 c 0
 600 -198 554 -232 522 -266 c 0
 468 -314 416 -366 346 -390 c 0
 342 -386 340 -378 340 -372 c 0
 340 -354 352 -328 352 -308 c 0
 352 -292 344 -278 316 -278 c 0
 314 -278 312 -278 310 -278 c 0
 218 -268 126 -252 34 -236 c 0
 2 -230 -58 -216 -58 -178 c 0
 -58 -172 -58 -166 -54 -158 c 0
 -2 -90 60 -32 120 28 c 1
 74 52 32 74 6 90 c 1
 36 124 80 162 104 206 c 0
 106 230 106 250 106 272 c 0
 106 312 104 350 104 392 c 0
 104 402 104 416 104 434 c 0
 104 494 104 590 104 660 c 0
 104 674 104 688 104 700 c 2
 32 774 l 1
 192 934 l 1
EndSplineSet
EndUndoOperation
EndUndoes
Redoes
EndRedoes
EndUndoRedoHistory
Fore
SplineSet
192 934 m 1
 352 774 l 1
 294 714 l 2
 294 666 292 606 292 542 c 0
 292 420 294 286 294 218 c 0
 334 198 414 178 460 160 c 1
 460 168 458 186 458 210 c 0
 458 300 460 482 460 608 c 0
 460 650 460 684 460 708 c 2
 392 774 l 1
 554 934 l 1
 714 774 l 1
 638 698 l 2
 638 610 640 376 642 324 c 1
 654 326 674 318 700 324 c 1
 614 206 434 40 312 -60 c 0
 288 -52 238 -30 184 -4 c 0
 164 -8 152 -24 152 -36 c 0
 152 -48 164 -60 186 -60 c 0
 188 -60 192 -60 194 -60 c 0
 290 -80 388 -84 486 -96 c 0
 524 -108 590 -102 604 -148 c 0
 600 -198 554 -232 522 -266 c 0
 468 -314 416 -366 346 -390 c 0
 342 -386 340 -378 340 -372 c 0
 340 -354 352 -328 352 -308 c 0
 352 -292 344 -278 316 -278 c 0
 314 -278 312 -278 310 -278 c 0
 218 -268 126 -252 34 -236 c 0
 2 -230 -58 -216 -58 -178 c 0
 -58 -172 -58 -166 -54 -158 c 0
 -2 -90 60 -32 120 28 c 1
 74 52 32 74 6 90 c 1
 36 124 80 162 104 206 c 0
 106 230 106 250 106 272 c 0
 106 312 104 350 104 392 c 0
 104 402 104 416 104 434 c 0
 104 494 104 590 104 660 c 0
 104 674 104 688 104 700 c 2
 32 774 l 1
 192 934 l 1
EndSplineSet
Validated: 1
EndChar

StartChar: z
Encoding: 122 122 51
Width: 872
VWidth: 0
Flags: HW
LayerCount: 2
UndoRedoHistory
Layer: 1
Undoes
UndoOperation
Index: 0
Type: 1
WasModified: 0
WasOrder2: 0
Layer: 2
Width: 872
VWidth: 0
LBearingChange: 0
UnicodeEnc: 0
InstructionsLength: 0
SplineSet
590 928 m 0
 596 928 600 928 606 928 c 0
 680 928 760 922 848 922 c 2
 550 516 l 1
 654 516 l 1
 592 438 l 1
 490 438 l 1
 292 210 l 1
 292 210 448 202 606 202 c 0
 686 202 766 204 828 210 c 1
 734 28 628 -8 434 -8 c 0
 328 -8 196 4 26 8 c 1
 358 438 l 1
 214 438 l 1
 266 516 l 1
 420 516 l 1
 594 742 l 2
 561 741 529 741 497 741 c 0
 486 741 475 741 464 741 c 0
 359 741 253 739 130 702 c 1
 258 880 418 926 590 928 c 0
EndSplineSet
EndUndoOperation
EndUndoes
Redoes
EndRedoes
EndUndoRedoHistory
Fore
SplineSet
590 928 m 0
 596 928 600 928 606 928 c 0
 680 928 760 922 848 922 c 2
 550 516 l 1
 654 516 l 1
 592 438 l 1
 490 438 l 1
 292 210 l 1
 292 210 448 202 606 202 c 0
 686 202 766 204 828 210 c 1
 734 28 628 -8 434 -8 c 0
 328 -8 196 4 26 8 c 1
 358 438 l 1
 214 438 l 1
 266 516 l 1
 420 516 l 1
 594 742 l 2
 561 741 529 741 497 741 c 0
 486 741 475 741 464 741 c 0
 359 741 253 739 130 702 c 1
 258 880 418 926 590 928 c 0
EndSplineSet
Validated: 1
EndChar

StartChar: comma
Encoding: 44 44 53
Width: 304
VWidth: 0
Flags: HW
LayerCount: 2
UndoRedoHistory
Layer: 1
Undoes
UndoOperation
Index: 0
Type: 1
WasModified: 0
WasOrder2: 0
Layer: 2
Width: 304
VWidth: 0
LBearingChange: 0
UnicodeEnc: 0
InstructionsLength: 0
SplineSet
48 102 m 0
 60 138 178 270 210 270 c 0
 212 270 l 0
 246 264 276 214 276 184 c 0
 276 76 206 -52 138 -116 c 2
 98 -156 l 2
 90 -164 80 -170 68 -164 c 0
 56 -158 56 -148 60 -136 c 0
 76 -86 106 -36 106 10 c 0
 106 22 104 34 100 44 c 0
 90 70 46 66 46 92 c 0
 46 94 46 98 48 102 c 0
EndSplineSet
EndUndoOperation
EndUndoes
Redoes
EndRedoes
EndUndoRedoHistory
Fore
SplineSet
48 102 m 0
 60 138 178 270 210 270 c 0
 212 270 l 0
 246 264 276 214 276 184 c 0
 276 76 206 -52 138 -116 c 2
 98 -156 l 2
 90 -164 80 -170 68 -164 c 0
 56 -158 56 -148 60 -136 c 0
 76 -86 106 -36 106 10 c 0
 106 22 104 34 100 44 c 0
 90 70 46 66 46 92 c 0
 46 94 46 98 48 102 c 0
EndSplineSet
Validated: 1
EndChar

StartChar: period
Encoding: 46 46 54
Width: 690
VWidth: 0
Flags: HW
HStem: 0 354
VStem: 54 332
LayerCount: 2
UndoRedoHistory
Layer: 1
Undoes
UndoOperation
Index: 0
Type: 1
WasModified: 0
WasOrder2: 0
Layer: 2
Width: 690
VWidth: 0
LBearingChange: 0
UnicodeEnc: 0
InstructionsLength: 0
SplineSet
190 332 m 2
 210 354 l 0
 216 354 386 174 386 174 c 1
 210 0 l 1
 54 174 l 1
 190 332 l 2
EndSplineSet
EndUndoOperation
EndUndoes
Redoes
EndRedoes
EndUndoRedoHistory
Fore
SplineSet
190 332 m 2
 210 354 l 0
 216 354 386 174 386 174 c 1
 210 0 l 1
 54 174 l 1
 190 332 l 2
EndSplineSet
Validated: 1
EndChar

StartChar: quotesingle
Encoding: 39 39 55
Width: 224
VWidth: 0
Flags: HW
LayerCount: 2
UndoRedoHistory
Layer: 1
Undoes
UndoOperation
Index: 0
Type: 1
WasModified: 0
WasOrder2: 0
Layer: 2
Width: 224
VWidth: 0
LBearingChange: 0
UnicodeEnc: 0
InstructionsLength: 0
SplineSet
196 1578 m 1
 194 1182 l 1
 8 1078 l 1
 18 1490 l 1
 196 1578 l 1
EndSplineSet
EndUndoOperation
EndUndoes
Redoes
EndRedoes
EndUndoRedoHistory
Fore
SplineSet
196 1578 m 1
 194 1182 l 1
 8 1078 l 1
 18 1490 l 1
 196 1578 l 1
EndSplineSet
Validated: 1
EndChar

StartChar: quotedbl
Encoding: 34 34 56
Width: 472
VWidth: 0
Flags: HW
LayerCount: 2
UndoRedoHistory
Layer: 1
Undoes
UndoOperation
Index: 0
Type: 1
WasModified: 0
WasOrder2: 0
Layer: 2
Width: 472
VWidth: 0
LBearingChange: 0
UnicodeEnc: 0
InstructionsLength: 0
SplineSet
192 1578 m 1
 190 1182 l 1
 4 1078 l 1
 14 1490 l 1
 192 1578 l 1
460 1578 m 1
 458 1182 l 1
 274 1078 l 1
 284 1490 l 1
 460 1578 l 1
EndSplineSet
EndUndoOperation
EndUndoes
Redoes
EndRedoes
EndUndoRedoHistory
Fore
SplineSet
192 1578 m 1
 190 1182 l 1
 4 1078 l 1
 14 1490 l 1
 192 1578 l 1
460 1578 m 1
 458 1182 l 1
 274 1078 l 1
 284 1490 l 1
 460 1578 l 1
EndSplineSet
Validated: 1
EndChar

StartChar: exclam
Encoding: 33 33 57
Width: 432
VWidth: 0
Flags: HW
LayerCount: 2
UndoRedoHistory
Layer: 1
Undoes
UndoOperation
Index: 0
Type: 1
WasModified: 0
WasOrder2: 0
Layer: 2
Width: 432
VWidth: 0
LBearingChange: 0
UnicodeEnc: 0
InstructionsLength: 0
SplineSet
118 1398 m 2
 172 1440 248 1508 308 1558 c 2
 308 728 l 1
 118 560 l 1
 118 1398 l 2
26 212 m 1
 218 402 l 1
 408 212 l 1
 218 20 l 1
 26 212 l 1
EndSplineSet
EndUndoOperation
EndUndoes
Redoes
EndRedoes
EndUndoRedoHistory
Fore
SplineSet
118 1398 m 2
 172 1440 248 1508 308 1558 c 2
 308 728 l 1
 118 560 l 1
 118 1398 l 2
26 212 m 1
 218 402 l 1
 408 212 l 1
 218 20 l 1
 26 212 l 1
EndSplineSet
Validated: 1
EndChar

StartChar: iacute
Encoding: 237 237 60
Width: 408
VWidth: 0
Flags: HW
LayerCount: 2
UndoRedoHistory
Layer: 1
Undoes
UndoOperation
Index: 0
Type: 1
WasModified: 0
WasOrder2: 0
Layer: 2
Width: 408
VWidth: 0
LBearingChange: 0
UnicodeEnc: 0
Refer: 108 128 S 1 0 0 1 -48 -248 2
InstructionsLength: 0
SplineSet
204 920 m 1
 394 730 l 1
 300 634 l 1
 300 286 l 1
 394 190 l 1
 204 0 l 1
 14 190 l 1
 110 288 l 1
 110 634 l 1
 14 730 l 1
 204 920 l 1
EndSplineSet
EndUndoOperation
EndUndoes
Redoes
EndRedoes
EndUndoRedoHistory
Fore
SplineSet
204 920 m 1
 394 730 l 1
 300 634 l 1
 300 286 l 1
 394 190 l 1
 204 0 l 1
 14 190 l 1
 110 288 l 1
 110 634 l 1
 14 730 l 1
 204 920 l 1
EndSplineSet
Refer: 108 128 S 1 0 0 1 -48 -248 2
Validated: 1
EndChar

StartChar: numbersign
Encoding: 35 35 74
Width: 986
VWidth: 0
Flags: HW
LayerCount: 2
UndoRedoHistory
Layer: 1
Undoes
UndoOperation
Index: 0
Type: 1
WasModified: 0
WasOrder2: 0
Layer: 2
Width: 986
VWidth: 0
LBearingChange: 0
UnicodeEnc: 0
InstructionsLength: 0
SplineSet
516 1190 m 1
 550 1180 l 1
 498 1042 l 1
 762 1038 l 1
 820 1190 l 1
 854 1180 l 1
 800 1038 l 1
 986 1034 l 1
 876 830 l 1
 722 832 l 1
 654 652 l 1
 940 648 l 1
 830 444 l 1
 576 448 l 1
 514 280 l 1
 476 278 l 1
 540 448 l 1
 274 450 l 1
 210 280 l 1
 170 278 l 1
 236 452 l 1
 36 454 l 1
 190 658 l 1
 314 656 l 1
 382 838 l 1
 186 840 l 1
 338 1044 l 1
 460 1042 l 1
 516 1190 l 1
420 838 m 1
 352 656 l 1
 616 652 l 1
 684 834 l 1
 420 838 l 1
EndSplineSet
EndUndoOperation
EndUndoes
Redoes
EndRedoes
EndUndoRedoHistory
Fore
SplineSet
516 1190 m 1
 550 1180 l 1
 498 1042 l 1
 762 1038 l 1
 820 1190 l 1
 854 1180 l 1
 800 1038 l 1
 986 1034 l 1
 876 830 l 1
 722 832 l 1
 654 652 l 1
 940 648 l 1
 830 444 l 1
 576 448 l 1
 514 280 l 1
 476 278 l 1
 540 448 l 1
 274 450 l 1
 210 280 l 1
 170 278 l 1
 236 452 l 1
 36 454 l 1
 190 658 l 1
 314 656 l 1
 382 838 l 1
 186 840 l 1
 338 1044 l 1
 460 1042 l 1
 516 1190 l 1
420 838 m 1
 352 656 l 1
 616 652 l 1
 684 834 l 1
 420 838 l 1
EndSplineSet
Validated: 1
EndChar

StartChar: dollar
Encoding: 36 36 75
Width: 680
VWidth: 0
Flags: HW
LayerCount: 2
UndoRedoHistory
Layer: 1
Undoes
UndoOperation
Index: 0
Type: 1
WasModified: 0
WasOrder2: 0
Layer: 2
Width: 680
VWidth: 0
LBearingChange: 0
UnicodeEnc: 0
InstructionsLength: 0
SplineSet
482 1446 m 1
 482 1172 l 2
 540 1140 574 1128 612 1128 c 0
 652 1128 696 1142 774 1164 c 1
 680 1090 532 994 402 968 c 0
 400 968 396 968 394 968 c 0
 362 968 330 988 300 1006 c 0
 282 996 268 988 262 982 c 2
 248 790 l 1
 248 790 562 828 616 872 c 1
 602 848 598 812 598 774 c 0
 598 674 630 554 630 554 c 2
 612 506 550 446 482 390 c 2
 482 160 l 1
 338 28 l 1
 338 282 l 2
 320 270 304 260 292 252 c 2
 292 252 292 256 292 262 c 0
 292 294 274 388 46 388 c 0
 24 388 2 388 -22 386 c 1
 64 476 124 506 188 506 c 0
 250 506 314 478 412 448 c 1
 398 740 l 2
 378 750 356 752 334 752 c 0
 238 752 122 686 34 680 c 1
 82 750 96 810 96 862 c 0
 96 902 88 938 82 970 c 2
 24 968 l 1
 24 968 212 1022 324 1090 c 0
 328 1094 334 1096 338 1100 c 2
 338 1314 l 1
 482 1446 l 1
EndSplineSet
EndUndoOperation
EndUndoes
Redoes
EndRedoes
EndUndoRedoHistory
Fore
SplineSet
482 1446 m 1
 482 1172 l 2
 540 1140 574 1128 612 1128 c 0
 652 1128 696 1142 774 1164 c 1
 680 1090 532 994 402 968 c 0
 400 968 396 968 394 968 c 0
 362 968 330 988 300 1006 c 0
 282 996 268 988 262 982 c 2
 248 790 l 1
 248 790 562 828 616 872 c 1
 602 848 598 812 598 774 c 0
 598 674 630 554 630 554 c 2
 612 506 550 446 482 390 c 2
 482 160 l 1
 338 28 l 1
 338 282 l 2
 320 270 304 260 292 252 c 2
 292 252 292 256 292 262 c 0
 292 294 274 388 46 388 c 0
 24 388 2 388 -22 386 c 1
 64 476 124 506 188 506 c 0
 250 506 314 478 412 448 c 1
 398 740 l 2
 378 750 356 752 334 752 c 0
 238 752 122 686 34 680 c 1
 82 750 96 810 96 862 c 0
 96 902 88 938 82 970 c 2
 24 968 l 1
 24 968 212 1022 324 1090 c 0
 328 1094 334 1096 338 1100 c 2
 338 1314 l 1
 482 1446 l 1
EndSplineSet
Validated: 1
EndChar

StartChar: percent
Encoding: 37 37 76
Width: 890
VWidth: 0
Flags: HW
LayerCount: 2
UndoRedoHistory
Layer: 1
Undoes
UndoOperation
Index: 0
Type: 1
WasModified: 0
WasOrder2: 0
Layer: 2
Width: 890
VWidth: 0
LBearingChange: 0
UnicodeEnc: 0
InstructionsLength: 0
SplineSet
462 302 m 1
 652 492 l 1
 844 302 l 1
 652 110 l 1
 462 302 l 1
18 940 m 1
 208 1130 l 1
 400 940 l 1
 208 748 l 1
 18 940 l 1
712 1118 m 1
 716 1122 l 2
 726 1132 732 1136 736 1136 c 0
 740 1136 742 1132 742 1126 c 0
 742 1112 732 1090 726 1078 c 0
 550 754 400 440 204 88 c 0
 196 70 162 42 142 42 c 0
 132 42 128 48 128 62 c 0
 128 340 528 882 712 1118 c 1
EndSplineSet
EndUndoOperation
EndUndoes
Redoes
EndRedoes
EndUndoRedoHistory
Fore
SplineSet
462 302 m 1
 652 492 l 1
 844 302 l 1
 652 110 l 1
 462 302 l 1
18 940 m 1
 208 1130 l 1
 400 940 l 1
 208 748 l 1
 18 940 l 1
712 1118 m 1
 716 1122 l 2
 726 1132 732 1136 736 1136 c 0
 740 1136 742 1132 742 1126 c 0
 742 1112 732 1090 726 1078 c 0
 550 754 400 440 204 88 c 0
 196 70 162 42 142 42 c 0
 132 42 128 48 128 62 c 0
 128 340 528 882 712 1118 c 1
EndSplineSet
Validated: 1
EndChar

StartChar: ampersand
Encoding: 38 38 77
Width: 986
VWidth: 0
Flags: HW
LayerCount: 2
UndoRedoHistory
Layer: 1
Undoes
UndoOperation
Index: 0
Type: 1
WasModified: 0
WasOrder2: 0
Layer: 2
Width: 986
VWidth: 0
LBearingChange: 0
UnicodeEnc: 0
InstructionsLength: 0
SplineSet
586 1536 m 1
 876 1286 l 1
 500 790 l 1
 696 576 l 1
 822 746 l 2
 816 752 810 756 804 762 c 0
 802 766 796 768 792 768 c 0
 762 768 706 698 672 690 c 1
 678 714 834 904 874 920 c 0
 878 922 882 922 886 922 c 0
 922 922 960 862 990 836 c 0
 1006 826 1020 802 1040 806 c 0
 1066 812 1100 852 1104 856 c 0
 1108 860 1136 884 1142 886 c 1
 1144 878 1126 846 1126 844 c 0
 1112 814 1000 696 980 682 c 0
 966 672 948 662 930 662 c 0
 924 662 916 662 910 666 c 0
 894 674 880 688 866 700 c 2
 746 522 l 1
 998 246 l 1
 1080 220 l 2
 1026 150 978 74 912 0 c 0
 862 26 808 68 750 68 c 0
 734 68 716 64 700 56 c 1
 726 88 744 122 762 160 c 2
 626 312 l 1
 524 192 l 2
 432 104 374 22 246 -6 c 0
 126 82 72 166 -86 252 c 1
 26 434 l 2
 48 426 68 418 86 418 c 0
 96 418 104 422 108 428 c 0
 164 504 256 604 298 672 c 1
 272 702 188 820 160 820 c 0
 146 820 126 812 94 798 c 2
 586 1536 l 1
508 1286 m 1
 352 1028 l 1
 328 988 l 1
 324 982 l 1
 436 862 l 1
 652 1144 l 1
 508 1286 l 1
364 600 m 1
 364 600 190 414 186 372 c 0
 234 306 372 184 402 182 c 0
 438 184 568 376 568 376 c 1
 364 600 l 1
EndSplineSet
EndUndoOperation
EndUndoes
Redoes
EndRedoes
EndUndoRedoHistory
Fore
SplineSet
586 1536 m 1
 876 1286 l 1
 500 790 l 1
 696 576 l 1
 822 746 l 2
 816 752 810 756 804 762 c 0
 802 766 796 768 792 768 c 0
 762 768 706 698 672 690 c 1
 678 714 834 904 874 920 c 0
 878 922 882 922 886 922 c 0
 922 922 960 862 990 836 c 0
 1006 826 1020 802 1040 806 c 0
 1066 812 1100 852 1104 856 c 0
 1108 860 1136 884 1142 886 c 1
 1144 878 1126 846 1126 844 c 0
 1112 814 1000 696 980 682 c 0
 966 672 948 662 930 662 c 0
 924 662 916 662 910 666 c 0
 894 674 880 688 866 700 c 2
 746 522 l 1
 998 246 l 1
 1080 220 l 2
 1026 150 978 74 912 0 c 0
 862 26 808 68 750 68 c 0
 734 68 716 64 700 56 c 1
 726 88 744 122 762 160 c 2
 626 312 l 1
 524 192 l 2
 432 104 374 22 246 -6 c 0
 126 82 72 166 -86 252 c 1
 26 434 l 2
 48 426 68 418 86 418 c 0
 96 418 104 422 108 428 c 0
 164 504 256 604 298 672 c 1
 272 702 188 820 160 820 c 0
 146 820 126 812 94 798 c 2
 586 1536 l 1
508 1286 m 1
 352 1028 l 1
 328 988 l 1
 324 982 l 1
 436 862 l 1
 652 1144 l 1
 508 1286 l 1
364 600 m 1
 364 600 190 414 186 372 c 0
 234 306 372 184 402 182 c 0
 438 184 568 376 568 376 c 1
 364 600 l 1
EndSplineSet
Validated: 1
EndChar

StartChar: one
Encoding: 49 49 78
Width: 954
VWidth: 0
Flags: HW
LayerCount: 2
UndoRedoHistory
Layer: 1
Undoes
UndoOperation
Index: 0
Type: 1
WasModified: 0
WasOrder2: 0
Layer: 2
Width: 954
VWidth: 0
LBearingChange: 0
UnicodeEnc: 0
InstructionsLength: 0
SplineSet
628 1694 m 1
 636 1458 636 1110 636 788 c 0
 636 588 636 396 636 248 c 0
 692 240 752 212 810 164 c 2
 656 -18 l 1
 582 74 512 108 442 108 c 0
 372 108 300 74 222 28 c 1
 278 104 358 176 446 218 c 2
 446 1472 l 1
 384 1446 l 1
 374 1466 l 2
 450 1534 544 1618 628 1694 c 1
EndSplineSet
EndUndoOperation
EndUndoes
Redoes
EndRedoes
EndUndoRedoHistory
Fore
SplineSet
628 1694 m 1
 636 1458 636 1110 636 788 c 0
 636 588 636 396 636 248 c 0
 692 240 752 212 810 164 c 2
 656 -18 l 1
 582 74 512 108 442 108 c 0
 372 108 300 74 222 28 c 1
 278 104 358 176 446 218 c 2
 446 1472 l 1
 384 1446 l 1
 374 1466 l 2
 450 1534 544 1618 628 1694 c 1
EndSplineSet
Validated: 1
EndChar

StartChar: two
Encoding: 50 50 79
Width: 976
VWidth: 0
Flags: HW
LayerCount: 2
UndoRedoHistory
Layer: 1
Undoes
UndoOperation
Index: 0
Type: 1
WasModified: 0
WasOrder2: 0
Layer: 2
Width: 976
VWidth: 0
LBearingChange: 0
UnicodeEnc: 0
InstructionsLength: 0
SplineSet
-10 1240 m 1
 86 1340 456 1588 456 1588 c 1
 502 1554 700 1442 798 1432 c 1
 770 1402 764 1360 764 1316 c 0
 764 1284 768 1250 768 1218 c 0
 768 1170 768 1108 772 1054 c 1
 774 1054 774 1054 776 1054 c 0
 788 1054 802 1050 822 1050 c 0
 828 1050 836 1050 844 1052 c 1
 784 988 684 908 584 834 c 2
 352 678 l 1
 352 636 352 580 352 520 c 0
 352 400 352 388 352 320 c 1
 352 194 l 1
 404 194 454 194 506 194 c 0
 648 194 788 196 928 212 c 1
 750 150 736 68 662 0 c 1
 616 2 570 4 526 4 c 0
 396 4 272 -4 148 -4 c 0
 100 -4 54 -4 6 0 c 1
 42 30 94 104 124 146 c 1
 126 168 126 200 126 236 c 0
 126 310 124 398 124 438 c 0
 124 448 124 460 124 472 c 0
 124 504 124 536 124 570 c 0
 124 582 124 594 124 606 c 1
 78 606 52 582 -10 560 c 1
 42 614 128 678 220 744 c 2
 552 980 l 1
 552 990 552 1004 552 1024 c 0
 552 1076 552 1156 552 1216 c 0
 552 1238 552 1256 552 1270 c 1
 476 1306 418 1330 352 1356 c 1
 124 1284 l 1
 78 1284 52 1262 -10 1240 c 1
EndSplineSet
EndUndoOperation
EndUndoes
Redoes
EndRedoes
EndUndoRedoHistory
Fore
SplineSet
-10 1240 m 1
 86 1340 456 1588 456 1588 c 1
 502 1554 700 1442 798 1432 c 1
 770 1402 764 1360 764 1316 c 0
 764 1284 768 1250 768 1218 c 0
 768 1170 768 1108 772 1054 c 1
 774 1054 774 1054 776 1054 c 0
 788 1054 802 1050 822 1050 c 0
 828 1050 836 1050 844 1052 c 1
 784 988 684 908 584 834 c 2
 352 678 l 1
 352 636 352 580 352 520 c 0
 352 400 352 388 352 320 c 1
 352 194 l 1
 404 194 454 194 506 194 c 0
 648 194 788 196 928 212 c 1
 750 150 736 68 662 0 c 1
 616 2 570 4 526 4 c 0
 396 4 272 -4 148 -4 c 0
 100 -4 54 -4 6 0 c 1
 42 30 94 104 124 146 c 1
 126 168 126 200 126 236 c 0
 126 310 124 398 124 438 c 0
 124 448 124 460 124 472 c 0
 124 504 124 536 124 570 c 0
 124 582 124 594 124 606 c 1
 78 606 52 582 -10 560 c 1
 42 614 128 678 220 744 c 2
 552 980 l 1
 552 990 552 1004 552 1024 c 0
 552 1076 552 1156 552 1216 c 0
 552 1238 552 1256 552 1270 c 1
 476 1306 418 1330 352 1356 c 1
 124 1284 l 1
 78 1284 52 1262 -10 1240 c 1
EndSplineSet
Validated: 1
EndChar

StartChar: three
Encoding: 51 51 80
Width: 952
VWidth: 0
Flags: HW
LayerCount: 2
UndoRedoHistory
Layer: 1
Undoes
UndoOperation
Index: 0
Type: 1
WasModified: 0
WasOrder2: 0
Layer: 2
Width: 952
VWidth: 0
LBearingChange: 0
UnicodeEnc: 0
InstructionsLength: 0
SplineSet
368 766 m 1
 368 766 562 956 596 986 c 0
 596 994 596 1004 596 1016 c 0
 596 1062 598 1140 598 1202 c 0
 598 1230 596 1254 596 1272 c 0
 518 1304 446 1360 388 1360 c 0
 382 1360 374 1360 368 1358 c 2
 118 1290 l 2
 62 1274 l 0
 36 1266 22 1262 -48 1240 c 1
 62 1338 302 1480 486 1588 c 1
 486 1588 l 2
 538 1554 766 1444 878 1434 c 1
 846 1404 838 1364 838 1320 c 0
 838 1288 842 1252 842 1218 c 0
 842 1214 842 1210 842 1206 c 0
 842 1174 844 1188 848 1140 c 1
 850 1140 850 1140 852 1140 c 0
 864 1140 880 1138 900 1138 c 0
 908 1138 918 1138 928 1140 c 1
 858 1076 746 996 632 922 c 1
 716 884 814 848 878 842 c 1
 846 812 838 772 838 728 c 0
 838 696 842 662 842 628 c 0
 842 624 842 616 842 610 c 0
 842 552 844 426 848 378 c 1
 850 378 850 378 852 378 c 0
 864 378 880 376 900 376 c 0
 908 376 918 376 928 378 c 1
 808 266 562 110 394 18 c 0
 324 34 66 118 -28 158 c 1
 12 188 72 224 106 266 c 2
 368 278 l 2
 424 258 532 240 596 224 c 1
 596 232 596 246 596 264 c 0
 596 336 598 482 598 582 c 0
 598 626 596 662 596 680 c 0
 508 716 442 740 368 766 c 1
EndSplineSet
EndUndoOperation
EndUndoes
Redoes
EndRedoes
EndUndoRedoHistory
Fore
SplineSet
368 766 m 1
 368 766 562 956 596 986 c 0
 596 994 596 1004 596 1016 c 0
 596 1062 598 1140 598 1202 c 0
 598 1230 596 1254 596 1272 c 0
 518 1304 446 1360 388 1360 c 0
 382 1360 374 1360 368 1358 c 2
 118 1290 l 2
 62 1274 l 0
 36 1266 22 1262 -48 1240 c 1
 62 1338 302 1480 486 1588 c 1
 486 1588 l 2
 538 1554 766 1444 878 1434 c 1
 846 1404 838 1364 838 1320 c 0
 838 1288 842 1252 842 1218 c 0
 842 1214 842 1210 842 1206 c 0
 842 1174 844 1188 848 1140 c 1
 850 1140 850 1140 852 1140 c 0
 864 1140 880 1138 900 1138 c 0
 908 1138 918 1138 928 1140 c 1
 858 1076 746 996 632 922 c 1
 716 884 814 848 878 842 c 1
 846 812 838 772 838 728 c 0
 838 696 842 662 842 628 c 0
 842 624 842 616 842 610 c 0
 842 552 844 426 848 378 c 1
 850 378 850 378 852 378 c 0
 864 378 880 376 900 376 c 0
 908 376 918 376 928 378 c 1
 808 266 562 110 394 18 c 0
 324 34 66 118 -28 158 c 1
 12 188 72 224 106 266 c 2
 368 278 l 2
 424 258 532 240 596 224 c 1
 596 232 596 246 596 264 c 0
 596 336 598 482 598 582 c 0
 598 626 596 662 596 680 c 0
 508 716 442 740 368 766 c 1
EndSplineSet
Validated: 1
EndChar

StartChar: four
Encoding: 52 52 81
Width: 870
VWidth: 0
Flags: HW
LayerCount: 2
UndoRedoHistory
Layer: 1
Undoes
UndoOperation
Index: 0
Type: 1
WasModified: 0
WasOrder2: 0
Layer: 2
Width: 870
VWidth: 0
LBearingChange: 0
UnicodeEnc: 0
InstructionsLength: 0
SplineSet
788 1640 m 1
 788 744 l 1
 942 744 l 1
 808 542 l 1
 788 542 l 1
 788 288 l 1
 870 192 l 1
 708 0 l 1
 544 192 l 1
 624 284 l 1
 624 534 l 1
 560 534 484 534 404 534 c 0
 268 534 122 534 -2 538 c 1
 788 1640 l 1
624 1332 m 1
 454 1078 198 744 198 744 c 2
 226 744 396 746 520 746 c 0
 562 746 598 746 624 746 c 2
 624 1332 l 1
EndSplineSet
EndUndoOperation
EndUndoes
Redoes
EndRedoes
EndUndoRedoHistory
Fore
SplineSet
788 1640 m 1
 788 744 l 1
 942 744 l 1
 808 542 l 1
 788 542 l 1
 788 288 l 1
 870 192 l 1
 708 0 l 1
 544 192 l 1
 624 284 l 1
 624 534 l 1
 560 534 484 534 404 534 c 0
 268 534 122 534 -2 538 c 1
 788 1640 l 1
624 1332 m 1
 454 1078 198 744 198 744 c 2
 226 744 396 746 520 746 c 0
 562 746 598 746 624 746 c 2
 624 1332 l 1
EndSplineSet
Validated: 1
EndChar

StartChar: five
Encoding: 53 53 82
Width: 948
VWidth: 0
Flags: HW
LayerCount: 2
UndoRedoHistory
Layer: 1
Undoes
UndoOperation
Index: 0
Type: 1
WasModified: 0
WasOrder2: 0
Layer: 2
Width: 948
VWidth: 0
LBearingChange: 0
UnicodeEnc: 0
InstructionsLength: 0
SplineSet
578 1574 m 0
 618 1540 840 1548 928 1538 c 2
 758 1332 l 2
 738 1342 710 1346 682 1346 c 0
 634 1346 578 1336 534 1336 c 0
 514 1336 496 1338 484 1344 c 1
 484 1298 482 1248 482 1198 c 0
 482 1106 484 1012 484 948 c 0
 528 928 834 868 884 862 c 1
 858 832 854 792 854 748 c 0
 854 716 858 682 858 648 c 0
 858 644 858 636 858 630 c 0
 858 566 858 412 860 364 c 1
 861 364 863 364 865 364 c 0
 874 364 886 362 901 362 c 0
 908 362 916 362 924 364 c 1
 830 252 636 96 504 4 c 0
 392 40 292 134 184 134 c 0
 154 134 122 126 90 108 c 1
 144 176 198 242 252 310 c 0
 264 312 276 314 288 314 c 0
 410 314 542 234 664 210 c 1
 664 218 662 232 662 252 c 0
 662 330 664 490 664 598 c 0
 664 646 664 682 664 700 c 0
 596 736 212 806 172 828 c 1
 204 858 252 894 278 936 c 0
 280 958 280 978 280 998 c 0
 280 1034 278 1064 278 1104 c 0
 278 1112 278 1120 278 1130 c 0
 278 1162 278 1194 278 1228 c 0
 278 1242 278 1258 278 1272 c 0
 276 1272 l 0
 236 1272 212 1248 156 1226 c 1
 242 1324 434 1466 578 1574 c 0
EndSplineSet
EndUndoOperation
EndUndoes
Redoes
EndRedoes
EndUndoRedoHistory
Fore
SplineSet
578 1574 m 0
 618 1540 840 1548 928 1538 c 2
 758 1332 l 2
 738 1342 710 1346 682 1346 c 0
 634 1346 578 1336 534 1336 c 0
 514 1336 496 1338 484 1344 c 1
 484 1298 482 1248 482 1198 c 0
 482 1106 484 1012 484 948 c 0
 528 928 834 868 884 862 c 1
 858 832 854 792 854 748 c 0
 854 716 858 682 858 648 c 0
 858 644 858 636 858 630 c 0
 858 566 858 412 860 364 c 1
 861 364 863 364 865 364 c 0
 874 364 886 362 901 362 c 0
 908 362 916 362 924 364 c 1
 830 252 636 96 504 4 c 0
 392 40 292 134 184 134 c 0
 154 134 122 126 90 108 c 1
 144 176 198 242 252 310 c 0
 264 312 276 314 288 314 c 0
 410 314 542 234 664 210 c 1
 664 218 662 232 662 252 c 0
 662 330 664 490 664 598 c 0
 664 646 664 682 664 700 c 0
 596 736 212 806 172 828 c 1
 204 858 252 894 278 936 c 0
 280 958 280 978 280 998 c 0
 280 1034 278 1064 278 1104 c 0
 278 1112 278 1120 278 1130 c 0
 278 1162 278 1194 278 1228 c 0
 278 1242 278 1258 278 1272 c 0
 276 1272 l 0
 236 1272 212 1248 156 1226 c 1
 242 1324 434 1466 578 1574 c 0
EndSplineSet
Validated: 1
EndChar

StartChar: six
Encoding: 54 54 83
Width: 942
VWidth: 0
Flags: HW
LayerCount: 2
UndoRedoHistory
Layer: 1
Undoes
UndoOperation
Index: 0
Type: 1
WasModified: 0
WasOrder2: 0
Layer: 2
Width: 942
VWidth: 0
LBearingChange: 0
UnicodeEnc: 0
InstructionsLength: 0
SplineSet
602 1536 m 1
 646 1568 l 2
 646 1568 772 1466 904 1420 c 2
 628 1282 l 2
 566 1306 472 1362 416 1368 c 2
 404 914 l 2
 442 940 480 964 516 988 c 0
 564 950 776 836 882 824 c 1
 852 792 846 748 846 702 c 0
 846 666 850 632 850 596 c 0
 850 592 850 586 850 580 c 0
 850 526 852 438 856 386 c 1
 858 386 858 386 860 386 c 0
 870 386 886 382 904 382 c 0
 912 382 920 384 930 386 c 1
 818 268 586 100 428 0 c 0
 362 16 118 108 30 150 c 1
 68 184 124 222 156 266 c 0
 158 290 158 312 158 334 c 0
 158 374 156 410 156 452 c 0
 156 464 156 486 156 510 c 0
 156 556 156 612 156 612 c 1
 156 666 l 2
 110 666 76 640 12 618 c 1
 48 654 98 696 156 740 c 2
 156 1236 l 1
 106 1226 l 2
 106 1226 430 1412 602 1536 c 1
404 744 m 1
 404 696 402 636 402 576 c 0
 402 466 404 348 404 278 c 0
 456 258 558 240 618 222 c 1
 618 230 618 242 618 260 c 0
 618 330 620 462 620 556 c 0
 620 598 618 634 618 652 c 0
 536 690 474 718 404 744 c 1
EndSplineSet
EndUndoOperation
EndUndoes
Redoes
EndRedoes
EndUndoRedoHistory
Fore
SplineSet
602 1536 m 1
 646 1568 l 2
 646 1568 772 1466 904 1420 c 2
 628 1282 l 2
 566 1306 472 1362 416 1368 c 2
 404 914 l 2
 442 940 480 964 516 988 c 0
 564 950 776 836 882 824 c 1
 852 792 846 748 846 702 c 0
 846 666 850 632 850 596 c 0
 850 592 850 586 850 580 c 0
 850 526 852 438 856 386 c 1
 858 386 858 386 860 386 c 0
 870 386 886 382 904 382 c 0
 912 382 920 384 930 386 c 1
 818 268 586 100 428 0 c 0
 362 16 118 108 30 150 c 1
 68 184 124 222 156 266 c 0
 158 290 158 312 158 334 c 0
 158 374 156 410 156 452 c 0
 156 464 156 486 156 510 c 0
 156 556 156 612 156 612 c 1
 156 666 l 2
 110 666 76 640 12 618 c 1
 48 654 98 696 156 740 c 2
 156 1236 l 1
 106 1226 l 2
 106 1226 430 1412 602 1536 c 1
404 744 m 1
 404 696 402 636 402 576 c 0
 402 466 404 348 404 278 c 0
 456 258 558 240 618 222 c 1
 618 230 618 242 618 260 c 0
 618 330 620 462 620 556 c 0
 620 598 618 634 618 652 c 0
 536 690 474 718 404 744 c 1
EndSplineSet
Validated: 1
EndChar

StartChar: seven
Encoding: 55 55 84
Width: 948
VWidth: 0
Flags: HW
LayerCount: 2
UndoRedoHistory
Layer: 1
Undoes
UndoOperation
Index: 0
Type: 1
WasModified: 0
WasOrder2: 0
Layer: 2
Width: 948
VWidth: 0
LBearingChange: 0
UnicodeEnc: 0
InstructionsLength: 0
SplineSet
452 1588 m 2
 480 1604 l 2
 480 1604 760 1460 872 1450 c 1
 840 1420 832 1380 832 1336 c 0
 832 1304 838 1270 838 1236 c 0
 838 1232 836 1226 836 1218 c 0
 836 1152 838 984 842 936 c 1
 844 936 844 936 846 936 c 0
 858 936 874 932 894 932 c 0
 902 932 912 932 922 934 c 1
 852 870 674 698 674 698 c 2
 674 682 674 666 674 646 c 0
 674 608 674 566 674 520 c 0
 674 416 674 304 674 234 c 2
 724 184 l 1
 532 -6 l 1
 342 184 l 1
 416 258 l 2
 416 264 416 268 416 274 c 0
 416 340 414 420 414 458 c 0
 414 466 414 474 414 484 c 0
 414 516 414 548 414 582 c 0
 414 596 414 612 414 626 c 0
 412 626 l 0
 360 626 330 602 260 580 c 1
 320 634 590 884 590 884 c 2
 590 892 590 904 590 920 c 0
 590 986 592 1110 592 1200 c 0
 592 1240 590 1270 590 1288 c 0
 502 1324 436 1348 362 1374 c 2
 100 1302 l 2
 76 1302 52 1306 26 1306 c 0
 -2 1306 -32 1304 -70 1292 c 1
 40 1390 268 1480 452 1588 c 2
EndSplineSet
EndUndoOperation
EndUndoes
Redoes
EndRedoes
EndUndoRedoHistory
Fore
SplineSet
452 1588 m 2
 480 1604 l 2
 480 1604 760 1460 872 1450 c 1
 840 1420 832 1380 832 1336 c 0
 832 1304 838 1270 838 1236 c 0
 838 1232 836 1226 836 1218 c 0
 836 1152 838 984 842 936 c 1
 844 936 844 936 846 936 c 0
 858 936 874 932 894 932 c 0
 902 932 912 932 922 934 c 1
 852 870 674 698 674 698 c 2
 674 682 674 666 674 646 c 0
 674 608 674 566 674 520 c 0
 674 416 674 304 674 234 c 2
 724 184 l 1
 532 -6 l 1
 342 184 l 1
 416 258 l 2
 416 264 416 268 416 274 c 0
 416 340 414 420 414 458 c 0
 414 466 414 474 414 484 c 0
 414 516 414 548 414 582 c 0
 414 596 414 612 414 626 c 0
 412 626 l 0
 360 626 330 602 260 580 c 1
 320 634 590 884 590 884 c 2
 590 892 590 904 590 920 c 0
 590 986 592 1110 592 1200 c 0
 592 1240 590 1270 590 1288 c 0
 502 1324 436 1348 362 1374 c 2
 100 1302 l 2
 76 1302 52 1306 26 1306 c 0
 -2 1306 -32 1304 -70 1292 c 1
 40 1390 268 1480 452 1588 c 2
EndSplineSet
Validated: 1
EndChar

StartChar: eight
Encoding: 56 56 85
Width: 956
VWidth: 0
Flags: HW
LayerCount: 2
UndoRedoHistory
Layer: 1
Undoes
UndoOperation
Index: 0
Type: 1
WasModified: 0
WasOrder2: 0
Layer: 2
Width: 956
VWidth: 0
LBearingChange: 0
UnicodeEnc: 0
InstructionsLength: 0
SplineSet
508 1570 m 0
 560 1536 788 1426 900 1416 c 1
 868 1386 860 1346 860 1302 c 0
 860 1270 864 1236 864 1202 c 0
 864 1198 864 1192 864 1188 c 0
 864 1144 866 1086 870 1038 c 1
 872 1038 872 1038 874 1038 c 0
 886 1038 902 1034 922 1034 c 0
 930 1034 940 1036 950 1038 c 1
 880 974 768 928 654 854 c 1
 738 816 836 780 900 774 c 1
 868 744 860 704 860 660 c 0
 860 628 864 592 864 558 c 0
 864 554 864 550 864 544 c 0
 864 494 866 408 870 360 c 1
 872 360 872 360 874 360 c 0
 886 360 902 358 922 358 c 0
 930 358 940 358 950 360 c 1
 830 248 584 92 416 0 c 0
 346 16 88 100 -6 140 c 1
 34 170 94 208 128 250 c 0
 130 272 130 292 130 312 c 0
 130 350 128 384 128 424 c 0
 128 432 128 444 128 454 c 0
 128 492 130 538 130 578 c 0
 130 596 130 588 130 602 c 0
 130 626 l 0
 78 626 44 602 -26 580 c 1
 34 634 166 698 272 764 c 1
 180 794 46 830 -6 852 c 1
 34 882 94 918 128 960 c 0
 130 982 130 1000 130 1014 c 0
 130 1040 128 1060 128 1100 c 0
 128 1108 128 1118 128 1128 c 0
 128 1160 130 1192 130 1226 c 0
 130 1240 130 1240 130 1254 c 0
 130 1270 l 0
 78 1270 44 1244 -26 1222 c 1
 84 1320 324 1462 508 1570 c 0
390 1340 m 1
 388 1294 388 1242 388 1188 c 0
 388 1088 390 984 390 920 c 0
 446 900 554 882 618 866 c 1
 618 874 618 886 618 902 c 0
 618 964 620 1082 620 1168 c 0
 620 1206 618 1236 618 1254 c 0
 530 1290 464 1314 390 1340 c 1
390 732 m 1
 388 686 388 626 388 564 c 0
 388 450 390 324 390 260 c 0
 446 240 554 222 618 206 c 1
 618 214 618 228 618 246 c 0
 618 316 620 456 620 552 c 0
 620 594 618 628 618 646 c 0
 530 682 464 706 390 732 c 1
EndSplineSet
EndUndoOperation
EndUndoes
Redoes
EndRedoes
EndUndoRedoHistory
Fore
SplineSet
508 1570 m 0
 560 1536 788 1426 900 1416 c 1
 868 1386 860 1346 860 1302 c 0
 860 1270 864 1236 864 1202 c 0
 864 1198 864 1192 864 1188 c 0
 864 1144 866 1086 870 1038 c 1
 872 1038 872 1038 874 1038 c 0
 886 1038 902 1034 922 1034 c 0
 930 1034 940 1036 950 1038 c 1
 880 974 768 928 654 854 c 1
 738 816 836 780 900 774 c 1
 868 744 860 704 860 660 c 0
 860 628 864 592 864 558 c 0
 864 554 864 550 864 544 c 0
 864 494 866 408 870 360 c 1
 872 360 872 360 874 360 c 0
 886 360 902 358 922 358 c 0
 930 358 940 358 950 360 c 1
 830 248 584 92 416 0 c 0
 346 16 88 100 -6 140 c 1
 34 170 94 208 128 250 c 0
 130 272 130 292 130 312 c 0
 130 350 128 384 128 424 c 0
 128 432 128 444 128 454 c 0
 128 492 130 538 130 578 c 0
 130 596 130 588 130 602 c 0
 130 626 l 0
 78 626 44 602 -26 580 c 1
 34 634 166 698 272 764 c 1
 180 794 46 830 -6 852 c 1
 34 882 94 918 128 960 c 0
 130 982 130 1000 130 1014 c 0
 130 1040 128 1060 128 1100 c 0
 128 1108 128 1118 128 1128 c 0
 128 1160 130 1192 130 1226 c 0
 130 1240 130 1240 130 1254 c 0
 130 1270 l 0
 78 1270 44 1244 -26 1222 c 1
 84 1320 324 1462 508 1570 c 0
390 1340 m 1
 388 1294 388 1242 388 1188 c 0
 388 1088 390 984 390 920 c 0
 446 900 554 882 618 866 c 1
 618 874 618 886 618 902 c 0
 618 964 620 1082 620 1168 c 0
 620 1206 618 1236 618 1254 c 0
 530 1290 464 1314 390 1340 c 1
390 732 m 1
 388 686 388 626 388 564 c 0
 388 450 390 324 390 260 c 0
 446 240 554 222 618 206 c 1
 618 214 618 228 618 246 c 0
 618 316 620 456 620 552 c 0
 620 594 618 628 618 646 c 0
 530 682 464 706 390 732 c 1
EndSplineSet
Validated: 1
EndChar

StartChar: nine
Encoding: 57 57 86
Width: 962
VWidth: 0
Flags: HW
LayerCount: 2
UndoRedoHistory
Layer: 1
Undoes
UndoOperation
Index: 0
Type: 1
WasModified: 0
WasOrder2: 0
Layer: 2
Width: 962
VWidth: 0
LBearingChange: 0
UnicodeEnc: 0
InstructionsLength: 0
SplineSet
640 1606 m 2
 682 1482 780 1420 936 1400 c 2
 884 1374 l 1
 884 248 l 1
 938 252 l 1
 684 106 l 2
 580 96 488 42 392 4 c 0
 258 106 218 170 80 170 c 0
 58 170 36 168 10 164 c 1
 126 226 252 326 384 326 c 0
 386 326 386 326 388 326 c 0
 464 274 544 216 622 172 c 2
 628 712 l 1
 450 628 l 1
 318 726 240 732 64 742 c 2
 124 786 l 1
 148 1296 l 1
 128 1296 l 2
 164 1318 200 1344 238 1364 c 0
 388 1456 640 1606 640 1606 c 2
390 1438 m 1
 370 1424 l 1
 370 882 l 2
 416 882 450 886 480 886 c 0
 530 886 568 878 630 838 c 2
 636 1258 l 2
 552 1270 446 1316 390 1438 c 1
EndSplineSet
EndUndoOperation
EndUndoes
Redoes
EndRedoes
EndUndoRedoHistory
Fore
SplineSet
640 1606 m 2
 682 1482 780 1420 936 1400 c 2
 884 1374 l 1
 884 248 l 1
 938 252 l 1
 684 106 l 2
 580 96 488 42 392 4 c 0
 258 106 218 170 80 170 c 0
 58 170 36 168 10 164 c 1
 126 226 252 326 384 326 c 0
 386 326 386 326 388 326 c 0
 464 274 544 216 622 172 c 2
 628 712 l 1
 450 628 l 1
 318 726 240 732 64 742 c 2
 124 786 l 1
 148 1296 l 1
 128 1296 l 2
 164 1318 200 1344 238 1364 c 0
 388 1456 640 1606 640 1606 c 2
390 1438 m 1
 370 1424 l 1
 370 882 l 2
 416 882 450 886 480 886 c 0
 530 886 568 878 630 838 c 2
 636 1258 l 2
 552 1270 446 1316 390 1438 c 1
EndSplineSet
Validated: 1
EndChar

StartChar: question
Encoding: 63 63 87
Width: 824
VWidth: 0
Flags: HW
LayerCount: 2
UndoRedoHistory
Layer: 1
Undoes
UndoOperation
Index: 0
Type: 1
WasModified: 0
WasOrder2: 0
Layer: 2
Width: 824
VWidth: 0
LBearingChange: 0
UnicodeEnc: 0
InstructionsLength: 0
SplineSet
412 1616 m 0
 464 1582 690 1472 802 1462 c 1
 770 1432 764 1392 764 1348 c 0
 764 1316 768 1282 768 1248 c 0
 768 1244 768 1238 768 1234 c 0
 768 1190 770 1132 774 1084 c 1
 776 1084 776 1084 778 1084 c 0
 790 1084 806 1080 826 1080 c 0
 834 1080 844 1082 854 1084 c 1
 784 1020 436 828 436 828 c 2
 434 782 434 736 434 686 c 0
 434 596 436 508 436 444 c 0
 440 442 442 440 442 438 c 0
 442 426 326 412 246 412 c 0
 204 412 172 416 172 426 c 0
 172 428 172 430 174 432 c 0
 176 460 178 516 178 576 c 0
 178 648 176 726 174 758 c 0
 174 758 l 0
 122 758 90 734 20 712 c 1
 80 766 522 1032 522 1032 c 2
 522 1040 522 1048 522 1060 c 0
 522 1104 522 1176 522 1234 c 0
 522 1260 522 1282 522 1300 c 0
 434 1336 368 1360 294 1386 c 2
 32 1314 l 2
 8 1314 -16 1316 -42 1316 c 0
 -70 1316 -100 1316 -138 1304 c 1
 -28 1402 228 1508 412 1616 c 0
292 354 m 2
 308 346 470 178 470 178 c 1
 296 0 l 1
 138 170 l 1
 292 354 l 2
EndSplineSet
EndUndoOperation
EndUndoes
Redoes
EndRedoes
EndUndoRedoHistory
Fore
SplineSet
412 1616 m 0
 464 1582 690 1472 802 1462 c 1
 770 1432 764 1392 764 1348 c 0
 764 1316 768 1282 768 1248 c 0
 768 1244 768 1238 768 1234 c 0
 768 1190 770 1132 774 1084 c 1
 776 1084 776 1084 778 1084 c 0
 790 1084 806 1080 826 1080 c 0
 834 1080 844 1082 854 1084 c 1
 784 1020 436 828 436 828 c 2
 434 782 434 736 434 686 c 0
 434 596 436 508 436 444 c 0
 440 442 442 440 442 438 c 0
 442 426 326 412 246 412 c 0
 204 412 172 416 172 426 c 0
 172 428 172 430 174 432 c 0
 176 460 178 516 178 576 c 0
 178 648 176 726 174 758 c 0
 174 758 l 0
 122 758 90 734 20 712 c 1
 80 766 522 1032 522 1032 c 2
 522 1040 522 1048 522 1060 c 0
 522 1104 522 1176 522 1234 c 0
 522 1260 522 1282 522 1300 c 0
 434 1336 368 1360 294 1386 c 2
 32 1314 l 2
 8 1314 -16 1316 -42 1316 c 0
 -70 1316 -100 1316 -138 1304 c 1
 -28 1402 228 1508 412 1616 c 0
292 354 m 2
 308 346 470 178 470 178 c 1
 296 0 l 1
 138 170 l 1
 292 354 l 2
EndSplineSet
Validated: 1
EndChar

StartChar: zero
Encoding: 48 48 88
Width: 952
VWidth: 0
Flags: HW
LayerCount: 2
UndoRedoHistory
Layer: 1
Undoes
UndoOperation
Index: 0
Type: 1
WasModified: 0
WasOrder2: 0
Layer: 2
Width: 952
VWidth: 0
LBearingChange: 0
UnicodeEnc: 0
InstructionsLength: 0
SplineSet
560 1622 m 1
 612 1586 l 1
 940 1348 l 1
 876 1318 l 1
 876 330 l 1
 982 406 l 1
 920 326 l 1
 480 -2 l 1
 -32 140 l 1
 84 196 l 1
 84 1274 l 1
 20 1268 l 1
 560 1622 l 1
428 1470 m 1
 304 1378 l 1
 304 230 l 1
 586 138 l 1
 640 190 l 1
 640 1300 l 1
 428 1470 l 1
EndSplineSet
EndUndoOperation
EndUndoes
Redoes
EndRedoes
EndUndoRedoHistory
Fore
SplineSet
560 1622 m 1
 612 1586 l 1
 940 1348 l 1
 876 1318 l 1
 876 330 l 1
 982 406 l 1
 920 326 l 1
 480 -2 l 1
 -32 140 l 1
 84 196 l 1
 84 1274 l 1
 20 1268 l 1
 560 1622 l 1
428 1470 m 1
 304 1378 l 1
 304 230 l 1
 586 138 l 1
 640 190 l 1
 640 1300 l 1
 428 1470 l 1
EndSplineSet
Validated: 1
EndChar

StartChar: colon
Encoding: 58 58 89
Width: 372
VWidth: 0
Flags: HW
LayerCount: 2
UndoRedoHistory
Layer: 1
Undoes
UndoOperation
Index: 0
Type: 1
WasModified: 0
WasOrder2: 0
Layer: 2
Width: 372
VWidth: 0
LBearingChange: 0
UnicodeEnc: 0
InstructionsLength: 0
SplineSet
172 1122 m 2
 188 1114 350 944 350 944 c 1
 176 768 l 1
 18 936 l 1
 172 1122 l 2
172 560 m 2
 188 552 350 384 350 384 c 1
 176 206 l 1
 18 376 l 1
 172 560 l 2
EndSplineSet
EndUndoOperation
EndUndoes
Redoes
EndRedoes
EndUndoRedoHistory
Fore
SplineSet
172 1122 m 2
 188 1114 350 944 350 944 c 1
 176 768 l 1
 18 936 l 1
 172 1122 l 2
172 560 m 2
 188 552 350 384 350 384 c 1
 176 206 l 1
 18 376 l 1
 172 560 l 2
EndSplineSet
Validated: 1
EndChar

StartChar: semicolon
Encoding: 59 59 90
Width: 366
VWidth: 0
Flags: HW
LayerCount: 2
UndoRedoHistory
Layer: 1
Undoes
UndoOperation
Index: 0
Type: 1
WasModified: 0
WasOrder2: 0
Layer: 2
Width: 366
VWidth: 0
LBearingChange: 0
UnicodeEnc: 0
InstructionsLength: 0
SplineSet
172 988 m 2
 186 982 318 852 318 852 c 1
 176 718 l 1
 48 846 l 1
 172 988 l 2
280 548 m 0
 280 440 210 310 142 246 c 2
 100 208 l 2
 92 200 84 194 72 200 c 0
 60 206 60 216 64 228 c 0
 80 278 108 328 108 374 c 0
 108 386 106 398 102 408 c 0
 92 434 50 430 50 456 c 0
 50 458 48 462 50 466 c 0
 66 510 172 628 234 628 c 0
 262 628 280 606 280 548 c 0
EndSplineSet
EndUndoOperation
EndUndoes
Redoes
EndRedoes
EndUndoRedoHistory
Fore
SplineSet
172 988 m 2
 186 982 318 852 318 852 c 1
 176 718 l 1
 48 846 l 1
 172 988 l 2
280 548 m 0
 280 440 210 310 142 246 c 2
 100 208 l 2
 92 200 84 194 72 200 c 0
 60 206 60 216 64 228 c 0
 80 278 108 328 108 374 c 0
 108 386 106 398 102 408 c 0
 92 434 50 430 50 456 c 0
 50 458 48 462 50 466 c 0
 66 510 172 628 234 628 c 0
 262 628 280 606 280 548 c 0
EndSplineSet
Validated: 1
EndChar

StartChar: less
Encoding: 60 60 91
Width: 522
VWidth: 0
Flags: HW
LayerCount: 2
UndoRedoHistory
Layer: 1
Undoes
UndoOperation
Index: 0
Type: 1
WasModified: 0
WasOrder2: 0
Layer: 2
Width: 522
VWidth: 0
LBearingChange: 0
UnicodeEnc: 0
InstructionsLength: 0
SplineSet
382 1160 m 1
 478 1194 l 1
 186 718 l 1
 518 354 l 1
 364 174 l 1
 0 590 l 1
 382 1160 l 1
EndSplineSet
EndUndoOperation
EndUndoes
Redoes
EndRedoes
EndUndoRedoHistory
Fore
SplineSet
382 1160 m 1
 478 1194 l 1
 186 718 l 1
 518 354 l 1
 364 174 l 1
 0 590 l 1
 382 1160 l 1
EndSplineSet
Validated: 1
EndChar

StartChar: greater
Encoding: 62 62 92
Width: 536
VWidth: 0
Flags: HW
LayerCount: 2
UndoRedoHistory
Layer: 1
Undoes
UndoOperation
Index: 0
Type: 1
WasModified: 0
WasOrder2: 0
Layer: 2
Width: 536
VWidth: 0
LBearingChange: 0
UnicodeEnc: 0
InstructionsLength: 0
SplineSet
150 240 m 1
 54 206 l 1
 348 682 l 1
 14 1046 l 1
 168 1226 l 1
 532 810 l 1
 150 240 l 1
EndSplineSet
EndUndoOperation
EndUndoes
Redoes
EndRedoes
EndUndoRedoHistory
Fore
SplineSet
150 240 m 1
 54 206 l 1
 348 682 l 1
 14 1046 l 1
 168 1226 l 1
 532 810 l 1
 150 240 l 1
EndSplineSet
Validated: 1
EndChar

StartChar: equal
Encoding: 61 61 93
Width: 730
VWidth: 0
Flags: HW
LayerCount: 2
UndoRedoHistory
Layer: 1
Undoes
UndoOperation
Index: 0
Type: 1
WasModified: 0
WasOrder2: 0
Layer: 2
Width: 730
VWidth: 0
LBearingChange: 0
UnicodeEnc: 0
InstructionsLength: 0
SplineSet
476 970 m 0
 538 970 672 966 722 954 c 0
 734 952 738 946 738 938 c 0
 738 898 630 798 596 766 c 0
 570 744 516 702 516 702 c 1
 510 748 490 760 420 770 c 0
 356 774 280 776 208 776 c 0
 88 776 -16 772 -16 772 c 1
 138 954 l 1
 138 954 282 970 466 970 c 0
 470 970 472 970 476 970 c 0
476 628 m 0
 538 628 672 624 722 612 c 0
 734 610 738 606 738 598 c 0
 738 558 630 456 596 424 c 0
 570 402 516 362 516 362 c 1
 510 408 490 418 420 428 c 0
 356 432 280 434 208 434 c 0
 88 434 -16 430 -16 430 c 1
 138 612 l 1
 138 612 282 628 466 628 c 0
 470 628 472 628 476 628 c 0
EndSplineSet
EndUndoOperation
EndUndoes
Redoes
EndRedoes
EndUndoRedoHistory
Fore
SplineSet
476 970 m 0
 538 970 672 966 722 954 c 0
 734 952 738 946 738 938 c 0
 738 898 630 798 596 766 c 0
 570 744 516 702 516 702 c 1
 510 748 490 760 420 770 c 0
 356 774 280 776 208 776 c 0
 88 776 -16 772 -16 772 c 1
 138 954 l 1
 138 954 282 970 466 970 c 0
 470 970 472 970 476 970 c 0
476 628 m 0
 538 628 672 624 722 612 c 0
 734 610 738 606 738 598 c 0
 738 558 630 456 596 424 c 0
 570 402 516 362 516 362 c 1
 510 408 490 418 420 428 c 0
 356 432 280 434 208 434 c 0
 88 434 -16 430 -16 430 c 1
 138 612 l 1
 138 612 282 628 466 628 c 0
 470 628 472 628 476 628 c 0
EndSplineSet
Validated: 1
EndChar

StartChar: ae
Encoding: 230 230 94
Width: 932
VWidth: 0
Flags: HW
LayerCount: 2
UndoRedoHistory
Layer: 1
Undoes
UndoOperation
Index: 0
Type: 1
WasModified: 0
WasOrder2: 0
Layer: 2
Width: 932
VWidth: 0
LBearingChange: 0
UnicodeEnc: 0
InstructionsLength: 0
SplineSet
442 958 m 2
 476 910 498 848 536 804 c 1
 570 844 610 888 672 942 c 2
 672 954 l 2
 708 918 888 740 970 740 c 0
 974 740 978 742 982 742 c 1
 872 624 716 488 582 382 c 0
 582 328 586 304 586 266 c 0
 626 246 706 226 752 208 c 2
 886 336 l 2
 898 338 918 330 944 336 c 1
 858 218 728 88 606 -12 c 0
 564 2 442 60 364 104 c 0
 300 24 244 2 186 2 c 0
 146 2 102 12 56 24 c 0
 46 30 18 36 -24 38 c 1
 44 110 58 104 58 126 c 0
 58 142 50 176 50 266 c 0
 48 298 28 312 8 312 c 0
 -6 312 -22 304 -36 294 c 1
 102 414 238 620 394 620 c 0
 396 620 l 1
 396 686 l 2
 340 718 334 772 294 836 c 1
 218 750 148 632 10 612 c 1
 108 682 150 746 240 844 c 2
 442 958 l 2
-36 294 m 1
 -40 290 -44 286 -48 284 c 1
 -44 288 -40 292 -36 294 c 1
586 698 m 1
 586 650 586 596 586 542 c 0
 586 514 586 484 586 456 c 2
 760 600 l 2
 698 618 632 676 586 698 c 1
350 520 m 0
 296 518 262 468 206 394 c 0
 202 320 202 312 200 236 c 0
 202 184 234 132 276 132 c 0
 310 132 350 164 390 252 c 0
 394 288 394 326 394 366 c 0
 394 388 394 410 394 432 c 0
 394 444 396 456 396 468 c 0
 390 496 380 518 362 520 c 0
 358 520 354 520 350 520 c 0
EndSplineSet
EndUndoOperation
EndUndoes
Redoes
EndRedoes
EndUndoRedoHistory
Fore
SplineSet
442 958 m 2
 476 910 498 848 536 804 c 1
 570 844 610 888 672 942 c 2
 672 954 l 2
 708 918 888 740 970 740 c 0
 974 740 978 742 982 742 c 1
 872 624 716 488 582 382 c 0
 582 328 586 304 586 266 c 0
 626 246 706 226 752 208 c 2
 886 336 l 2
 898 338 918 330 944 336 c 1
 858 218 728 88 606 -12 c 0
 564 2 442 60 364 104 c 0
 300 24 244 2 186 2 c 0
 146 2 102 12 56 24 c 0
 46 30 18 36 -24 38 c 1
 44 110 58 104 58 126 c 0
 58 142 50 176 50 266 c 0
 48 298 28 312 8 312 c 0
 -6 312 -22 304 -36 294 c 1
 102 414 238 620 394 620 c 0
 396 620 l 1
 396 686 l 2
 340 718 334 772 294 836 c 1
 218 750 148 632 10 612 c 1
 108 682 150 746 240 844 c 2
 442 958 l 2
-36 294 m 1
 -40 290 -44 286 -48 284 c 1
 -44 288 -40 292 -36 294 c 1
586 698 m 1
 586 650 586 596 586 542 c 0
 586 514 586 484 586 456 c 2
 760 600 l 2
 698 618 632 676 586 698 c 1
350 520 m 0
 296 518 262 468 206 394 c 0
 202 320 202 312 200 236 c 0
 202 184 234 132 276 132 c 0
 310 132 350 164 390 252 c 0
 394 288 394 326 394 366 c 0
 394 388 394 410 394 432 c 0
 394 444 396 456 396 468 c 0
 390 496 380 518 362 520 c 0
 358 520 354 520 350 520 c 0
EndSplineSet
Validated: 1
EndChar

StartChar: parenleft
Encoding: 40 40 95
Width: 608
VWidth: 0
Flags: HW
LayerCount: 2
UndoRedoHistory
Layer: 1
Undoes
UndoOperation
Index: 0
Type: 1
WasModified: 0
WasOrder2: 0
Layer: 2
Width: 608
VWidth: 0
LBearingChange: 0
UnicodeEnc: 0
InstructionsLength: 0
SplineSet
458 1512 m 1
 322 1320 220 1060 220 836 c 0
 220 792 224 750 232 710 c 0
 284 466 444 362 592 216 c 1
 492 128 496 118 356 -6 c 1
 128 180 20 466 20 742 c 0
 20 1068 172 1384 458 1512 c 1
EndSplineSet
EndUndoOperation
EndUndoes
Redoes
EndRedoes
EndUndoRedoHistory
Fore
SplineSet
458 1512 m 1
 322 1320 220 1060 220 836 c 0
 220 792 224 750 232 710 c 0
 284 466 444 362 592 216 c 1
 492 128 496 118 356 -6 c 1
 128 180 20 466 20 742 c 0
 20 1068 172 1384 458 1512 c 1
EndSplineSet
Validated: 1
EndChar

StartChar: parenright
Encoding: 41 41 96
Width: 608
VWidth: 0
Flags: HW
LayerCount: 2
UndoRedoHistory
Layer: 1
Undoes
UndoOperation
Index: 0
Type: 1
WasModified: 0
WasOrder2: 0
Layer: 2
Width: 608
VWidth: 0
LBearingChange: 0
UnicodeEnc: 0
InstructionsLength: 0
SplineSet
134 6 m 1
 270 198 374 458 374 682 c 0
 374 726 370 768 362 808 c 0
 310 1052 148 1156 0 1302 c 1
 100 1390 96 1400 236 1524 c 1
 464 1338 572 1052 572 776 c 0
 572 450 420 134 134 6 c 1
EndSplineSet
EndUndoOperation
EndUndoes
Redoes
EndRedoes
EndUndoRedoHistory
Fore
SplineSet
134 6 m 1
 270 198 374 458 374 682 c 0
 374 726 370 768 362 808 c 0
 310 1052 148 1156 0 1302 c 1
 100 1390 96 1400 236 1524 c 1
 464 1338 572 1052 572 776 c 0
 572 450 420 134 134 6 c 1
EndSplineSet
Validated: 1
EndChar

StartChar: plus
Encoding: 43 43 97
Width: 2048
VWidth: 0
Flags: HW
LayerCount: 2
UndoRedoHistory
Layer: 1
Undoes
UndoOperation
Index: 0
Type: 1
WasModified: 0
WasOrder2: 0
Layer: 2
Width: 2048
VWidth: 0
LBearingChange: 0
UnicodeEnc: 0
InstructionsLength: 0
SplineSet
548 1172 m 1
 548 858 l 1
 548 828 l 2
 588 828 626 830 660 830 c 0
 662 830 664 830 666 830 c 0
 728 830 862 826 912 814 c 0
 924 812 930 806 930 798 c 0
 930 760 820 658 786 626 c 0
 760 604 708 562 708 562 c 1
 708 562 698 590 690 602 c 0
 684 612 624 630 612 630 c 0
 594 632 572 632 548 632 c 2
 548 552 l 1
 548 434 l 1
 352 250 l 1
 352 514 l 1
 352 636 l 1
 350 636 348 636 346 636 c 0
 176 636 6 632 6 632 c 1
 160 814 l 1
 160 814 244 818 352 822 c 2
 352 990 l 1
 548 1172 l 1
EndSplineSet
EndUndoOperation
EndUndoes
Redoes
EndRedoes
EndUndoRedoHistory
Fore
SplineSet
548 1172 m 1
 548 858 l 1
 548 828 l 2
 588 828 626 830 660 830 c 0
 662 830 664 830 666 830 c 0
 728 830 862 826 912 814 c 0
 924 812 930 806 930 798 c 0
 930 760 820 658 786 626 c 0
 760 604 708 562 708 562 c 1
 708 562 698 590 690 602 c 0
 684 612 624 630 612 630 c 0
 594 632 572 632 548 632 c 2
 548 552 l 1
 548 434 l 1
 352 250 l 1
 352 514 l 1
 352 636 l 1
 350 636 348 636 346 636 c 0
 176 636 6 632 6 632 c 1
 160 814 l 1
 160 814 244 818 352 822 c 2
 352 990 l 1
 548 1172 l 1
EndSplineSet
Validated: 1
EndChar

StartChar: asterisk
Encoding: 42 42 98
Width: 766
VWidth: 0
Flags: HW
LayerCount: 2
UndoRedoHistory
Layer: 1
Undoes
UndoOperation
Index: 0
Type: 1
WasModified: 0
WasOrder2: 0
Layer: 2
Width: 766
VWidth: 0
LBearingChange: 0
UnicodeEnc: 0
InstructionsLength: 0
SplineSet
218 1066 m 1
 274 1028 288 1010 310 1010 c 0
 324 1010 342 1018 380 1032 c 1
 360 1006 342 984 322 964 c 1
 416 818 l 1
 468 900 l 1
 454 906 442 914 430 926 c 1
 536 1064 l 1
 592 1026 604 1008 626 1008 c 0
 640 1008 658 1016 696 1030 c 1
 646 964 596 918 548 900 c 1
 472 788 l 1
 516 788 l 1
 800 788 l 1
 682 642 l 1
 528 642 l 1
 596 536 l 1
 622 534 646 522 668 500 c 1
 560 366 l 1
 538 382 538 382 526 392 c 1
 514 402 l 1
 510 406 l 1
 492 420 484 426 470 426 c 0
 456 426 436 418 400 404 c 1
 420 430 440 454 462 474 c 1
 438 510 412 548 362 622 c 1
 294 520 l 1
 306 514 318 504 330 492 c 1
 224 358 l 1
 168 398 154 416 132 416 c 0
 118 416 98 410 62 396 c 1
 120 472 182 520 238 528 c 1
 238 534 l 1
 306 642 l 1
 252 642 l 1
 -32 642 l 1
 86 788 l 1
 240 788 l 1
 250 788 l 1
 216 838 188 878 176 896 c 1
 154 900 134 908 114 928 c 1
 218 1066 l 1
EndSplineSet
EndUndoOperation
EndUndoes
Redoes
EndRedoes
EndUndoRedoHistory
Fore
SplineSet
218 1066 m 1
 274 1028 288 1010 310 1010 c 0
 324 1010 342 1018 380 1032 c 1
 360 1006 342 984 322 964 c 1
 416 818 l 1
 468 900 l 1
 454 906 442 914 430 926 c 1
 536 1064 l 1
 592 1026 604 1008 626 1008 c 0
 640 1008 658 1016 696 1030 c 1
 646 964 596 918 548 900 c 1
 472 788 l 1
 516 788 l 1
 800 788 l 1
 682 642 l 1
 528 642 l 1
 596 536 l 1
 622 534 646 522 668 500 c 1
 560 366 l 1
 538 382 538 382 526 392 c 1
 514 402 l 1
 510 406 l 1
 492 420 484 426 470 426 c 0
 456 426 436 418 400 404 c 1
 420 430 440 454 462 474 c 1
 438 510 412 548 362 622 c 1
 294 520 l 1
 306 514 318 504 330 492 c 1
 224 358 l 1
 168 398 154 416 132 416 c 0
 118 416 98 410 62 396 c 1
 120 472 182 520 238 528 c 1
 238 534 l 1
 306 642 l 1
 252 642 l 1
 -32 642 l 1
 86 788 l 1
 240 788 l 1
 250 788 l 1
 216 838 188 878 176 896 c 1
 154 900 134 908 114 928 c 1
 218 1066 l 1
EndSplineSet
Validated: 1
EndChar

StartChar: hyphen
Encoding: 45 45 99
Width: 690
VWidth: 0
Flags: HW
LayerCount: 2
UndoRedoHistory
Layer: 1
Undoes
UndoOperation
Index: 0
Type: 1
WasModified: 0
WasOrder2: 0
Layer: 2
Width: 690
VWidth: 0
LBearingChange: 0
UnicodeEnc: 0
InstructionsLength: 0
SplineSet
494 830 m 0
 556 830 690 826 740 814 c 0
 752 812 756 808 756 800 c 0
 756 762 648 658 614 626 c 0
 588 604 534 564 534 564 c 1
 534 564 526 592 518 604 c 0
 512 614 452 630 440 630 c 0
 376 634 300 636 228 636 c 0
 108 636 4 632 4 632 c 1
 158 814 l 1
 158 814 300 830 484 830 c 0
 488 830 490 830 494 830 c 0
EndSplineSet
EndUndoOperation
EndUndoes
Redoes
EndRedoes
EndUndoRedoHistory
Fore
SplineSet
494 830 m 0
 556 830 690 826 740 814 c 0
 752 812 756 808 756 800 c 0
 756 762 648 658 614 626 c 0
 588 604 534 564 534 564 c 1
 534 564 526 592 518 604 c 0
 512 614 452 630 440 630 c 0
 376 634 300 636 228 636 c 0
 108 636 4 632 4 632 c 1
 158 814 l 1
 158 814 300 830 484 830 c 0
 488 830 490 830 494 830 c 0
EndSplineSet
Validated: 1
EndChar

StartChar: bar
Encoding: 124 124 100
Width: 210
VWidth: 0
Flags: HW
LayerCount: 2
UndoRedoHistory
Layer: 1
Undoes
UndoOperation
Index: 0
Type: 1
WasModified: 0
WasOrder2: 0
Layer: 2
Width: 210
VWidth: 0
LBearingChange: 0
UnicodeEnc: 0
InstructionsLength: 0
SplineSet
14 1468 m 6
 68 1510 144 1576 204 1626 c 6
 204 158 l 5
 14 -10 l 5
 14 1468 l 6
EndSplineSet
EndUndoOperation
EndUndoes
Redoes
EndRedoes
EndUndoRedoHistory
Fore
SplineSet
14 1468 m 6
 68 1510 144 1576 204 1626 c 6
 204 158 l 5
 14 -10 l 5
 14 1468 l 6
EndSplineSet
Validated: 1
EndChar

StartChar: AE
Encoding: 198 198 101
Width: 1630
VWidth: 0
Flags: HW
LayerCount: 2
UndoRedoHistory
Layer: 1
Undoes
UndoOperation
Index: 0
Type: 1
WasModified: 0
WasOrder2: 0
Layer: 2
Width: 1630
VWidth: 0
LBearingChange: 0
UnicodeEnc: 0
InstructionsLength: 0
SplineSet
814 1580 m 0
 818 1580 822 1580 826 1580 c 0
 860 1580 896 1576 936 1572 c 0
 940 1574 l 0
 960 1576 982 1576 1006 1576 c 0
 1008 1576 1008 1576 1010 1576 c 0
 1134 1576 1298 1550 1442 1550 c 0
 1504 1550 1564 1554 1614 1568 c 1
 1600 1454 1500 1316 1416 1250 c 1
 1420 1262 1422 1272 1422 1280 c 0
 1422 1334 1356 1346 1268 1346 c 0
 1208 1346 1136 1342 1068 1342 c 0
 1054 1342 1038 1342 1024 1342 c 2
 998 1344 l 1
 1058 850 l 1
 1140 886 1224 916 1298 916 c 0
 1342 916 1384 906 1416 880 c 2
 1166 732 l 2
 1132 744 1098 752 1068 756 c 2
 1130 236 l 2
 1152 234 1170 232 1184 230 c 0
 1274 224 1342 198 1438 198 c 0
 1504 198 1582 210 1688 254 c 1
 1656 162 1568 90 1448 32 c 0
 1392 4 1274 -4 1170 -4 c 0
 1106 -4 1048 -2 1012 2 c 0
 1010 4 1010 6 1008 8 c 2
 974 -2 l 1
 930 642 l 1
 604 642 l 1
 504 400 l 2
 504 376 498 348 488 322 c 2
 636 204 l 1
 460 22 l 1
 398 86 336 110 272 110 c 0
 174 110 70 52 -40 -10 c 1
 28 162 248 362 392 362 c 0
 400 362 408 364 414 362 c 1
 810 1362 l 1
 780 1366 l 2
 688 1348 568 1304 402 1178 c 1
 474 1426 602 1576 814 1580 c 0
880 1308 m 1
 708 892 l 2
 726 892 744 892 766 892 c 0
 814 892 868 892 912 892 c 2
 890 1206 l 1
 880 1308 l 1
634 712 m 1
 616 668 l 1
 928 668 l 1
 924 712 l 1
 634 712 l 1
EndSplineSet
EndUndoOperation
EndUndoes
Redoes
EndRedoes
EndUndoRedoHistory
Fore
SplineSet
814 1580 m 0
 818 1580 822 1580 826 1580 c 0
 860 1580 896 1576 936 1572 c 0
 940 1574 l 0
 960 1576 982 1576 1006 1576 c 0
 1008 1576 1008 1576 1010 1576 c 0
 1134 1576 1298 1550 1442 1550 c 0
 1504 1550 1564 1554 1614 1568 c 1
 1600 1454 1500 1316 1416 1250 c 1
 1420 1262 1422 1272 1422 1280 c 0
 1422 1334 1356 1346 1268 1346 c 0
 1208 1346 1136 1342 1068 1342 c 0
 1054 1342 1038 1342 1024 1342 c 2
 998 1344 l 1
 1058 850 l 1
 1140 886 1224 916 1298 916 c 0
 1342 916 1384 906 1416 880 c 2
 1166 732 l 2
 1132 744 1098 752 1068 756 c 2
 1130 236 l 2
 1152 234 1170 232 1184 230 c 0
 1274 224 1342 198 1438 198 c 0
 1504 198 1582 210 1688 254 c 1
 1656 162 1568 90 1448 32 c 0
 1392 4 1274 -4 1170 -4 c 0
 1106 -4 1048 -2 1012 2 c 0
 1010 4 1010 6 1008 8 c 2
 974 -2 l 1
 930 642 l 1
 604 642 l 1
 504 400 l 2
 504 376 498 348 488 322 c 2
 636 204 l 1
 460 22 l 1
 398 86 336 110 272 110 c 0
 174 110 70 52 -40 -10 c 1
 28 162 248 362 392 362 c 0
 400 362 408 364 414 362 c 1
 810 1362 l 1
 780 1366 l 2
 688 1348 568 1304 402 1178 c 1
 474 1426 602 1576 814 1580 c 0
880 1308 m 1
 708 892 l 2
 726 892 744 892 766 892 c 0
 814 892 868 892 912 892 c 2
 890 1206 l 1
 880 1308 l 1
634 712 m 1
 616 668 l 1
 928 668 l 1
 924 712 l 1
 634 712 l 1
EndSplineSet
Validated: 1
EndChar

StartChar: grave
Encoding: 96 96 102
Width: 530
VWidth: 0
Flags: HW
LayerCount: 2
UndoRedoHistory
Layer: 1
Undoes
UndoOperation
Index: 0
Type: 1
WasModified: 0
WasOrder2: 0
Layer: 2
Width: 530
VWidth: 0
LBearingChange: 0
UnicodeEnc: 0
InstructionsLength: 0
SplineSet
188 1618 m 5
 260 1558 442 1454 524 1420 c 5
 458 1384 394 1346 328 1308 c 5
 246 1338 54 1500 -6 1500 c 0
 -8 1500 l 4
 -10 1500 -10 1502 -10 1502 c 0
 -10 1508 34 1526 46 1536 c 4
 92 1564 142 1590 188 1618 c 5
EndSplineSet
EndUndoOperation
EndUndoes
Redoes
EndRedoes
EndUndoRedoHistory
Fore
SplineSet
188 1618 m 5
 260 1558 442 1454 524 1420 c 5
 458 1384 394 1346 328 1308 c 5
 246 1338 54 1500 -6 1500 c 0
 -8 1500 l 4
 -10 1500 -10 1502 -10 1502 c 0
 -10 1508 34 1526 46 1536 c 4
 92 1564 142 1590 188 1618 c 5
EndSplineSet
Validated: 1
EndChar

StartChar: igrave
Encoding: 236 236 104
Width: 422
VWidth: 0
Flags: HW
LayerCount: 2
UndoRedoHistory
Layer: 1
Undoes
UndoOperation
Index: 0
Type: 1
WasModified: 0
WasOrder2: 0
Layer: 2
Width: 422
VWidth: 0
LBearingChange: 0
UnicodeEnc: 0
Refer: 102 96 S 1 0 0 1 -56 -248 2
InstructionsLength: 0
SplineSet
206 920 m 1
 396 730 l 1
 302 634 l 1
 302 286 l 1
 396 190 l 1
 206 0 l 1
 16 190 l 1
 112 288 l 1
 112 634 l 1
 16 730 l 1
 206 920 l 1
EndSplineSet
EndUndoOperation
EndUndoes
Redoes
EndRedoes
EndUndoRedoHistory
Fore
SplineSet
206 920 m 1
 396 730 l 1
 302 634 l 1
 302 286 l 1
 396 190 l 1
 206 0 l 1
 16 190 l 1
 112 288 l 1
 112 634 l 1
 16 730 l 1
 206 920 l 1
EndSplineSet
Refer: 102 96 S 1 0 0 1 -56 -248 2
Validated: 1
EndChar

StartChar: icircumflex
Encoding: 238 238 106
Width: 420
VWidth: 0
Flags: HW
LayerCount: 2
UndoRedoHistory
Layer: 1
Undoes
UndoOperation
Index: 0
Type: 1
WasModified: 0
WasOrder2: 0
Layer: 2
Width: 420
VWidth: 0
LBearingChange: 0
UnicodeEnc: 0
Refer: 119 94 S 1 0 0 1 -84 12 2
InstructionsLength: 0
SplineSet
200 920 m 1
 390 730 l 1
 296 634 l 1
 296 286 l 1
 390 190 l 1
 200 0 l 1
 10 190 l 1
 106 288 l 1
 106 634 l 1
 10 730 l 1
 200 920 l 1
EndSplineSet
EndUndoOperation
EndUndoes
Redoes
EndRedoes
EndUndoRedoHistory
Fore
SplineSet
200 920 m 1
 390 730 l 1
 296 634 l 1
 296 286 l 1
 390 190 l 1
 200 0 l 1
 10 190 l 1
 106 288 l 1
 106 634 l 1
 10 730 l 1
 200 920 l 1
EndSplineSet
Refer: 119 94 S 1 0 0 1 -84 12 2
Validated: 1
EndChar

StartChar: idieresis
Encoding: 239 239 107
Width: 426
VWidth: 0
Flags: HW
LayerCount: 2
UndoRedoHistory
Layer: 1
Undoes
UndoOperation
Index: 0
Type: 1
WasModified: 0
WasOrder2: 0
Layer: 2
Width: 426
VWidth: 0
LBearingChange: 0
UnicodeEnc: 0
Refer: 114 129 S 1 0 0 1 -180 0 2
InstructionsLength: 0
SplineSet
210 914 m 1
 400 724 l 1
 306 630 l 1
 306 280 l 1
 400 186 l 1
 210 -6 l 1
 18 186 l 1
 116 282 l 1
 116 628 l 1
 18 724 l 1
 210 914 l 1
EndSplineSet
EndUndoOperation
EndUndoes
Redoes
EndRedoes
EndUndoRedoHistory
Fore
SplineSet
210 914 m 1
 400 724 l 1
 306 630 l 1
 306 280 l 1
 400 186 l 1
 210 -6 l 1
 18 186 l 1
 116 282 l 1
 116 628 l 1
 18 724 l 1
 210 914 l 1
EndSplineSet
Refer: 114 129 S 1 0 0 1 -180 0 2
Validated: 1
EndChar

StartChar: uni0080
Encoding: 128 128 108
Width: 530
VWidth: 0
Flags: HW
LayerCount: 2
UndoRedoHistory
Layer: 1
Undoes
UndoOperation
Index: 0
Type: 1
WasModified: 0
WasOrder2: 0
Layer: 2
Width: 530
VWidth: 0
LBearingChange: 0
UnicodeEnc: 0
InstructionsLength: 0
SplineSet
188 1308 m 5
 260 1368 442 1472 524 1506 c 5
 458 1542 394 1580 328 1618 c 5
 246 1588 54 1426 -6 1426 c 4
 -8 1426 l 4
 -10 1426 -10 1424 -10 1424 c 4
 -10 1418 34 1400 46 1390 c 4
 92 1362 142 1336 188 1308 c 5
EndSplineSet
EndUndoOperation
EndUndoes
Redoes
EndRedoes
EndUndoRedoHistory
Fore
SplineSet
188 1308 m 5
 142 1336 92 1362 46 1390 c 4
 34 1400 -10 1418 -10 1424 c 4
 -10 1424 -10 1426 -8 1426 c 4
 -6 1426 l 4
 54 1426 246 1588 328 1618 c 5
 394 1580 458 1542 524 1506 c 5
 442 1472 260 1368 188 1308 c 5
EndSplineSet
Validated: 1
EndChar

StartChar: uni0081
Encoding: 129 129 114
Width: 372
VWidth: 0
Flags: HW
LayerCount: 2
UndoRedoHistory
Layer: 1
Undoes
UndoOperation
Index: 0
Type: 1
WasModified: 0
WasOrder2: 0
Layer: 2
Width: 372
VWidth: 0
LBearingChange: 0
UnicodeEnc: 0
InstructionsLength: 0
SplineSet
690 1258 m 2
 684 1246 558 1126 558 1126 c 1
 428 1254 l 1
 552 1372 l 1
 690 1258 l 2
374 1260 m 2
 368 1248 242 1128 242 1128 c 1
 110 1256 l 1
 236 1374 l 1
 374 1260 l 2
EndSplineSet
EndUndoOperation
EndUndoes
Redoes
EndRedoes
EndUndoRedoHistory
Fore
SplineSet
690 1258 m 2
 684 1246 558 1126 558 1126 c 1
 428 1254 l 1
 552 1372 l 1
 690 1258 l 2
374 1260 m 2
 368 1248 242 1128 242 1128 c 1
 110 1256 l 1
 236 1374 l 1
 374 1260 l 2
EndSplineSet
Validated: 1
EndChar

StartChar: ordfeminine
Encoding: 170 170 117
Width: 380
VWidth: 0
Flags: HW
LayerCount: 2
UndoRedoHistory
Layer: 1
Undoes
UndoOperation
Index: 0
Type: 1
WasModified: 1
WasOrder2: 0
Layer: 2
Width: 380
VWidth: 0
LBearingChange: 0
UnicodeEnc: 0
Refer: 9 97 S 0.5 0 0 0.5 38 888 2
InstructionsLength: 0
SplineSet
0 850 m 1
 380 850 l 1
 380 786 l 1
 0 786 l 1
 0 850 l 1
EndSplineSet
EndUndoOperation
EndUndoes
Redoes
EndRedoes
EndUndoRedoHistory
Fore
SplineSet
0 850 m 1
 380 850 l 1
 380 786 l 1
 0 786 l 1
 0 850 l 1
EndSplineSet
Refer: 9 97 S 0.5 0 0 0.5 38 888 2
Validated: 1
EndChar

StartChar: ordmasculine
Encoding: 186 186 118
Width: 380
VWidth: 0
Flags: HW
LayerCount: 2
UndoRedoHistory
Layer: 1
Undoes
UndoOperation
Index: 0
Type: 1
WasModified: 0
WasOrder2: 0
Layer: 2
Width: 380
VWidth: 0
LBearingChange: 0
UnicodeEnc: 0
Refer: 40 111 S 0.5 0 0 0.5 54 870 2
InstructionsLength: 0
SplineSet
0 850 m 1
 380 850 l 1
 380 786 l 1
 0 786 l 1
 0 850 l 1
EndSplineSet
EndUndoOperation
EndUndoes
Redoes
EndRedoes
EndUndoRedoHistory
Fore
SplineSet
0 850 m 1
 380 850 l 1
 380 786 l 1
 0 786 l 1
 0 850 l 1
EndSplineSet
Refer: 40 111 S 0.5 0 0 0.5 54 870 2
Validated: 1
EndChar

StartChar: asciicircum
Encoding: 94 94 119
Width: 634
VWidth: 0
Flags: HW
LayerCount: 2
UndoRedoHistory
Layer: 1
Undoes
UndoOperation
Index: 0
Type: 1
WasModified: 0
WasOrder2: 0
Layer: 2
Width: 634
VWidth: 0
LBearingChange: 0
UnicodeEnc: 0
InstructionsLength: 0
SplineSet
-14 1218 m 1
 338 1628 l 1
 630 1344 l 1
 464 1144 l 1
 208 1388 l 1
 30 1178 l 1
 -14 1218 l 1
EndSplineSet
EndUndoOperation
EndUndoes
Redoes
EndRedoes
EndUndoRedoHistory
Fore
SplineSet
-14 1218 m 1
 338 1628 l 1
 630 1344 l 1
 464 1144 l 1
 208 1388 l 1
 30 1178 l 1
 -14 1218 l 1
EndSplineSet
Validated: 1
EndChar

StartChar: asciitilde
Encoding: 126 126 120
Width: 670
VWidth: 0
Flags: HW
LayerCount: 2
UndoRedoHistory
Layer: 1
Undoes
UndoOperation
Index: 0
Type: 1
WasModified: 1
WasOrder2: 0
Layer: 2
Width: 670
VWidth: 0
LBearingChange: 0
UnicodeEnc: 0
InstructionsLength: 0
SplineSet
12 622 m 1
 22 656 242 928 300 952 c 0
 306 954 312 956 318 956 c 0
 370 956 422 868 466 832 c 0
 486 818 508 788 532 788 c 0
 534 788 536 788 538 788 c 0
 576 796 624 854 630 860 c 0
 636 866 676 902 686 904 c 1
 686 904 686 903 686 903 c 0
 686 889 661.926031139 843.926031139 660 842 c 4
 638 798 480 632 452 610 c 0
 432 596 406 582 380 582 c 0
 370 582 362 584 352 590 c 0
 292 624 252 682 200 726 c 0
 196 730 190 732 184 732 c 0
 142 732 60 634 12 622 c 1
EndSplineSet
EndUndoOperation
EndUndoes
Redoes
EndRedoes
EndUndoRedoHistory
Fore
SplineSet
12 622 m 1
 22 656 242 928 300 952 c 0
 306 954 312 956 318 956 c 0
 370 956 422 868 466 832 c 0
 486 818 508 788 532 788 c 0
 534 788 536 788 538 788 c 0
 576 796 624 854 630 860 c 0
 636 866 676 902 686 904 c 1
 686 904 686 903 686 903 c 0
 686 889 662 844 660 842 c 0
 638 798 480 632 452 610 c 0
 432 596 406 582 380 582 c 0
 370 582 362 584 352 590 c 0
 292 624 252 682 200 726 c 0
 196 730 190 732 184 732 c 0
 142 732 60 634 12 622 c 1
EndSplineSet
Validated: 1
EndChar

StartChar: Aring
Encoding: 197 197 139
Width: 1712
VWidth: 0
Flags: HW
LayerCount: 2
UndoRedoHistory
Layer: 1
Undoes
UndoOperation
Index: 0
Type: 1
WasModified: 0
WasOrder2: 0
Layer: 2
Width: 1712
VWidth: 0
LBearingChange: 0
UnicodeEnc: 0
Refer: 0 65 N 1 0 0 1 0 0 2
InstructionsLength: 0
SplineSet
600 1840 m 1
 648 1890 752 1960 832 2014 c 0
 854 1996 952 1942 1000 1936 c 1
 986 1922 984 1902 984 1880 c 0
 984 1864 986 1846 986 1830 c 0
 986 1806 986 1774 988 1748 c 1
 994 1748 1008 1746 1024 1748 c 1
 972 1692 864 1614 792 1568 c 0
 762 1576 648 1618 608 1638 c 1
 626 1654 654 1672 668 1692 c 0
 668 1704 668 1714 668 1724 c 0
 668 1742 668 1758 668 1778 c 0
 668 1782 666 1788 666 1792 c 0
 666 1808 668 1826 668 1842 c 0
 668 1844 668 1862 666 1862 c 0
 644 1862 630 1850 600 1840 c 1
880 1856 m 0
 842 1874 812 1886 780 1898 c 1
 780 1876 780 1850 780 1824 c 0
 780 1778 780 1730 780 1698 c 0
 804 1688 852 1678 880 1670 c 1
 880 1674 880 1680 880 1688 c 0
 880 1718 880 1774 880 1814 c 0
 880 1832 880 1848 880 1856 c 0
EndSplineSet
EndUndoOperation
EndUndoes
Redoes
EndRedoes
EndUndoRedoHistory
Fore
SplineSet
600 1840 m 1
 648 1890 752 1960 832 2014 c 0
 854 1996 952 1942 1000 1936 c 1
 986 1922 984 1902 984 1880 c 0
 984 1864 986 1846 986 1830 c 0
 986 1806 986 1774 988 1748 c 1
 994 1748 1008 1746 1024 1748 c 1
 972 1692 864 1614 792 1568 c 0
 762 1576 648 1618 608 1638 c 1
 626 1654 654 1672 668 1692 c 0
 668 1704 668 1714 668 1724 c 0
 668 1742 668 1758 668 1778 c 0
 668 1782 666 1788 666 1792 c 0
 666 1808 668 1826 668 1842 c 0
 668 1844 668 1862 666 1862 c 0
 644 1862 630 1850 600 1840 c 1
880 1856 m 0
 842 1874 812 1886 780 1898 c 1
 780 1876 780 1850 780 1824 c 0
 780 1778 780 1730 780 1698 c 0
 804 1688 852 1678 880 1670 c 1
 880 1674 880 1680 880 1688 c 0
 880 1718 880 1774 880 1814 c 0
 880 1832 880 1848 880 1856 c 0
EndSplineSet
Refer: 0 65 N 1 0 0 1 0 0 2
Validated: 1
EndChar

StartChar: slash
Encoding: 47 47 147
Width: 734
VWidth: 0
Flags: HW
LayerCount: 2
UndoRedoHistory
Layer: 1
Undoes
UndoOperation
Index: 0
Type: 1
WasModified: 0
WasOrder2: 0
Layer: 2
Width: 734
VWidth: 0
LBearingChange: 0
UnicodeEnc: 0
InstructionsLength: 0
SplineSet
748 1146 m 2
 184 0 l 2
 162 48 50 150 2 170 c 2
 566 1310 l 2
 580 1278 710 1154 748 1146 c 2
EndSplineSet
EndUndoOperation
EndUndoes
Redoes
EndRedoes
EndUndoRedoHistory
Fore
SplineSet
748 1146 m 2
 184 0 l 2
 162 48 50 150 2 170 c 2
 566 1310 l 2
 580 1278 710 1154 748 1146 c 2
EndSplineSet
Validated: 1
EndChar

StartChar: onequarter
Encoding: 188 188 149
Width: 650
VWidth: 0
Flags: HW
LayerCount: 2
UndoRedoHistory
Layer: 1
Undoes
UndoOperation
Index: 0
Type: 1
WasModified: 0
WasOrder2: 0
Layer: 2
Width: 650
VWidth: 0
LBearingChange: 0
UnicodeEnc: 0
InstructionsLength: 0
SplineSet
130 1334 m 1
 134 1238 134 1098 134 966 c 0
 134 884 134 806 134 746 c 0
 158 742 180 732 204 712 c 2
 142 638 l 1
 112 676 82 688 54 688 c 0
 26 688 -2 674 -34 656 c 1
 -12 686 20 718 56 734 c 2
 56 1244 l 1
 32 1234 l 1
 26 1242 l 2
 58 1270 96 1304 130 1334 c 1
434 1068 m 2
 442 1052 508 988 526 984 c 2
 122 204 l 2
 110 228 54 280 30 290 c 2
 434 1068 l 2
554 772 m 1
 554 396 l 1
 620 396 l 1
 564 312 l 1
 554 312 l 1
 554 206 l 1
 590 164 l 1
 522 84 l 1
 452 164 l 1
 486 204 l 1
 486 308 l 1
 460 308 428 308 394 308 c 0
 338 308 276 308 224 310 c 1
 554 772 l 1
486 642 m 1
 416 536 308 396 308 396 c 2
 320 396 390 396 442 396 c 0
 460 396 476 396 486 396 c 2
 486 642 l 1
EndSplineSet
EndUndoOperation
EndUndoes
Redoes
EndRedoes
EndUndoRedoHistory
Fore
SplineSet
130 1334 m 1
 134 1238 134 1098 134 966 c 0
 134 884 134 806 134 746 c 0
 158 742 180 732 204 712 c 2
 142 638 l 1
 112 676 82 688 54 688 c 0
 26 688 -2 674 -34 656 c 1
 -12 686 20 718 56 734 c 2
 56 1244 l 1
 32 1234 l 1
 26 1242 l 2
 58 1270 96 1304 130 1334 c 1
434 1068 m 2
 442 1052 508 988 526 984 c 2
 122 204 l 2
 110 228 54 280 30 290 c 2
 434 1068 l 2
554 772 m 1
 554 396 l 1
 620 396 l 1
 564 312 l 1
 554 312 l 1
 554 206 l 1
 590 164 l 1
 522 84 l 1
 452 164 l 1
 486 204 l 1
 486 308 l 1
 460 308 428 308 394 308 c 0
 338 308 276 308 224 310 c 1
 554 772 l 1
486 642 m 1
 416 536 308 396 308 396 c 2
 320 396 390 396 442 396 c 0
 460 396 476 396 486 396 c 2
 486 642 l 1
EndSplineSet
Validated: 1
EndChar

StartChar: onehalf
Encoding: 189 189 150
Width: 706
VWidth: 0
Flags: HW
LayerCount: 2
UndoRedoHistory
Layer: 1
Undoes
UndoOperation
Index: 0
Type: 1
WasModified: 0
WasOrder2: 0
Layer: 2
Width: 706
VWidth: 0
LBearingChange: 0
UnicodeEnc: 0
InstructionsLength: 0
SplineSet
124 1336 m 1
 128 1240 128 1098 128 966 c 0
 128 884 128 806 128 746 c 0
 152 742 174 732 198 712 c 2
 136 638 l 1
 106 676 76 690 48 690 c 0
 20 690 -8 676 -40 658 c 1
 -18 688 14 718 50 734 c 2
 50 1246 l 1
 26 1236 l 1
 20 1244 l 2
 52 1272 90 1306 124 1336 c 1
428 1068 m 2
 436 1052 502 990 520 986 c 2
 116 206 l 2
 104 230 48 280 24 290 c 2
 428 1068 l 2
528 752 m 1
 528 752 l 2
 546 738 628 692 670 688 c 1
 658 676 656 658 656 640 c 0
 656 626 658 612 658 598 c 0
 658 578 658 552 660 530 c 1
 666 530 676 528 690 530 c 1
 664 504 624 468 582 438 c 2
 484 374 l 2
 484 356 484 330 484 302 c 0
 484 254 484 200 484 172 c 2
 484 172 l 2
 508 172 532 172 556 172 c 0
 614 172 668 172 724 178 c 1
 650 152 644 118 614 90 c 0
 594 92 576 92 558 92 c 0
 504 92 452 88 400 88 c 0
 380 88 360 88 340 90 c 1
 354 102 378 134 390 152 c 0
 390 162 390 176 390 192 c 0
 390 222 390 256 390 272 c 0
 390 276 390 280 390 284 c 0
 390 298 390 310 390 324 c 0
 390 330 390 338 390 344 c 0
 370 344 360 332 334 324 c 1
 356 346 392 372 430 400 c 2
 568 498 l 2
 568 500 568 506 568 512 c 0
 568 532 568 566 568 592 c 0
 568 604 568 612 568 620 c 0
 536 634 512 646 484 656 c 2
 390 626 l 2
 370 626 360 614 334 606 c 1
 374 648 460 706 528 752 c 1
EndSplineSet
EndUndoOperation
EndUndoes
Redoes
EndRedoes
EndUndoRedoHistory
Fore
SplineSet
124 1336 m 1
 128 1240 128 1098 128 966 c 0
 128 884 128 806 128 746 c 0
 152 742 174 732 198 712 c 2
 136 638 l 1
 106 676 76 690 48 690 c 0
 20 690 -8 676 -40 658 c 1
 -18 688 14 718 50 734 c 2
 50 1246 l 1
 26 1236 l 1
 20 1244 l 2
 52 1272 90 1306 124 1336 c 1
428 1068 m 2
 436 1052 502 990 520 986 c 2
 116 206 l 2
 104 230 48 280 24 290 c 2
 428 1068 l 2
528 752 m 5
 528 752 l 6
 546 738 628 692 670 688 c 5
 658 676 656 658 656 640 c 0
 656 626 658 612 658 598 c 0
 658 578 658 552 660 530 c 1
 666 530 676 528 690 530 c 1
 664 504 624 468 582 438 c 2
 484 374 l 2
 484 356 484 330 484 302 c 0
 484 254 484 200 484 172 c 2
 484 172 l 2
 508 172 532 172 556 172 c 0
 614 172 668 172 724 178 c 1
 650 152 644 118 614 90 c 0
 594 92 576 92 558 92 c 0
 504 92 452 88 400 88 c 0
 380 88 360 88 340 90 c 1
 354 102 378 134 390 152 c 0
 390 162 390 176 390 192 c 0
 390 222 390 256 390 272 c 0
 390 276 390 280 390 284 c 0
 390 298 390 310 390 324 c 0
 390 330 390 338 390 344 c 0
 370 344 360 332 334 324 c 1
 356 346 392 372 430 400 c 2
 568 498 l 2
 568 500 568 506 568 512 c 0
 568 532 568 566 568 592 c 0
 568 604 568 612 568 620 c 0
 536 634 512 646 484 656 c 2
 390 626 l 2
 370 626 360 614 334 606 c 5
 374 648 460 706 528 752 c 5
EndSplineSet
Validated: 5
EndChar

StartChar: cent
Encoding: 162 162 151
Width: 608
VWidth: 0
Flags: HW
LayerCount: 2
UndoRedoHistory
Layer: 1
Undoes
UndoOperation
Index: 0
Type: 1
WasModified: 0
WasOrder2: 0
Layer: 2
Width: 608
VWidth: 0
LBearingChange: 0
UnicodeEnc: 0
InstructionsLength: 0
SplineSet
400 1340 m 1
 400 1130 l 2
 462 1084 572 1016 636 1016 c 0
 642 1016 648 1016 654 1018 c 2
 468 848 l 2
 398 850 328 890 274 916 c 1
 274 868 272 814 272 758 c 0
 272 658 274 556 274 486 c 0
 314 466 394 446 440 428 c 2
 574 556 l 2
 586 558 606 550 632 556 c 1
 570 472 488 380 400 300 c 2
 400 140 l 1
 256 8 l 1
 256 222 l 2
 182 254 42 322 -14 358 c 1
 16 392 60 430 84 474 c 0
 86 498 86 520 86 542 c 0
 86 582 84 618 84 660 c 0
 84 670 84 680 84 690 c 0
 84 724 84 758 84 794 c 0
 84 798 86 840 84 840 c 0
 46 840 22 814 -28 792 c 1
 32 872 146 974 256 1070 c 2
 256 1208 l 1
 400 1340 l 1
EndSplineSet
EndUndoOperation
EndUndoes
Redoes
EndRedoes
EndUndoRedoHistory
Fore
SplineSet
400 1340 m 1
 400 1130 l 2
 462 1084 572 1016 636 1016 c 0
 642 1016 648 1016 654 1018 c 2
 468 848 l 2
 398 850 328 890 274 916 c 1
 274 868 272 814 272 758 c 0
 272 658 274 556 274 486 c 0
 314 466 394 446 440 428 c 2
 574 556 l 2
 586 558 606 550 632 556 c 1
 570 472 488 380 400 300 c 2
 400 140 l 1
 256 8 l 1
 256 222 l 2
 182 254 42 322 -14 358 c 1
 16 392 60 430 84 474 c 0
 86 498 86 520 86 542 c 0
 86 582 84 618 84 660 c 0
 84 670 84 680 84 690 c 0
 84 724 84 758 84 794 c 0
 84 798 86 840 84 840 c 0
 46 840 22 814 -28 792 c 1
 32 872 146 974 256 1070 c 2
 256 1208 l 1
 400 1340 l 1
EndSplineSet
Validated: 1
EndChar

StartChar: backslash
Encoding: 92 92 152
Width: 730
VWidth: 0
Flags: HW
LayerCount: 2
UndoRedoHistory
Layer: 1
Undoes
UndoOperation
Index: 0
Type: 1
WasModified: 0
WasOrder2: 0
Layer: 2
Width: 730
VWidth: 0
LBearingChange: 0
UnicodeEnc: 0
InstructionsLength: 0
SplineSet
-24 1146 m 2
 14 1154 144 1278 158 1310 c 2
 722 170 l 2
 674 150 562 48 540 0 c 2
 -24 1146 l 2
EndSplineSet
EndUndoOperation
EndUndoes
Redoes
EndRedoes
EndUndoRedoHistory
Fore
SplineSet
-24 1146 m 2
 14 1154 144 1278 158 1310 c 2
 722 170 l 2
 674 150 562 48 540 0 c 2
 -24 1146 l 2
EndSplineSet
Validated: 1
EndChar

StartChar: at
Encoding: 64 64 153
Width: 926
VWidth: 0
Flags: HW
LayerCount: 2
UndoRedoHistory
Layer: 1
Undoes
UndoOperation
Index: 0
Type: 1
WasModified: 0
WasOrder2: 0
Layer: 2
Width: 926
VWidth: 0
LBearingChange: 0
UnicodeEnc: 0
InstructionsLength: 0
SplineSet
384 814 m 0
 378 814 370 814 362 814 c 0
 362 800 362 776 362 746 c 0
 362 676 364 574 364 510 c 0
 364 490 362 474 362 464 c 0
 362 448 386 436 418 436 c 0
 454 436 498 450 536 486 c 0
 538 522 540 554 540 586 c 0
 540 612 538 638 536 666 c 0
 534 774 486 814 392 814 c 0
 390 814 386 814 384 814 c 0
574 1224 m 1
 726 1088 776 1002 944 964 c 1
 1002 966 l 1
 908 916 l 1
 908 550 l 1
 908 544 l 1
 930 552 l 1
 918 542 l 1
 908 534 l 1
 908 534 632 308 594 282 c 1
 542 304 564 326 508 358 c 1
 464 300 420 282 374 282 c 0
 334 282 292 298 250 308 c 0
 242 312 222 314 190 316 c 1
 240 370 252 424 252 492 c 0
 252 542 246 600 246 668 c 0
 242 704 214 740 190 740 c 0
 186 740 182 738 178 736 c 1
 244 794 392 926 460 994 c 1
 554 954 572 876 696 876 c 0
 710 876 724 878 740 880 c 1
 736 862 730 842 720 816 c 1
 700 806 680 814 672 784 c 0
 664 756 662 694 662 630 c 0
 662 574 666 518 668 470 c 1
 678 450 686 430 708 422 c 1
 752 458 l 1
 762 906 l 1
 618 968 558 1020 462 1126 c 1
 164 990 l 1
 164 254 l 1
 312 204 416 172 538 94 c 1
 670 172 762 224 884 284 c 1
 766 206 422 0 422 0 c 1
 286 70 70 184 -84 184 c 1
 22 238 l 1
 22 928 l 1
 -46 910 l 1
 574 1224 l 1
EndSplineSet
EndUndoOperation
EndUndoes
Redoes
EndRedoes
EndUndoRedoHistory
Fore
SplineSet
384 814 m 0
 378 814 370 814 362 814 c 0
 362 800 362 776 362 746 c 0
 362 676 364 574 364 510 c 0
 364 490 362 474 362 464 c 0
 362 448 386 436 418 436 c 0
 454 436 498 450 536 486 c 0
 538 522 540 554 540 586 c 0
 540 612 538 638 536 666 c 0
 534 774 486 814 392 814 c 0
 390 814 386 814 384 814 c 0
574 1224 m 1
 726 1088 776 1002 944 964 c 1
 1002 966 l 1
 908 916 l 1
 908 550 l 1
 908 544 l 1
 930 552 l 1
 918 542 l 1
 908 534 l 1
 908 534 632 308 594 282 c 1
 542 304 564 326 508 358 c 1
 464 300 420 282 374 282 c 0
 334 282 292 298 250 308 c 0
 242 312 222 314 190 316 c 1
 240 370 252 424 252 492 c 0
 252 542 246 600 246 668 c 0
 242 704 214 740 190 740 c 0
 186 740 182 738 178 736 c 1
 244 794 392 926 460 994 c 1
 554 954 572 876 696 876 c 0
 710 876 724 878 740 880 c 1
 736 862 730 842 720 816 c 1
 700 806 680 814 672 784 c 0
 664 756 662 694 662 630 c 0
 662 574 666 518 668 470 c 1
 678 450 686 430 708 422 c 1
 752 458 l 1
 762 906 l 1
 618 968 558 1020 462 1126 c 1
 164 990 l 1
 164 254 l 1
 312 204 416 172 538 94 c 1
 670 172 762 224 884 284 c 1
 766 206 422 0 422 0 c 1
 286 70 70 184 -84 184 c 1
 22 238 l 1
 22 928 l 1
 -46 910 l 1
 574 1224 l 1
EndSplineSet
Validated: 1
EndChar

StartChar: threequarters
Encoding: 190 190 158
Width: 888
VWidth: 0
Flags: HW
LayerCount: 2
UndoRedoHistory
Layer: 1
Undoes
UndoOperation
Index: 0
Type: 1
WasModified: 0
WasOrder2: 0
Layer: 2
Width: 888
VWidth: 0
LBearingChange: 0
UnicodeEnc: 0
InstructionsLength: 0
SplineSet
232 1304 m 1
 232 1304 l 1
 254 1290 352 1242 400 1238 c 1
 386 1226 382 1208 382 1190 c 0
 382 1176 384 1160 384 1146 c 0
 384 1126 386 1136 388 1112 c 1
 394 1112 406 1110 422 1112 c 1
 392 1084 344 1050 294 1018 c 1
 330 1002 372 986 400 984 c 1
 386 972 382 954 382 936 c 0
 382 922 384 906 384 892 c 0
 384 872 386 808 388 784 c 1
 394 784 406 782 422 784 c 1
 370 736 264 670 192 630 c 1
 162 636 50 672 10 690 c 1
 28 704 54 718 68 736 c 2
 180 742 l 2
 204 734 250 724 278 718 c 1
 278 722 278 728 278 736 c 0
 278 768 280 828 280 872 c 0
 280 892 278 906 278 914 c 1
 240 930 212 942 180 952 c 1
 180 952 l 1
 180 952 264 1034 278 1046 c 0
 278 1050 278 1052 278 1058 c 0
 278 1078 280 1112 280 1138 c 0
 280 1150 278 1160 278 1168 c 1
 240 1184 212 1196 180 1206 c 1
 68 1174 l 2
 46 1174 32 1164 2 1154 c 1
 50 1196 152 1258 232 1304 c 1
666 1116 m 2
 674 1098 748 1028 768 1024 c 1
 608 718 l 0
 322 164 l 1
 310 190 248 248 222 258 c 1
 666 1116 l 2
798 790 m 1
 798 376 l 1
 870 376 l 1
 808 282 l 1
 798 282 l 1
 798 166 l 1
 838 122 l 1
 762 32 l 1
 686 122 l 1
 724 164 l 1
 724 280 l 1
 694 280 658 280 622 280 c 0
 560 280 490 280 434 282 c 1
 798 790 l 1
724 646 m 1
 646 528 526 376 526 376 c 2
 540 376 618 376 676 376 c 0
 696 376 712 376 724 376 c 1
 724 646 l 1
EndSplineSet
EndUndoOperation
EndUndoes
Redoes
EndRedoes
EndUndoRedoHistory
Fore
SplineSet
232 1304 m 1
 232 1304 l 1
 254 1290 352 1242 400 1238 c 1
 386 1226 382 1208 382 1190 c 0
 382 1176 384 1160 384 1146 c 0
 384 1126 386 1136 388 1112 c 1
 394 1112 406 1110 422 1112 c 1
 392 1084 344 1050 294 1018 c 1
 330 1002 372 986 400 984 c 1
 386 972 382 954 382 936 c 0
 382 922 384 906 384 892 c 0
 384 872 386 808 388 784 c 1
 394 784 406 782 422 784 c 1
 370 736 264 670 192 630 c 1
 162 636 50 672 10 690 c 1
 28 704 54 718 68 736 c 2
 180 742 l 2
 204 734 250 724 278 718 c 1
 278 722 278 728 278 736 c 0
 278 768 280 828 280 872 c 0
 280 892 278 906 278 914 c 1
 240 930 212 942 180 952 c 1
 180 952 l 1
 180 952 264 1034 278 1046 c 0
 278 1050 278 1052 278 1058 c 0
 278 1078 280 1112 280 1138 c 0
 280 1150 278 1160 278 1168 c 1
 240 1184 212 1196 180 1206 c 1
 68 1174 l 2
 46 1174 32 1164 2 1154 c 1
 50 1196 152 1258 232 1304 c 1
666 1116 m 2
 674 1098 748 1028 768 1024 c 1
 608 718 l 0
 322 164 l 1
 310 190 248 248 222 258 c 1
 666 1116 l 2
798 790 m 1
 798 376 l 1
 870 376 l 1
 808 282 l 1
 798 282 l 1
 798 166 l 1
 838 122 l 1
 762 32 l 1
 686 122 l 1
 724 164 l 1
 724 280 l 1
 694 280 658 280 622 280 c 0
 560 280 490 280 434 282 c 1
 798 790 l 1
724 646 m 1
 646 528 526 376 526 376 c 2
 540 376 618 376 676 376 c 0
 696 376 712 376 724 376 c 1
 724 646 l 1
EndSplineSet
Validated: 5
EndChar

StartChar: Ccedilla
Encoding: 199 199 159
Width: 1340
VWidth: 0
Flags: HW
LayerCount: 2
UndoRedoHistory
Layer: 1
Undoes
UndoOperation
Index: 0
Type: 1
WasModified: 0
WasOrder2: 0
Layer: 2
Width: 1340
VWidth: 0
LBearingChange: 0
UnicodeEnc: 0
InstructionsLength: 0
SplineSet
850 1490 m 5
 850 1490 l 5
 890 1412 1038 1316 1104 1316 c 5
 1076 1264 980 1180 914 1128 c 5
 910 1134 902 1142 888 1150 c 6
 888 204 l 5
 1020 206 1208 276 1308 362 c 5
 1230 216 1038 62 878 20 c 5
 872 -66 l 5
 1038 -38 l 5
 1028 -66 1024 -92 1024 -116 c 0
 1024 -138 1028 -160 1034 -186 c 5
 952 -208 926 -238 872 -300 c 5
 832 -288 800 -282 774 -282 c 0
 718 -282 682 -308 620 -358 c 5
 656 -290 l 5
 706 -268 752 -236 800 -236 c 0
 810 -236 820 -236 830 -240 c 5
 862 -122 l 5
 682 -146 l 5
 694 -122 698 -100 698 -78 c 0
 698 -54 694 -30 686 -2 c 4
 684 -2 682 -2 680 -2 c 4
 676 -2 672 -2 668 -2 c 4
 378 14 94 258 36 542 c 4
 28 580 22 640 22 678 c 4
 22 902 180 1168 376 1276 c 5
 292 1176 226 988 226 858 c 4
 226 816 234 748 244 706 c 4
 304 460 556 236 808 208 c 4
 820 206 836 206 848 206 c 6
 848 1172 l 5
 804 1192 748 1208 714 1208 c 6
 732 654 l 5
 502 492 l 5
 502 1124 l 5
 452 1062 l 5
 452 1062 416 1056 360 1050 c 5
 432 1146 850 1490 850 1490 c 5
EndSplineSet
EndUndoOperation
EndUndoes
Redoes
EndRedoes
EndUndoRedoHistory
Fore
SplineSet
850 1490 m 1
 850 1490 l 1
 890 1412 1038 1316 1104 1316 c 1
 1076 1264 980 1180 914 1128 c 1
 910 1134 902 1142 888 1150 c 2
 888 204 l 1
 1020 206 1208 276 1308 362 c 1
 1230 216 1038 62 878 20 c 1
 872 -66 l 1
 1038 -38 l 1
 1028 -66 1024 -92 1024 -116 c 0
 1024 -138 1028 -160 1034 -186 c 1
 952 -208 926 -238 872 -300 c 1
 832 -288 800 -282 774 -282 c 0
 718 -282 682 -308 620 -358 c 1
 656 -290 l 1
 706 -268 752 -236 800 -236 c 0
 810 -236 820 -236 830 -240 c 1
 862 -122 l 1
 682 -146 l 1
 694 -122 698 -100 698 -78 c 0
 698 -54 694 -30 686 -2 c 0
 684 -2 682 -2 680 -2 c 0
 676 -2 672 -2 668 -2 c 0
 378 14 94 258 36 542 c 0
 28 580 22 640 22 678 c 0
 22 902 180 1168 376 1276 c 1
 292 1176 226 988 226 858 c 0
 226 816 234 748 244 706 c 0
 304 460 556 236 808 208 c 0
 820 206 836 206 848 206 c 2
 848 1172 l 1
 804 1192 748 1208 714 1208 c 2
 732 654 l 1
 502 492 l 1
 502 1124 l 1
 452 1062 l 1
 452 1062 416 1056 360 1050 c 1
 432 1146 850 1490 850 1490 c 1
EndSplineSet
Validated: 5
EndChar

StartChar: underscore
Encoding: 95 95 162
Width: 938
VWidth: 0
Flags: HW
LayerCount: 2
UndoRedoHistory
Layer: 1
Undoes
UndoOperation
Index: 0
Type: 1
WasModified: 0
WasOrder2: 0
Layer: 2
Width: 938
VWidth: 0
LBearingChange: 0
UnicodeEnc: 0
InstructionsLength: 0
SplineSet
-14 160 m 1
 1124 160 l 1
 964 0 l 1
 -174 0 l 1
 -14 160 l 1
EndSplineSet
EndUndoOperation
EndUndoes
Redoes
EndRedoes
EndUndoRedoHistory
Fore
SplineSet
-14 160 m 1
 1124 160 l 1
 964 0 l 1
 -174 0 l 1
 -14 160 l 1
EndSplineSet
Validated: 1
EndChar

StartChar: bracketleft
Encoding: 91 91 163
Width: 426
VWidth: 0
Flags: HW
LayerCount: 2
UndoRedoHistory
Layer: 1
Undoes
UndoOperation
Index: 0
Type: 1
WasModified: 0
WasOrder2: 0
Layer: 2
Width: 426
VWidth: 0
LBearingChange: 0
UnicodeEnc: 0
InstructionsLength: 0
SplineSet
160 1368 m 1
 480 1368 l 1
 320 1208 l 1
 160 1208 l 1
 160 88 l 1
 480 88 l 1
 320 -72 l 1
 160 -72 l 1
 0 -72 l 1
 0 1208 l 1
 160 1368 l 1
EndSplineSet
EndUndoOperation
EndUndoes
Redoes
EndRedoes
EndUndoRedoHistory
Fore
SplineSet
160 1368 m 1
 480 1368 l 1
 320 1208 l 1
 160 1208 l 1
 160 88 l 1
 480 88 l 1
 320 -72 l 1
 160 -72 l 1
 0 -72 l 1
 0 1208 l 1
 160 1368 l 1
EndSplineSet
Validated: 1
EndChar

StartChar: bracketright
Encoding: 93 93 164
Width: 408
VWidth: 0
Flags: HW
LayerCount: 2
UndoRedoHistory
Layer: 1
Undoes
UndoOperation
Index: 0
Type: 1
WasModified: 0
WasOrder2: 0
Layer: 2
Width: 408
VWidth: 0
LBearingChange: 0
UnicodeEnc: 0
InstructionsLength: 0
SplineSet
72 1362 m 1
 392 1362 l 1
 392 82 l 1
 232 -78 l 1
 -88 -78 l 1
 72 82 l 1
 232 82 l 1
 232 1202 l 1
 -88 1202 l 1
 72 1362 l 1
EndSplineSet
EndUndoOperation
EndUndoes
Redoes
EndRedoes
EndUndoRedoHistory
Fore
SplineSet
72 1362 m 1
 392 1362 l 1
 392 82 l 1
 232 -78 l 1
 -88 -78 l 1
 72 82 l 1
 232 82 l 1
 232 1202 l 1
 -88 1202 l 1
 72 1362 l 1
EndSplineSet
Validated: 1
EndChar

StartChar: Thorn
Encoding: 222 222 165
Width: 600
VWidth: 0
Flags: HW
LayerCount: 2
UndoRedoHistory
Layer: 1
Undoes
UndoOperation
Index: 0
Type: 1
WasModified: 0
WasOrder2: 0
Layer: 2
Width: 600
VWidth: 0
LBearingChange: 0
UnicodeEnc: 0
InstructionsLength: 0
SplineSet
136 1624 m 1
 220 1540 l 1
 224 1542 l 1
 224 1538 l 1
 328 1432 l 1
 224 1328 l 1
 224 1212 l 1
 258 1242 290 1270 322 1298 c 1
 360 1260 524 1144 606 1132 c 5
 582 1100 578 1056 578 1010 c 0
 578 974 580 938 580 902 c 4
 580 898 580 894 580 888 c 0
 580 840 582 778 584 726 c 5
 596 728 616 720 642 726 c 5
 556 606 376 440 254 340 c 0
 246 342 236 346 224 352 c 1
 224 240 l 1
 328 136 l 1
 136 -56 l 1
 -56 136 l 1
 46 238 l 1
 46 436 l 1
 6 456 -32 476 -54 490 c 1
 -24 524 20 564 44 608 c 1
 46 632 46 652 46 674 c 0
 46 714 44 752 44 794 c 0
 44 804 44 814 44 824 c 0
 44 858 46 892 46 928 c 0
 46 944 44 958 44 974 c 1
 6 974 -16 948 -68 926 c 1
 -40 964 0 1006 46 1050 c 1
 46 1332 l 1
 -56 1432 l 1
 136 1624 l 1
234 1052 m 1
 234 1004 234 948 234 892 c 0
 234 792 234 690 234 620 c 1
 274 600 354 580 402 562 c 5
 402 570 400 582 400 598 c 0
 400 662 402 782 402 870 c 0
 402 908 402 942 402 960 c 5
 338 998 288 1026 234 1052 c 1
EndSplineSet
EndUndoOperation
EndUndoes
Redoes
EndRedoes
EndUndoRedoHistory
Fore
SplineSet
136 1624 m 1
 220 1540 l 1
 224 1542 l 1
 224 1538 l 1
 328 1432 l 1
 224 1328 l 1
 224 1212 l 1
 258 1242 290 1270 322 1298 c 1
 360 1260 524 1144 606 1132 c 5
 582 1100 578 1056 578 1010 c 0
 578 974 580 938 580 902 c 4
 580 898 580 894 580 888 c 0
 580 840 582 778 584 726 c 5
 596 728 616 720 642 726 c 5
 556 606 376 440 254 340 c 0
 246 342 236 346 224 352 c 1
 224 240 l 1
 328 136 l 1
 136 -56 l 1
 -56 136 l 1
 46 238 l 1
 46 436 l 1
 6 456 -32 476 -54 490 c 1
 -24 524 20 564 44 608 c 1
 46 632 46 652 46 674 c 0
 46 714 44 752 44 794 c 0
 44 804 44 814 44 824 c 0
 44 858 46 892 46 928 c 0
 46 944 44 958 44 974 c 1
 6 974 -16 948 -68 926 c 1
 -40 964 0 1006 46 1050 c 1
 46 1332 l 1
 -56 1432 l 1
 136 1624 l 1
234 1052 m 1
 234 1004 234 948 234 892 c 0
 234 792 234 690 234 620 c 1
 274 600 354 580 402 562 c 5
 402 570 400 582 400 598 c 0
 400 662 402 782 402 870 c 0
 402 908 402 942 402 960 c 5
 338 998 288 1026 234 1052 c 1
EndSplineSet
Validated: 1
EndChar

StartChar: ccedilla
Encoding: 231 231 166
Width: 486
VWidth: 0
Flags: HW
LayerCount: 2
UndoRedoHistory
Layer: 1
Undoes
UndoOperation
Index: 0
Type: 1
WasModified: 0
WasOrder2: 0
Layer: 2
Width: 486
VWidth: 0
LBearingChange: 0
UnicodeEnc: 0
InstructionsLength: 0
SplineSet
284 904 m 1
 318 870 478 758 562 758 c 0
 568 758 574 758 580 760 c 1
 392 590 l 1
 322 592 252 632 198 658 c 1
 198 610 198 556 198 500 c 0
 198 400 198 296 198 226 c 1
 238 206 316 186 364 168 c 1
 498 296 l 2
 510 298 532 290 558 296 c 1
 486 198 382 90 280 0 c 1
 272 -110 l 1
 390 -90 l 1
 384 -110 380 -128 380 -146 c 0
 380 -162 384 -178 388 -196 c 1
 330 -212 310 -234 272 -278 c 1
 244 -270 222 -264 202 -264 c 0
 162 -264 136 -282 92 -318 c 1
 116 -270 l 1
 152 -254 186 -232 220 -232 c 0
 228 -232 234 -234 242 -236 c 1
 264 -150 l 1
 136 -168 l 1
 144 -150 148 -112 148 -72 c 0
 148 -56 146 -40 146 -24 c 1
 68 12 -42 68 -90 98 c 1
 -60 132 -16 170 8 214 c 1
 10 238 10 260 10 282 c 0
 10 322 8 358 8 400 c 0
 8 410 8 420 8 430 c 0
 8 464 8 498 8 534 c 0
 8 550 8 566 8 582 c 1
 -30 582 -52 554 -104 532 c 1
 -24 638 150 788 284 904 c 1
EndSplineSet
EndUndoOperation
EndUndoes
Redoes
EndRedoes
EndUndoRedoHistory
Fore
SplineSet
284 904 m 1
 318 870 478 758 562 758 c 0
 568 758 574 758 580 760 c 1
 392 590 l 1
 322 592 252 632 198 658 c 1
 198 610 198 556 198 500 c 0
 198 400 198 296 198 226 c 1
 238 206 316 186 364 168 c 1
 498 296 l 2
 510 298 532 290 558 296 c 1
 486 198 382 90 280 0 c 1
 272 -110 l 1
 390 -90 l 1
 384 -110 380 -128 380 -146 c 0
 380 -162 384 -178 388 -196 c 1
 330 -212 310 -234 272 -278 c 1
 244 -270 222 -264 202 -264 c 0
 162 -264 136 -282 92 -318 c 1
 116 -270 l 1
 152 -254 186 -232 220 -232 c 0
 228 -232 234 -234 242 -236 c 1
 264 -150 l 1
 136 -168 l 1
 144 -150 148 -112 148 -72 c 0
 148 -56 146 -40 146 -24 c 1
 68 12 -42 68 -90 98 c 1
 -60 132 -16 170 8 214 c 1
 10 238 10 260 10 282 c 0
 10 322 8 358 8 400 c 0
 8 410 8 420 8 430 c 0
 8 464 8 498 8 534 c 0
 8 550 8 566 8 582 c 1
 -30 582 -52 554 -104 532 c 1
 -24 638 150 788 284 904 c 1
EndSplineSet
Validated: 1
EndChar

StartChar: multiply
Encoding: 215 215 167
Width: 582
VWidth: 0
Flags: HW
LayerCount: 2
UndoRedoHistory
Layer: 1
Undoes
UndoOperation
Index: 0
Type: 1
WasModified: 0
WasOrder2: 0
Layer: 2
Width: 582
VWidth: 0
LBearingChange: 0
UnicodeEnc: 0
InstructionsLength: 0
SplineSet
596 1028 m 5
 382 720 l 5
 576 446 l 5
 416 334 l 5
 260 544 l 5
 160 410 l 5
 -8 312 l 5
 186 588 l 5
 200 614 l 5
 -8 890 l 5
 178 992 l 5
 330 790 l 5
 450 942 l 5
 596 1028 l 5
EndSplineSet
EndUndoOperation
EndUndoes
Redoes
EndRedoes
EndUndoRedoHistory
Fore
SplineSet
596 1028 m 5
 382 720 l 5
 576 446 l 5
 416 334 l 5
 260 544 l 5
 160 410 l 5
 -8 312 l 5
 186 588 l 5
 200 614 l 5
 -8 890 l 5
 178 992 l 5
 330 790 l 5
 450 942 l 5
 596 1028 l 5
EndSplineSet
Validated: 1
EndChar

StartChar: florin
Encoding: 257 402 169
Width: 438
VWidth: 0
Flags: HW
LayerCount: 2
UndoRedoHistory
Layer: 1
Undoes
UndoOperation
Index: 0
Type: 1
WasModified: 0
WasOrder2: 0
Layer: 2
Width: 438
VWidth: 0
LBearingChange: 0
UnicodeEnc: 0
InstructionsLength: 0
SplineSet
304 1606 m 2
 304 1606 l 1
 354 1532 426 1430 532 1414 c 1
 474 1380 418 1348 360 1314 c 1
 356 1314 354 1314 350 1314 c 0
 314 1314 276 1340 246 1366 c 1
 244 1342 l 1
 244 1256 l 1
 244 1256 l 1
 244 816 l 1
 292 848 338 876 382 876 c 0
 416 876 448 860 478 818 c 1
 428 788 378 760 328 730 c 1
 306 758 296 774 278 774 c 0
 270 774 260 770 244 762 c 1
 244 16 l 2
 242 -48 178 -270 2 -288 c 0
 0 -290 -2 -290 -4 -292 c 1
 -4 -290 l 1
 -6 -290 -6 -292 -8 -292 c 0
 -58 -218 -130 -116 -236 -100 c 1
 -178 -66 -124 -36 -66 -2 c 1
 -62 -2 -58 0 -54 0 c 0
 -18 0 20 -26 50 -52 c 1
 52 -30 l 1
 52 58 l 1
 52 58 l 1
 52 1296 l 2
 52 1360 118 1582 294 1600 c 0
 296 1602 298 1602 300 1604 c 1
 300 1604 l 1
 302 1604 302 1606 304 1606 c 2
EndSplineSet
EndUndoOperation
EndUndoes
Redoes
EndRedoes
EndUndoRedoHistory
Fore
SplineSet
304 1606 m 2
 304 1606 l 1
 354 1532 426 1430 532 1414 c 1
 474 1380 418 1348 360 1314 c 1
 356 1314 354 1314 350 1314 c 0
 314 1314 276 1340 246 1366 c 1
 244 1342 l 1
 244 1256 l 1
 244 1256 l 1
 244 816 l 1
 292 848 338 876 382 876 c 0
 416 876 448 860 478 818 c 1
 428 788 378 760 328 730 c 1
 306 758 296 774 278 774 c 0
 270 774 260 770 244 762 c 1
 244 16 l 2
 242 -48 178 -270 2 -288 c 0
 0 -290 -2 -290 -4 -292 c 1
 -4 -290 l 1
 -6 -290 -6 -292 -8 -292 c 0
 -58 -218 -130 -116 -236 -100 c 1
 -178 -66 -124 -36 -66 -2 c 1
 -62 -2 -58 0 -54 0 c 0
 -18 0 20 -26 50 -52 c 1
 52 -30 l 1
 52 58 l 1
 52 58 l 1
 52 1296 l 2
 52 1360 118 1582 294 1600 c 0
 296 1602 298 1602 300 1604 c 1
 300 1604 l 1
 302 1604 302 1606 304 1606 c 2
EndSplineSet
Validated: 1
EndChar

StartChar: perthousand
Encoding: 261 8240 173
Width: 1216
VWidth: 0
Flags: HW
LayerCount: 2
UndoRedoHistory
Layer: 1
Undoes
UndoOperation
Index: 0
Type: 1
WasModified: 0
WasOrder2: 0
Layer: 2
Width: 1216
VWidth: 0
LBearingChange: 0
UnicodeEnc: 0
Refer: 76 37 N 1 0 0 1 0 0 2
InstructionsLength: 0
SplineSet
1044 496 m 29
 850 302 l 29
 1052 116 l 29
 1244 310 l 29
 1044 496 l 29
EndSplineSet
EndUndoOperation
EndUndoes
Redoes
EndRedoes
EndUndoRedoHistory
Fore
SplineSet
1044 496 m 25
 1244 310 l 25
 1052 116 l 25
 850 302 l 25
 1044 496 l 25
EndSplineSet
Refer: 76 37 N 1 0 0 1 0 0 2
Validated: 1
EndChar

StartChar: quoteright
Encoding: 265 8217 178
Width: 304
VWidth: 0
Flags: HW
LayerCount: 2
UndoRedoHistory
Layer: 1
Undoes
UndoOperation
Index: 0
Type: 1
WasModified: 0
WasOrder2: 0
Layer: 2
Width: 304
VWidth: 0
LBearingChange: 0
UnicodeEnc: 0
InstructionsLength: 0
SplineSet
248 1648 m 1
 248 1280 l 1
 62 1174 l 1
 70 1558 l 1
 248 1648 l 1
EndSplineSet
EndUndoOperation
EndUndoes
Redoes
EndRedoes
EndUndoRedoHistory
Fore
SplineSet
248 1648 m 1
 248 1280 l 1
 62 1174 l 1
 70 1558 l 1
 248 1648 l 1
EndSplineSet
Validated: 1
EndChar

StartChar: endash
Encoding: 269 8211 182
Width: 840
VWidth: 0
Flags: HW
LayerCount: 2
UndoRedoHistory
Layer: 1
Undoes
UndoOperation
Index: 0
Type: 1
WasModified: 0
WasOrder2: 0
Layer: 2
Width: 840
VWidth: 0
LBearingChange: 0
UnicodeEnc: 0
InstructionsLength: 0
SplineSet
614 830 m 4
 676 830 810 826 860 814 c 4
 872 812 876 806 876 798 c 0
 876 760 768 658 734 626 c 4
 708 604 654 564 654 564 c 5
 654 564 646 592 638 604 c 4
 632 614 572 630 560 630 c 4
 496 634 390 636 280 636 c 0
 98 636 -90 632 -90 632 c 5
 64 814 l 5
 64 814 414 830 604 830 c 0
 608 830 610 830 614 830 c 4
EndSplineSet
EndUndoOperation
EndUndoes
Redoes
EndRedoes
EndUndoRedoHistory
Fore
SplineSet
614 830 m 4
 676 830 810 826 860 814 c 4
 872 812 876 806 876 798 c 0
 876 760 768 658 734 626 c 4
 708 604 654 564 654 564 c 5
 654 564 646 592 638 604 c 4
 632 614 572 630 560 630 c 4
 496 634 390 636 280 636 c 0
 98 636 -90 632 -90 632 c 5
 64 814 l 5
 64 814 414 830 604 830 c 0
 608 830 610 830 614 830 c 4
EndSplineSet
Validated: 1
EndChar

StartChar: emdash
Encoding: 270 8212 183
Width: 1036
VWidth: 0
Flags: HW
LayerCount: 2
UndoRedoHistory
Layer: 1
Undoes
UndoOperation
Index: 0
Type: 1
WasModified: 0
WasOrder2: 0
Layer: 2
Width: 1036
VWidth: 0
LBearingChange: 0
UnicodeEnc: 0
InstructionsLength: 0
SplineSet
844 818 m 0
 906 818 1040 814 1090 802 c 0
 1102 800 1106 794 1106 786 c 0
 1106 748 998 646 964 614 c 0
 938 592 884 552 884 552 c 1
 884 552 876 580 868 592 c 0
 862 602 802 618 790 618 c 0
 726 622 578 624 416 624 c 0
 148 624 -154 620 -154 620 c 1
 0 802 l 1
 0 802 634 818 834 818 c 0
 838 818 840 818 844 818 c 0
EndSplineSet
EndUndoOperation
EndUndoes
Redoes
EndRedoes
EndUndoRedoHistory
Fore
SplineSet
844 818 m 0
 906 818 1040 814 1090 802 c 0
 1102 800 1106 794 1106 786 c 0
 1106 748 998 646 964 614 c 0
 938 592 884 552 884 552 c 1
 884 552 876 580 868 592 c 0
 862 602 802 618 790 618 c 0
 726 622 578 624 416 624 c 0
 148 624 -154 620 -154 620 c 1
 0 802 l 1
 0 802 634 818 834 818 c 0
 838 818 840 818 844 818 c 0
EndSplineSet
Validated: 1
EndChar

